<svg xmlns="http://www.w3.org/2000/svg" width="1200" height="620" viewBox="0 0 1200 620" role="img" aria-labelledby="title desc">
  <title id="title">PointPillars tensor path</title>
  <desc id="desc">PointPillars converts raw point clouds into bounded pillar tensors, pooled pillar features, a BEV pseudo-image, and detector or world-model outputs.</desc>
  <defs>
    <marker id="arrow" markerWidth="12" markerHeight="12" refX="9" refY="3" orient="auto" markerUnits="strokeWidth">
      <path d="M0,0 L0,6 L9,3 z" fill="#2563eb"/>
    </marker>
    <pattern id="fineGrid" width="24" height="24" patternUnits="userSpaceOnUse">
      <path d="M24 0H0V24" fill="none" stroke="#e2e8f0" stroke-width="1"/>
    </pattern>
    <filter id="shadow" x="-10%" y="-10%" width="120%" height="120%">
      <feDropShadow dx="0" dy="5" stdDeviation="7" flood-color="#0f172a" flood-opacity="0.12"/>
    </filter>
  </defs>
  <rect width="1200" height="620" fill="#f8fafc"/>
  <rect x="38" y="34" width="1124" height="552" rx="18" fill="#ffffff" stroke="#d9e2ef" filter="url(#shadow)"/>
  <text x="70" y="84" font-size="30" font-weight="800" fill="#0f172a">PointPillars tensor path</text>
  <rect x="70" y="104" width="1060" height="2" fill="#dbeafe"/>

<rect x="74" y="168" width="205" height="270" rx="12" fill="#eff6ff" stroke="#2f6fd6" stroke-width="2"/>
<text x="176.5" y="198" text-anchor="middle" font-size="17" font-weight="700" fill="#172033">Raw point cloud</text>
<text x="176.5" y="223" text-anchor="middle" font-size="13" font-weight="600" fill="#475569">x, y, z, intensity</text>
<circle cx="98" cy="270" r="5" fill="#2563eb"/>
<circle cx="125" cy="230" r="4" fill="#0f766e"/>
<circle cx="154" cy="295" r="4" fill="#2563eb"/>
<circle cx="172" cy="248" r="5" fill="#0f766e"/>
<circle cx="206" cy="282" r="4" fill="#2563eb"/>
<circle cx="228" cy="220" r="4" fill="#0f766e"/>
<circle cx="246" cy="306" r="5" fill="#2563eb"/>
<circle cx="102" cy="374" r="4" fill="#0f766e"/>
<circle cx="138" cy="336" r="4" fill="#2563eb"/>
<circle cx="176" cy="392" r="5" fill="#0f766e"/>
<circle cx="214" cy="350" r="4" fill="#2563eb"/>
<circle cx="250" cy="382" r="4" fill="#0f766e"/>
<rect x="100" y="406" width="152" height="30" rx="15" fill="#e0f2fe" stroke="#94a3b8"/>
<text x="176" y="426" text-anchor="middle" font-size="13" font-weight="700" fill="#334155">unordered points</text>
<line x1="280" y1="300" x2="322" y2="300" stroke="#2563eb" stroke-width="3" stroke-linecap="round" marker-end="url(#arrow)"/>
<rect x="320" y="168" width="190" height="270" rx="12" fill="#f0fdf4" stroke="#16a34a" stroke-width="2"/>
<text x="415" y="198" text-anchor="middle" font-size="17" font-weight="700" fill="#172033">Bounded pillar</text>
<text x="415" y="219" text-anchor="middle" font-size="17" font-weight="700" fill="#172033">tensor</text>
<text x="415" y="223" text-anchor="middle" font-size="13" font-weight="600" fill="#475569">M x P x D</text>
<rect x="324" y="220" width="25" height="25" fill="#f8fafc" stroke="#94a3b8"/>
<rect x="352" y="220" width="25" height="25" fill="#bfdbfe" stroke="#94a3b8"/>
<rect x="380" y="220" width="25" height="25" fill="#f8fafc" stroke="#94a3b8"/>
<rect x="408" y="220" width="25" height="25" fill="#f8fafc" stroke="#94a3b8"/>
<rect x="436" y="220" width="25" height="25" fill="#f8fafc" stroke="#94a3b8"/>
<rect x="324" y="248" width="25" height="25" fill="#f8fafc" stroke="#94a3b8"/>
<rect x="352" y="248" width="25" height="25" fill="#f8fafc" stroke="#94a3b8"/>
<rect x="380" y="248" width="25" height="25" fill="#f8fafc" stroke="#94a3b8"/>
<rect x="408" y="248" width="25" height="25" fill="#bfdbfe" stroke="#94a3b8"/>
<rect x="436" y="248" width="25" height="25" fill="#f8fafc" stroke="#94a3b8"/>
<rect x="324" y="276" width="25" height="25" fill="#f8fafc" stroke="#94a3b8"/>
<rect x="352" y="276" width="25" height="25" fill="#f8fafc" stroke="#94a3b8"/>
<rect x="380" y="276" width="25" height="25" fill="#bfdbfe" stroke="#94a3b8"/>
<rect x="408" y="276" width="25" height="25" fill="#f8fafc" stroke="#94a3b8"/>
<rect x="436" y="276" width="25" height="25" fill="#f8fafc" stroke="#94a3b8"/>
<rect x="324" y="304" width="25" height="25" fill="#bfdbfe" stroke="#94a3b8"/>
<rect x="352" y="304" width="25" height="25" fill="#f8fafc" stroke="#94a3b8"/>
<rect x="380" y="304" width="25" height="25" fill="#f8fafc" stroke="#94a3b8"/>
<rect x="408" y="304" width="25" height="25" fill="#f8fafc" stroke="#94a3b8"/>
<rect x="436" y="304" width="25" height="25" fill="#f8fafc" stroke="#94a3b8"/>
<rect x="324" y="332" width="25" height="25" fill="#f8fafc" stroke="#94a3b8"/>
<rect x="352" y="332" width="25" height="25" fill="#f8fafc" stroke="#94a3b8"/>
<rect x="380" y="332" width="25" height="25" fill="#f8fafc" stroke="#94a3b8"/>
<rect x="408" y="332" width="25" height="25" fill="#f8fafc" stroke="#94a3b8"/>
<rect x="436" y="332" width="25" height="25" fill="#bfdbfe" stroke="#94a3b8"/>

<rect x="356" y="316" width="20" height="54" fill="#60a5fa" opacity="0.82" stroke="#1d4ed8"/>
<rect x="380" y="298" width="20" height="72" fill="#60a5fa" opacity="0.82" stroke="#1d4ed8"/>
<rect x="404" y="280" width="20" height="90" fill="#60a5fa" opacity="0.82" stroke="#1d4ed8"/>
<rect x="428" y="262" width="20" height="108" fill="#60a5fa" opacity="0.82" stroke="#1d4ed8"/>
<line x1="512" y1="300" x2="554" y2="300" stroke="#2563eb" stroke-width="3" stroke-linecap="round" marker-end="url(#arrow)"/>
<rect x="556" y="210" width="120" height="96" rx="12" fill="#fff7ed" stroke="#ea580c" stroke-width="2"/>
<text x="616" y="240" text-anchor="middle" font-size="17" font-weight="700" fill="#172033">PFN</text>
<text x="616" y="265" text-anchor="middle" font-size="13" font-weight="600" fill="#475569">shared MLP</text>
<rect x="556" y="332" width="120" height="82" rx="12" fill="#fff7ed" stroke="#ea580c" stroke-width="2"/>
<text x="616" y="362" text-anchor="middle" font-size="17" font-weight="700" fill="#172033">Max pool</text>
<text x="616" y="387" text-anchor="middle" font-size="13" font-weight="600" fill="#475569">per pillar</text>
<line x1="616" y1="307" x2="616" y2="330" stroke="#ea580c" stroke-width="3" stroke-linecap="round" marker-end="url(#arrow)"/>
<line x1="678" y1="300" x2="718" y2="300" stroke="#2563eb" stroke-width="3" stroke-linecap="round" marker-end="url(#arrow)"/>
<rect x="718" y="168" width="245" height="270" rx="12" fill="#ecfeff" stroke="#0891b2" stroke-width="2"/>
<text x="840.5" y="198" text-anchor="middle" font-size="17" font-weight="700" fill="#172033">BEV pseudo-image</text>
<text x="840.5" y="223" text-anchor="middle" font-size="13" font-weight="600" fill="#475569">scatter C x H x W</text>
<rect x="720" y="205" width="26" height="26" rx="5" fill="#0f766e" stroke="#cbd5e1"/>
<rect x="750" y="205" width="26" height="26" rx="5" fill="#bbf7d0" stroke="#cbd5e1"/>
<rect x="780" y="205" width="26" height="26" rx="5" fill="#bbf7d0" stroke="#cbd5e1"/>
<rect x="810" y="205" width="26" height="26" rx="5" fill="#bbf7d0" stroke="#cbd5e1"/>
<rect x="840" y="205" width="26" height="26" rx="5" fill="#bbf7d0" stroke="#cbd5e1"/>
<rect x="870" y="205" width="26" height="26" rx="5" fill="#0f766e" stroke="#cbd5e1"/>
<rect x="900" y="205" width="26" height="26" rx="5" fill="#bbf7d0" stroke="#cbd5e1"/>
<rect x="720" y="235" width="26" height="26" rx="5" fill="#bbf7d0" stroke="#cbd5e1"/>
<rect x="750" y="235" width="26" height="26" rx="5" fill="#f8fafc" stroke="#cbd5e1"/>
<rect x="780" y="235" width="26" height="26" rx="5" fill="#f8fafc" stroke="#cbd5e1"/>
<rect x="810" y="235" width="26" height="26" rx="5" fill="#f8fafc" stroke="#cbd5e1"/>
<rect x="840" y="235" width="26" height="26" rx="5" fill="#0f766e" stroke="#cbd5e1"/>
<rect x="870" y="235" width="26" height="26" rx="5" fill="#f8fafc" stroke="#cbd5e1"/>
<rect x="900" y="235" width="26" height="26" rx="5" fill="#f8fafc" stroke="#cbd5e1"/>
<rect x="720" y="265" width="26" height="26" rx="5" fill="#bbf7d0" stroke="#cbd5e1"/>
<rect x="750" y="265" width="26" height="26" rx="5" fill="#f8fafc" stroke="#cbd5e1"/>
<rect x="780" y="265" width="26" height="26" rx="5" fill="#bbf7d0" stroke="#cbd5e1"/>
<rect x="810" y="265" width="26" height="26" rx="5" fill="#0f766e" stroke="#cbd5e1"/>
<rect x="840" y="265" width="26" height="26" rx="5" fill="#bbf7d0" stroke="#cbd5e1"/>
<rect x="870" y="265" width="26" height="26" rx="5" fill="#f8fafc" stroke="#cbd5e1"/>
<rect x="900" y="265" width="26" height="26" rx="5" fill="#bbf7d0" stroke="#cbd5e1"/>
<rect x="720" y="295" width="26" height="26" rx="5" fill="#bbf7d0" stroke="#cbd5e1"/>
<rect x="750" y="295" width="26" height="26" rx="5" fill="#f8fafc" stroke="#cbd5e1"/>
<rect x="780" y="295" width="26" height="26" rx="5" fill="#0f766e" stroke="#cbd5e1"/>
<rect x="810" y="295" width="26" height="26" rx="5" fill="#f8fafc" stroke="#cbd5e1"/>
<rect x="840" y="295" width="26" height="26" rx="5" fill="#bbf7d0" stroke="#cbd5e1"/>
<rect x="870" y="295" width="26" height="26" rx="5" fill="#f8fafc" stroke="#cbd5e1"/>
<rect x="900" y="295" width="26" height="26" rx="5" fill="#f8fafc" stroke="#cbd5e1"/>
<rect x="720" y="325" width="26" height="26" rx="5" fill="#bbf7d0" stroke="#cbd5e1"/>
<rect x="750" y="325" width="26" height="26" rx="5" fill="#0f766e" stroke="#cbd5e1"/>
<rect x="780" y="325" width="26" height="26" rx="5" fill="#bbf7d0" stroke="#cbd5e1"/>
<rect x="810" y="325" width="26" height="26" rx="5" fill="#bbf7d0" stroke="#cbd5e1"/>
<rect x="840" y="325" width="26" height="26" rx="5" fill="#bbf7d0" stroke="#cbd5e1"/>
<rect x="870" y="325" width="26" height="26" rx="5" fill="#bbf7d0" stroke="#cbd5e1"/>
<rect x="900" y="325" width="26" height="26" rx="5" fill="#0f766e" stroke="#cbd5e1"/>
<rect x="720" y="355" width="26" height="26" rx="5" fill="#0f766e" stroke="#cbd5e1"/>
<rect x="750" y="355" width="26" height="26" rx="5" fill="#f8fafc" stroke="#cbd5e1"/>
<rect x="780" y="355" width="26" height="26" rx="5" fill="#f8fafc" stroke="#cbd5e1"/>
<rect x="810" y="355" width="26" height="26" rx="5" fill="#f8fafc" stroke="#cbd5e1"/>
<rect x="840" y="355" width="26" height="26" rx="5" fill="#bbf7d0" stroke="#cbd5e1"/>
<rect x="870" y="355" width="26" height="26" rx="5" fill="#0f766e" stroke="#cbd5e1"/>
<rect x="900" y="355" width="26" height="26" rx="5" fill="#f8fafc" stroke="#cbd5e1"/>

<path d="M965 260 C1010 245 1022 220 1044 198" fill="none" stroke="#2563eb" stroke-width="3" stroke-linecap="round" stroke-linejoin="round" marker-end="url(#arrow)"/>
<path d="M965 340 C1012 352 1028 382 1046 414" fill="none" stroke="#2563eb" stroke-width="3" stroke-linecap="round" stroke-linejoin="round" marker-end="url(#arrow)"/>
<rect x="1042" y="148" width="96" height="92" rx="12" fill="#f5f3ff" stroke="#7c3aed" stroke-width="2"/>
<text x="1090" y="200" text-anchor="middle" font-size="15" font-weight="700" fill="#172033">2D CNN</text>
<text x="1090" y="218" text-anchor="middle" font-size="15" font-weight="700" fill="#172033">backbone</text>

<rect x="1030" y="390" width="118" height="88" rx="12" fill="#ffe4e6" stroke="#e11d48" stroke-width="2"/>
<text x="1089" y="440" text-anchor="middle" font-size="15" font-weight="700" fill="#172033">Detector /</text>
<text x="1089" y="458" text-anchor="middle" font-size="15" font-weight="700" fill="#172033">world model</text>

<text x="600" y="508" text-anchor="middle" font-size="15" font-weight="600" fill="#475569">vertical columns keep height evidence inside</text>
<text x="600" y="526" text-anchor="middle" font-size="15" font-weight="600" fill="#475569">features</text>

</svg>
