<svg xmlns="http://www.w3.org/2000/svg" width="1200" height="620" viewBox="0 0 1200 620" role="img" aria-labelledby="title desc">
  <title id="title">Lie-group residual linearization</title>
  <desc id="desc">how small tangent-space updates become pose updates and Jacobians on SO(3) and SE(3).</desc>
  <defs>
    <marker id="arrow" markerWidth="12" markerHeight="12" refX="9" refY="3" orient="auto" markerUnits="strokeWidth">
      <path d="M0,0 L0,6 L9,3 z" fill="#2563eb"/>
    </marker>
    <filter id="shadow" x="-10%" y="-10%" width="120%" height="120%">
      <feDropShadow dx="0" dy="6" stdDeviation="8" flood-color="#0f172a" flood-opacity="0.14"/>
    </filter>
  </defs>
  <rect width="1200" height="620" fill="#f8fafc"/>
  <rect x="36" y="34" width="1128" height="552" rx="28" fill="#ffffff" stroke="#d8dee9" filter="url(#shadow)"/>
  <text x="70" y="88" font-size="32" font-weight="800" fill="#0f172a">Lie-group residual linearization</text>
  <rect x="70" y="108" width="1060" height="2" fill="#dbeafe"/>
  <line x1="190" y1="205" x2="300" y2="335" stroke="#94a3b8" stroke-width="3"/>
<line x1="415" y1="170" x2="300" y2="335" stroke="#94a3b8" stroke-width="3"/>
<line x1="415" y1="170" x2="530" y2="345" stroke="#94a3b8" stroke-width="3"/>
<line x1="640" y1="205" x2="530" y2="345" stroke="#94a3b8" stroke-width="3"/>
<line x1="640" y1="205" x2="760" y2="335" stroke="#94a3b8" stroke-width="3"/>
<line x1="865" y1="170" x2="760" y2="335" stroke="#94a3b8" stroke-width="3"/>
<line x1="865" y1="170" x2="905" y2="430" stroke="#94a3b8" stroke-width="3"/>
<line x1="1010" y1="310" x2="905" y2="430" stroke="#94a3b8" stroke-width="3"/>
<rect x="270" y="305" width="60" height="60" rx="10" fill="#fef3c7" stroke="#ca8a04" stroke-width="3"/>
<text x="300" y="343" text-anchor="middle" font-size="23" font-weight="800" fill="#713f12">f1</text>
<rect x="500" y="315" width="60" height="60" rx="10" fill="#fef3c7" stroke="#ca8a04" stroke-width="3"/>
<text x="530" y="353" text-anchor="middle" font-size="23" font-weight="800" fill="#713f12">f2</text>
<rect x="730" y="305" width="60" height="60" rx="10" fill="#fef3c7" stroke="#ca8a04" stroke-width="3"/>
<text x="760" y="343" text-anchor="middle" font-size="23" font-weight="800" fill="#713f12">f3</text>
<rect x="875" y="400" width="60" height="60" rx="10" fill="#fef3c7" stroke="#ca8a04" stroke-width="3"/>
<text x="905" y="438" text-anchor="middle" font-size="23" font-weight="800" fill="#713f12">f4</text>
<circle cx="190" cy="205" r="48" fill="#dbeafe" stroke="#2563eb" stroke-width="3"/>
<text x="190" y="211" text-anchor="middle" font-size="17" font-weight="700" fill="#0f172a">tangent</text>
<text x="190" y="230.55" text-anchor="middle" font-size="17" font-weight="700" fill="#0f172a">update</text>
<circle cx="415" cy="170" r="48" fill="#dbeafe" stroke="#2563eb" stroke-width="3"/>
<text x="415" y="176" text-anchor="middle" font-size="17" font-weight="700" fill="#0f172a">Exp map</text>
<circle cx="640" cy="205" r="48" fill="#dbeafe" stroke="#2563eb" stroke-width="3"/>
<text x="640" y="211" text-anchor="middle" font-size="17" font-weight="700" fill="#0f172a">SE(3) pose</text>
<circle cx="865" cy="170" r="48" fill="#dbeafe" stroke="#2563eb" stroke-width="3"/>
<text x="865" y="176" text-anchor="middle" font-size="17" font-weight="700" fill="#0f172a">Adjoint</text>
<circle cx="1010" cy="310" r="48" fill="#dbeafe" stroke="#2563eb" stroke-width="3"/>
<text x="1010" y="316" text-anchor="middle" font-size="17" font-weight="700" fill="#0f172a">residual</text>
</svg>
