<svg xmlns="http://www.w3.org/2000/svg" width="1200" height="620" viewBox="0 0 1200 620" role="img" aria-labelledby="title desc">
  <title id="title">Schur complement reduction</title>
  <desc id="desc">The Schur complement removes landmarks or nuisance states to produce a smaller reduced system for pose solving, marginalization, or PCG.</desc>
  <defs>
    <marker id="arrow" markerWidth="12" markerHeight="12" refX="9" refY="3" orient="auto" markerUnits="strokeWidth">
      <path d="M0,0 L0,6 L9,3 z" fill="#2563eb"/>
    </marker>
    <pattern id="fineGrid" width="24" height="24" patternUnits="userSpaceOnUse">
      <path d="M24 0H0V24" fill="none" stroke="#e2e8f0" stroke-width="1"/>
    </pattern>
    <filter id="shadow" x="-10%" y="-10%" width="120%" height="120%">
      <feDropShadow dx="0" dy="5" stdDeviation="7" flood-color="#0f172a" flood-opacity="0.12"/>
    </filter>
  </defs>
  <rect width="1200" height="620" fill="#f8fafc"/>
  <rect x="38" y="34" width="1124" height="552" rx="18" fill="#ffffff" stroke="#d9e2ef" filter="url(#shadow)"/>
  <text x="70" y="84" font-size="30" font-weight="800" fill="#0f172a">Schur complement reduction</text>
  <rect x="70" y="104" width="1060" height="2" fill="#dbeafe"/>

<rect x="70" y="134" width="270" height="310" rx="12" fill="#eff6ff" stroke="#2f6fd6" stroke-width="2"/>
<text x="205" y="164" text-anchor="middle" font-size="17" font-weight="700" fill="#172033">Block linear system</text>
<text x="205" y="189" text-anchor="middle" font-size="13" font-weight="600" fill="#475569">poses x and</text>
<text x="205" y="205" text-anchor="middle" font-size="13" font-weight="600" fill="#475569">landmarks l</text>
<rect x="90" y="170" width="28" height="28" rx="5" fill="#2563eb" stroke="#cbd5e1"/>
<rect x="122" y="170" width="28" height="28" rx="5" fill="#bfdbfe" stroke="#cbd5e1"/>
<rect x="154" y="170" width="28" height="28" rx="5" fill="#bfdbfe" stroke="#cbd5e1"/>
<rect x="186" y="170" width="28" height="28" rx="5" fill="#f8fafc" stroke="#cbd5e1"/>
<rect x="218" y="170" width="28" height="28" rx="5" fill="#bfdbfe" stroke="#cbd5e1"/>
<rect x="250" y="170" width="28" height="28" rx="5" fill="#f8fafc" stroke="#cbd5e1"/>
<rect x="90" y="202" width="28" height="28" rx="5" fill="#bfdbfe" stroke="#cbd5e1"/>
<rect x="122" y="202" width="28" height="28" rx="5" fill="#2563eb" stroke="#cbd5e1"/>
<rect x="154" y="202" width="28" height="28" rx="5" fill="#bfdbfe" stroke="#cbd5e1"/>
<rect x="186" y="202" width="28" height="28" rx="5" fill="#bfdbfe" stroke="#cbd5e1"/>
<rect x="218" y="202" width="28" height="28" rx="5" fill="#f8fafc" stroke="#cbd5e1"/>
<rect x="250" y="202" width="28" height="28" rx="5" fill="#bfdbfe" stroke="#cbd5e1"/>
<rect x="90" y="234" width="28" height="28" rx="5" fill="#bfdbfe" stroke="#cbd5e1"/>
<rect x="122" y="234" width="28" height="28" rx="5" fill="#bfdbfe" stroke="#cbd5e1"/>
<rect x="154" y="234" width="28" height="28" rx="5" fill="#2563eb" stroke="#cbd5e1"/>
<rect x="186" y="234" width="28" height="28" rx="5" fill="#f8fafc" stroke="#cbd5e1"/>
<rect x="218" y="234" width="28" height="28" rx="5" fill="#bfdbfe" stroke="#cbd5e1"/>
<rect x="250" y="234" width="28" height="28" rx="5" fill="#f8fafc" stroke="#cbd5e1"/>
<rect x="90" y="266" width="28" height="28" rx="5" fill="#f8fafc" stroke="#cbd5e1"/>
<rect x="122" y="266" width="28" height="28" rx="5" fill="#bfdbfe" stroke="#cbd5e1"/>
<rect x="154" y="266" width="28" height="28" rx="5" fill="#f8fafc" stroke="#cbd5e1"/>
<rect x="186" y="266" width="28" height="28" rx="5" fill="#2563eb" stroke="#cbd5e1"/>
<rect x="218" y="266" width="28" height="28" rx="5" fill="#bfdbfe" stroke="#cbd5e1"/>
<rect x="250" y="266" width="28" height="28" rx="5" fill="#bfdbfe" stroke="#cbd5e1"/>
<rect x="90" y="298" width="28" height="28" rx="5" fill="#bfdbfe" stroke="#cbd5e1"/>
<rect x="122" y="298" width="28" height="28" rx="5" fill="#f8fafc" stroke="#cbd5e1"/>
<rect x="154" y="298" width="28" height="28" rx="5" fill="#bfdbfe" stroke="#cbd5e1"/>
<rect x="186" y="298" width="28" height="28" rx="5" fill="#bfdbfe" stroke="#cbd5e1"/>
<rect x="218" y="298" width="28" height="28" rx="5" fill="#2563eb" stroke="#cbd5e1"/>
<rect x="250" y="298" width="28" height="28" rx="5" fill="#bfdbfe" stroke="#cbd5e1"/>
<rect x="90" y="330" width="28" height="28" rx="5" fill="#f8fafc" stroke="#cbd5e1"/>
<rect x="122" y="330" width="28" height="28" rx="5" fill="#bfdbfe" stroke="#cbd5e1"/>
<rect x="154" y="330" width="28" height="28" rx="5" fill="#f8fafc" stroke="#cbd5e1"/>
<rect x="186" y="330" width="28" height="28" rx="5" fill="#bfdbfe" stroke="#cbd5e1"/>
<rect x="218" y="330" width="28" height="28" rx="5" fill="#bfdbfe" stroke="#cbd5e1"/>
<rect x="250" y="330" width="28" height="28" rx="5" fill="#2563eb" stroke="#cbd5e1"/>

<text x="222" y="396" text-anchor="middle" font-size="16" font-weight="600" fill="#475569">[ Hxx Hxl ]</text>
<text x="222" y="420" text-anchor="middle" font-size="16" font-weight="600" fill="#475569">[ Hlx Hll ]</text>
<line x1="344" y1="286" x2="452" y2="286" stroke="#2563eb" stroke-width="3" stroke-linecap="round" marker-end="url(#arrow)"/>
<rect x="454" y="178" width="210" height="88" rx="12" fill="#fff7ed" stroke="#ea580c" stroke-width="2"/>
<text x="559" y="208" text-anchor="middle" font-size="17" font-weight="700" fill="#172033">Eliminate landmarks</text>
<text x="559" y="233" text-anchor="middle" font-size="13" font-weight="600" fill="#475569">S = Hxx - Hxl Hll^-1 Hlx</text>
<rect x="454" y="324" width="210" height="88" rx="12" fill="#fef3c7" stroke="#ca8a04" stroke-width="2"/>
<text x="559" y="354" text-anchor="middle" font-size="17" font-weight="700" fill="#172033">Marginalize nuisance</text>
<text x="559" y="375" text-anchor="middle" font-size="17" font-weight="700" fill="#172033">states</text>
<text x="559" y="379" text-anchor="middle" font-size="13" font-weight="600" fill="#475569">keep prior on</text>
<text x="559" y="395" text-anchor="middle" font-size="13" font-weight="600" fill="#475569">remaining variables</text>
<path d="M560 268 C560 290 560 300 560 322" fill="none" stroke="#ea580c" stroke-width="3" stroke-linecap="round" stroke-linejoin="round" marker-end="url(#arrow)"/>
<line x1="666" y1="286" x2="738" y2="286" stroke="#2563eb" stroke-width="3" stroke-linecap="round" marker-end="url(#arrow)"/>
<rect x="740" y="134" width="252" height="310" rx="12" fill="#f0fdf4" stroke="#16a34a" stroke-width="2"/>
<text x="866" y="164" text-anchor="middle" font-size="17" font-weight="700" fill="#172033">Reduced pose system</text>
<text x="866" y="189" text-anchor="middle" font-size="13" font-weight="600" fill="#475569">smaller solve for direct or</text>
<text x="866" y="205" text-anchor="middle" font-size="13" font-weight="600" fill="#475569">PCG updates</text>
<rect x="742" y="188" width="38" height="38" rx="5" fill="#16a34a" stroke="#cbd5e1"/>
<rect x="784" y="188" width="38" height="38" rx="5" fill="#bbf7d0" stroke="#cbd5e1"/>
<rect x="826" y="188" width="38" height="38" rx="5" fill="#f8fafc" stroke="#cbd5e1"/>
<rect x="868" y="188" width="38" height="38" rx="5" fill="#f8fafc" stroke="#cbd5e1"/>
<rect x="742" y="230" width="38" height="38" rx="5" fill="#bbf7d0" stroke="#cbd5e1"/>
<rect x="784" y="230" width="38" height="38" rx="5" fill="#16a34a" stroke="#cbd5e1"/>
<rect x="826" y="230" width="38" height="38" rx="5" fill="#bbf7d0" stroke="#cbd5e1"/>
<rect x="868" y="230" width="38" height="38" rx="5" fill="#f8fafc" stroke="#cbd5e1"/>
<rect x="742" y="272" width="38" height="38" rx="5" fill="#f8fafc" stroke="#cbd5e1"/>
<rect x="784" y="272" width="38" height="38" rx="5" fill="#bbf7d0" stroke="#cbd5e1"/>
<rect x="826" y="272" width="38" height="38" rx="5" fill="#16a34a" stroke="#cbd5e1"/>
<rect x="868" y="272" width="38" height="38" rx="5" fill="#bbf7d0" stroke="#cbd5e1"/>
<rect x="742" y="314" width="38" height="38" rx="5" fill="#f8fafc" stroke="#cbd5e1"/>
<rect x="784" y="314" width="38" height="38" rx="5" fill="#f8fafc" stroke="#cbd5e1"/>
<rect x="826" y="314" width="38" height="38" rx="5" fill="#bbf7d0" stroke="#cbd5e1"/>
<rect x="868" y="314" width="38" height="38" rx="5" fill="#16a34a" stroke="#cbd5e1"/>

<rect x="782" y="388" width="166" height="32" rx="16" fill="#dcfce7" stroke="#94a3b8"/>
<text x="865" y="409" text-anchor="middle" font-size="13" font-weight="700" fill="#334155">pose-only normal</text>
<rect x="1018" y="220" width="96" height="132" rx="12" fill="#f8fafc" stroke="#94a3b8" stroke-width="2"/>
<text x="1066" y="292" text-anchor="middle" font-size="15" font-weight="700" fill="#172033">Back</text>
<text x="1066" y="310" text-anchor="middle" font-size="15" font-weight="700" fill="#172033">substitute or</text>

<line x1="994" y1="286" x2="1016" y2="286" stroke="#64748b" stroke-width="2.5" stroke-linecap="round" marker-end="url(#arrow)"/>
<text x="600" y="508" text-anchor="middle" font-size="15" font-weight="600" fill="#475569">used by bundle adjustment, SLAM marginalization, and iterative pose solves</text>

</svg>
