<svg xmlns="http://www.w3.org/2000/svg" width="1200" height="620" viewBox="0 0 1200 620" role="img" aria-labelledby="title desc">
  <title id="title">Rank-revealing least-squares solvers</title>
  <desc id="desc">QR and SVD solve least-squares problems while exposing rank and nullspace structure that normal equations can hide.</desc>
  <defs>
    <marker id="arrow" markerWidth="12" markerHeight="12" refX="9" refY="3" orient="auto" markerUnits="strokeWidth">
      <path d="M0,0 L0,6 L9,3 z" fill="#2563eb"/>
    </marker>
    <pattern id="fineGrid" width="24" height="24" patternUnits="userSpaceOnUse">
      <path d="M24 0H0V24" fill="none" stroke="#e2e8f0" stroke-width="1"/>
    </pattern>
    <filter id="shadow" x="-10%" y="-10%" width="120%" height="120%">
      <feDropShadow dx="0" dy="5" stdDeviation="7" flood-color="#0f172a" flood-opacity="0.12"/>
    </filter>
  </defs>
  <rect width="1200" height="620" fill="#f8fafc"/>
  <rect x="38" y="34" width="1124" height="552" rx="18" fill="#ffffff" stroke="#d9e2ef" filter="url(#shadow)"/>
  <text x="70" y="84" font-size="30" font-weight="800" fill="#0f172a">Rank-revealing least-squares solvers</text>
  <rect x="70" y="104" width="1060" height="2" fill="#dbeafe"/>

<rect x="72" y="134" width="180" height="300" rx="12" fill="#eff6ff" stroke="#2f6fd6" stroke-width="2"/>
<text x="162" y="164" text-anchor="middle" font-size="17" font-weight="700" fill="#172033">Least-squares</text>
<text x="162" y="185" text-anchor="middle" font-size="17" font-weight="700" fill="#172033">system</text>
<text x="162" y="189" text-anchor="middle" font-size="13" font-weight="600" fill="#475569">min ||A x - b||</text>
<rect x="92" y="170" width="26" height="26" rx="5" fill="#2563eb" stroke="#cbd5e1"/>
<rect x="122" y="170" width="26" height="26" rx="5" fill="#bfdbfe" stroke="#cbd5e1"/>
<rect x="152" y="170" width="26" height="26" rx="5" fill="#f8fafc" stroke="#cbd5e1"/>
<rect x="182" y="170" width="26" height="26" rx="5" fill="#f8fafc" stroke="#cbd5e1"/>
<rect x="92" y="200" width="26" height="26" rx="5" fill="#f8fafc" stroke="#cbd5e1"/>
<rect x="122" y="200" width="26" height="26" rx="5" fill="#2563eb" stroke="#cbd5e1"/>
<rect x="152" y="200" width="26" height="26" rx="5" fill="#f8fafc" stroke="#cbd5e1"/>
<rect x="182" y="200" width="26" height="26" rx="5" fill="#2563eb" stroke="#cbd5e1"/>
<rect x="92" y="230" width="26" height="26" rx="5" fill="#f8fafc" stroke="#cbd5e1"/>
<rect x="122" y="230" width="26" height="26" rx="5" fill="#bfdbfe" stroke="#cbd5e1"/>
<rect x="152" y="230" width="26" height="26" rx="5" fill="#2563eb" stroke="#cbd5e1"/>
<rect x="182" y="230" width="26" height="26" rx="5" fill="#f8fafc" stroke="#cbd5e1"/>
<rect x="92" y="260" width="26" height="26" rx="5" fill="#f8fafc" stroke="#cbd5e1"/>
<rect x="122" y="260" width="26" height="26" rx="5" fill="#2563eb" stroke="#cbd5e1"/>
<rect x="152" y="260" width="26" height="26" rx="5" fill="#f8fafc" stroke="#cbd5e1"/>
<rect x="182" y="260" width="26" height="26" rx="5" fill="#2563eb" stroke="#cbd5e1"/>
<rect x="92" y="290" width="26" height="26" rx="5" fill="#2563eb" stroke="#cbd5e1"/>
<rect x="122" y="290" width="26" height="26" rx="5" fill="#bfdbfe" stroke="#cbd5e1"/>
<rect x="152" y="290" width="26" height="26" rx="5" fill="#f8fafc" stroke="#cbd5e1"/>
<rect x="182" y="290" width="26" height="26" rx="5" fill="#f8fafc" stroke="#cbd5e1"/>
<rect x="92" y="320" width="26" height="26" rx="5" fill="#f8fafc" stroke="#cbd5e1"/>
<rect x="122" y="320" width="26" height="26" rx="5" fill="#bfdbfe" stroke="#cbd5e1"/>
<rect x="152" y="320" width="26" height="26" rx="5" fill="#f8fafc" stroke="#cbd5e1"/>
<rect x="182" y="320" width="26" height="26" rx="5" fill="#2563eb" stroke="#cbd5e1"/>

<line x1="254" y1="270" x2="304" y2="270" stroke="#2563eb" stroke-width="3" stroke-linecap="round" marker-end="url(#arrow)"/>
<rect x="306" y="134" width="285" height="138" rx="12" fill="#f0fdf4" stroke="#16a34a" stroke-width="2"/>
<text x="448.5" y="164" text-anchor="middle" font-size="17" font-weight="700" fill="#172033">QR path</text>
<text x="448.5" y="189" text-anchor="middle" font-size="13" font-weight="600" fill="#475569">orthogonal solve;</text>
<text x="448.5" y="205" text-anchor="middle" font-size="13" font-weight="600" fill="#475569">rank from R diagonal</text>
<rect x="332" y="178" width="24" height="24" rx="5" fill="#16a34a" stroke="#cbd5e1"/>
<rect x="360" y="178" width="24" height="24" rx="5" fill="#f8fafc" stroke="#cbd5e1"/>
<rect x="388" y="178" width="24" height="24" rx="5" fill="#f8fafc" stroke="#cbd5e1"/>
<rect x="416" y="178" width="24" height="24" rx="5" fill="#bbf7d0" stroke="#cbd5e1"/>
<rect x="332" y="206" width="24" height="24" rx="5" fill="#f8fafc" stroke="#cbd5e1"/>
<rect x="360" y="206" width="24" height="24" rx="5" fill="#16a34a" stroke="#cbd5e1"/>
<rect x="388" y="206" width="24" height="24" rx="5" fill="#bbf7d0" stroke="#cbd5e1"/>
<rect x="416" y="206" width="24" height="24" rx="5" fill="#f8fafc" stroke="#cbd5e1"/>
<rect x="332" y="234" width="24" height="24" rx="5" fill="#f8fafc" stroke="#cbd5e1"/>
<rect x="360" y="234" width="24" height="24" rx="5" fill="#bbf7d0" stroke="#cbd5e1"/>
<rect x="388" y="234" width="24" height="24" rx="5" fill="#16a34a" stroke="#cbd5e1"/>
<rect x="416" y="234" width="24" height="24" rx="5" fill="#f8fafc" stroke="#cbd5e1"/>
<rect x="332" y="262" width="24" height="24" rx="5" fill="#bbf7d0" stroke="#cbd5e1"/>
<rect x="360" y="262" width="24" height="24" rx="5" fill="#f8fafc" stroke="#cbd5e1"/>
<rect x="388" y="262" width="24" height="24" rx="5" fill="#f8fafc" stroke="#cbd5e1"/>
<rect x="416" y="262" width="24" height="24" rx="5" fill="#16a34a" stroke="#cbd5e1"/>
<rect x="332" y="290" width="24" height="24" rx="5" fill="#f8fafc" stroke="#cbd5e1"/>
<rect x="360" y="290" width="24" height="24" rx="5" fill="#f8fafc" stroke="#cbd5e1"/>
<rect x="388" y="290" width="24" height="24" rx="5" fill="#bbf7d0" stroke="#cbd5e1"/>
<rect x="416" y="290" width="24" height="24" rx="5" fill="#f8fafc" stroke="#cbd5e1"/>

<text x="392" y="344" text-anchor="middle" font-size="17" font-weight="700" fill="#172033">Q</text>
<rect x="472" y="178" width="24" height="24" rx="5" fill="#16a34a" stroke="#cbd5e1"/>
<rect x="500" y="178" width="24" height="24" rx="5" fill="#bbf7d0" stroke="#cbd5e1"/>
<rect x="528" y="178" width="24" height="24" rx="5" fill="#bbf7d0" stroke="#cbd5e1"/>
<rect x="556" y="178" width="24" height="24" rx="5" fill="#bbf7d0" stroke="#cbd5e1"/>
<rect x="472" y="206" width="24" height="24" rx="5" fill="#f8fafc" stroke="#cbd5e1"/>
<rect x="500" y="206" width="24" height="24" rx="5" fill="#16a34a" stroke="#cbd5e1"/>
<rect x="528" y="206" width="24" height="24" rx="5" fill="#bbf7d0" stroke="#cbd5e1"/>
<rect x="556" y="206" width="24" height="24" rx="5" fill="#bbf7d0" stroke="#cbd5e1"/>
<rect x="472" y="234" width="24" height="24" rx="5" fill="#f8fafc" stroke="#cbd5e1"/>
<rect x="500" y="234" width="24" height="24" rx="5" fill="#f8fafc" stroke="#cbd5e1"/>
<rect x="528" y="234" width="24" height="24" rx="5" fill="#16a34a" stroke="#cbd5e1"/>
<rect x="556" y="234" width="24" height="24" rx="5" fill="#bbf7d0" stroke="#cbd5e1"/>
<rect x="472" y="262" width="24" height="24" rx="5" fill="#f8fafc" stroke="#cbd5e1"/>
<rect x="500" y="262" width="24" height="24" rx="5" fill="#f8fafc" stroke="#cbd5e1"/>
<rect x="528" y="262" width="24" height="24" rx="5" fill="#f8fafc" stroke="#cbd5e1"/>
<rect x="556" y="262" width="24" height="24" rx="5" fill="#16a34a" stroke="#cbd5e1"/>

<text x="526" y="344" text-anchor="middle" font-size="17" font-weight="700" fill="#172033">R</text>
<rect x="306" y="330" width="285" height="104" rx="12" fill="#f8fafc" stroke="#94a3b8" stroke-width="2"/>
<text x="448.5" y="360" text-anchor="middle" font-size="17" font-weight="700" fill="#172033">Good default for least</text>
<text x="448.5" y="381" text-anchor="middle" font-size="17" font-weight="700" fill="#172033">squares</text>
<text x="448.5" y="385" text-anchor="middle" font-size="13" font-weight="600" fill="#475569">avoids squaring</text>
<text x="448.5" y="401" text-anchor="middle" font-size="13" font-weight="600" fill="#475569">condition number</text>
<line x1="594" y1="270" x2="654" y2="270" stroke="#2563eb" stroke-width="3" stroke-linecap="round" marker-end="url(#arrow)"/>
<rect x="656" y="134" width="460" height="300" rx="12" fill="#f5f3ff" stroke="#7c3aed" stroke-width="2"/>
<text x="886" y="164" text-anchor="middle" font-size="17" font-weight="700" fill="#172033">SVD path</text>
<text x="886" y="189" text-anchor="middle" font-size="13" font-weight="600" fill="#475569">U Sigma V^T shows numerical rank</text>
<text x="886" y="205" text-anchor="middle" font-size="13" font-weight="600" fill="#475569">and nullspace</text>
<rect x="704" y="178" width="20" height="20" rx="5" fill="#7c3aed" stroke="#cbd5e1"/>
<rect x="728" y="178" width="20" height="20" rx="5" fill="#f8fafc" stroke="#cbd5e1"/>
<rect x="752" y="178" width="20" height="20" rx="5" fill="#f8fafc" stroke="#cbd5e1"/>
<rect x="776" y="178" width="20" height="20" rx="5" fill="#f8fafc" stroke="#cbd5e1"/>
<rect x="704" y="202" width="20" height="20" rx="5" fill="#f8fafc" stroke="#cbd5e1"/>
<rect x="728" y="202" width="20" height="20" rx="5" fill="#7c3aed" stroke="#cbd5e1"/>
<rect x="752" y="202" width="20" height="20" rx="5" fill="#f8fafc" stroke="#cbd5e1"/>
<rect x="776" y="202" width="20" height="20" rx="5" fill="#ddd6fe" stroke="#cbd5e1"/>
<rect x="704" y="226" width="20" height="20" rx="5" fill="#f8fafc" stroke="#cbd5e1"/>
<rect x="728" y="226" width="20" height="20" rx="5" fill="#f8fafc" stroke="#cbd5e1"/>
<rect x="752" y="226" width="20" height="20" rx="5" fill="#7c3aed" stroke="#cbd5e1"/>
<rect x="776" y="226" width="20" height="20" rx="5" fill="#f8fafc" stroke="#cbd5e1"/>
<rect x="704" y="250" width="20" height="20" rx="5" fill="#f8fafc" stroke="#cbd5e1"/>
<rect x="728" y="250" width="20" height="20" rx="5" fill="#ddd6fe" stroke="#cbd5e1"/>
<rect x="752" y="250" width="20" height="20" rx="5" fill="#f8fafc" stroke="#cbd5e1"/>
<rect x="776" y="250" width="20" height="20" rx="5" fill="#7c3aed" stroke="#cbd5e1"/>
<rect x="704" y="274" width="20" height="20" rx="5" fill="#ddd6fe" stroke="#cbd5e1"/>
<rect x="728" y="274" width="20" height="20" rx="5" fill="#f8fafc" stroke="#cbd5e1"/>
<rect x="752" y="274" width="20" height="20" rx="5" fill="#f8fafc" stroke="#cbd5e1"/>
<rect x="776" y="274" width="20" height="20" rx="5" fill="#f8fafc" stroke="#cbd5e1"/>

<rect x="824" y="178" width="22" height="22" rx="4" fill="#7c3aed"/>
<rect x="852" y="206" width="22" height="22" rx="4" fill="#7c3aed"/>
<rect x="880" y="234" width="22" height="22" rx="4" fill="#7c3aed"/>
<rect x="908" y="262" width="22" height="22" rx="4" fill="#ef4444"/>
<rect x="960" y="178" width="20" height="20" rx="5" fill="#7c3aed" stroke="#cbd5e1"/>
<rect x="984" y="178" width="20" height="20" rx="5" fill="#f8fafc" stroke="#cbd5e1"/>
<rect x="1008" y="178" width="20" height="20" rx="5" fill="#f8fafc" stroke="#cbd5e1"/>
<rect x="1032" y="178" width="20" height="20" rx="5" fill="#f8fafc" stroke="#cbd5e1"/>
<rect x="960" y="202" width="20" height="20" rx="5" fill="#f8fafc" stroke="#cbd5e1"/>
<rect x="984" y="202" width="20" height="20" rx="5" fill="#7c3aed" stroke="#cbd5e1"/>
<rect x="1008" y="202" width="20" height="20" rx="5" fill="#f8fafc" stroke="#cbd5e1"/>
<rect x="1032" y="202" width="20" height="20" rx="5" fill="#ddd6fe" stroke="#cbd5e1"/>
<rect x="960" y="226" width="20" height="20" rx="5" fill="#f8fafc" stroke="#cbd5e1"/>
<rect x="984" y="226" width="20" height="20" rx="5" fill="#f8fafc" stroke="#cbd5e1"/>
<rect x="1008" y="226" width="20" height="20" rx="5" fill="#7c3aed" stroke="#cbd5e1"/>
<rect x="1032" y="226" width="20" height="20" rx="5" fill="#f8fafc" stroke="#cbd5e1"/>
<rect x="960" y="250" width="20" height="20" rx="5" fill="#f8fafc" stroke="#cbd5e1"/>
<rect x="984" y="250" width="20" height="20" rx="5" fill="#ddd6fe" stroke="#cbd5e1"/>
<rect x="1008" y="250" width="20" height="20" rx="5" fill="#f8fafc" stroke="#cbd5e1"/>
<rect x="1032" y="250" width="20" height="20" rx="5" fill="#7c3aed" stroke="#cbd5e1"/>

<text x="750" y="344" text-anchor="middle" font-size="17" font-weight="700" fill="#172033">U</text>
<text x="870" y="344" text-anchor="middle" font-size="17" font-weight="700" fill="#172033">Sigma</text>
<text x="1008" y="344" text-anchor="middle" font-size="17" font-weight="700" fill="#172033">V^T</text>
<rect x="812" y="388" width="130" height="32" rx="16" fill="#fee2e2" stroke="#94a3b8"/>
<text x="877" y="409" text-anchor="middle" font-size="13" font-weight="700" fill="#334155">tiny singular</text>
<text x="610" y="506" text-anchor="middle" font-size="15" font-weight="600" fill="#475569">normal equations can hide this rank evidence</text>

</svg>
