<svg xmlns="http://www.w3.org/2000/svg" width="1200" height="620" viewBox="0 0 1200 620" role="img" aria-labelledby="title desc">
  <title id="title">Square-root information workflow</title>
  <desc id="desc">Square-root information methods preserve numerical stability by carrying factored information matrices and recovering selected marginal covariances only when needed.</desc>
  <defs>
    <marker id="arrow" markerWidth="12" markerHeight="12" refX="9" refY="3" orient="auto" markerUnits="strokeWidth">
      <path d="M0,0 L0,6 L9,3 z" fill="#2563eb"/>
    </marker>
    <pattern id="fineGrid" width="24" height="24" patternUnits="userSpaceOnUse">
      <path d="M24 0H0V24" fill="none" stroke="#e2e8f0" stroke-width="1"/>
    </pattern>
    <filter id="shadow" x="-10%" y="-10%" width="120%" height="120%">
      <feDropShadow dx="0" dy="5" stdDeviation="7" flood-color="#0f172a" flood-opacity="0.12"/>
    </filter>
  </defs>
  <rect width="1200" height="620" fill="#f8fafc"/>
  <rect x="38" y="34" width="1124" height="552" rx="18" fill="#ffffff" stroke="#d9e2ef" filter="url(#shadow)"/>
  <text x="70" y="84" font-size="30" font-weight="800" fill="#0f172a">Square-root information workflow</text>
  <rect x="70" y="104" width="1060" height="2" fill="#dbeafe"/>

<rect x="72" y="134" width="202" height="292" rx="12" fill="#eff6ff" stroke="#2f6fd6" stroke-width="2"/>
<text x="173" y="164" text-anchor="middle" font-size="17" font-weight="700" fill="#172033">Whitened residual</text>
<text x="173" y="185" text-anchor="middle" font-size="17" font-weight="700" fill="#172033">Jacobian</text>
<text x="173" y="189" text-anchor="middle" font-size="13" font-weight="600" fill="#475569">A x = b</text>
<rect x="88" y="170" width="25" height="25" rx="5" fill="#2563eb" stroke="#cbd5e1"/>
<rect x="117" y="170" width="25" height="25" rx="5" fill="#f8fafc" stroke="#cbd5e1"/>
<rect x="146" y="170" width="25" height="25" rx="5" fill="#bfdbfe" stroke="#cbd5e1"/>
<rect x="175" y="170" width="25" height="25" rx="5" fill="#2563eb" stroke="#cbd5e1"/>
<rect x="88" y="199" width="25" height="25" rx="5" fill="#f8fafc" stroke="#cbd5e1"/>
<rect x="117" y="199" width="25" height="25" rx="5" fill="#2563eb" stroke="#cbd5e1"/>
<rect x="146" y="199" width="25" height="25" rx="5" fill="#2563eb" stroke="#cbd5e1"/>
<rect x="175" y="199" width="25" height="25" rx="5" fill="#f8fafc" stroke="#cbd5e1"/>
<rect x="88" y="228" width="25" height="25" rx="5" fill="#f8fafc" stroke="#cbd5e1"/>
<rect x="117" y="228" width="25" height="25" rx="5" fill="#2563eb" stroke="#cbd5e1"/>
<rect x="146" y="228" width="25" height="25" rx="5" fill="#2563eb" stroke="#cbd5e1"/>
<rect x="175" y="228" width="25" height="25" rx="5" fill="#f8fafc" stroke="#cbd5e1"/>
<rect x="88" y="257" width="25" height="25" rx="5" fill="#2563eb" stroke="#cbd5e1"/>
<rect x="117" y="257" width="25" height="25" rx="5" fill="#f8fafc" stroke="#cbd5e1"/>
<rect x="146" y="257" width="25" height="25" rx="5" fill="#bfdbfe" stroke="#cbd5e1"/>
<rect x="175" y="257" width="25" height="25" rx="5" fill="#2563eb" stroke="#cbd5e1"/>
<rect x="88" y="286" width="25" height="25" rx="5" fill="#f8fafc" stroke="#cbd5e1"/>
<rect x="117" y="286" width="25" height="25" rx="5" fill="#f8fafc" stroke="#cbd5e1"/>
<rect x="146" y="286" width="25" height="25" rx="5" fill="#2563eb" stroke="#cbd5e1"/>
<rect x="175" y="286" width="25" height="25" rx="5" fill="#f8fafc" stroke="#cbd5e1"/>
<rect x="88" y="315" width="25" height="25" rx="5" fill="#f8fafc" stroke="#cbd5e1"/>
<rect x="117" y="315" width="25" height="25" rx="5" fill="#2563eb" stroke="#cbd5e1"/>
<rect x="146" y="315" width="25" height="25" rx="5" fill="#bfdbfe" stroke="#cbd5e1"/>
<rect x="175" y="315" width="25" height="25" rx="5" fill="#f8fafc" stroke="#cbd5e1"/>

<line x1="276" y1="280" x2="340" y2="280" stroke="#2563eb" stroke-width="3" stroke-linecap="round" marker-end="url(#arrow)"/>
<rect x="342" y="134" width="220" height="292" rx="12" fill="#f0fdf4" stroke="#16a34a" stroke-width="2"/>
<text x="452" y="164" text-anchor="middle" font-size="17" font-weight="700" fill="#172033">QR factor</text>
<text x="452" y="189" text-anchor="middle" font-size="13" font-weight="600" fill="#475569">A = Q R, carry R</text>
<rect x="388" y="178" width="27" height="27" rx="5" fill="#16a34a" stroke="#cbd5e1"/>
<rect x="419" y="178" width="27" height="27" rx="5" fill="#bbf7d0" stroke="#cbd5e1"/>
<rect x="450" y="178" width="27" height="27" rx="5" fill="#bbf7d0" stroke="#cbd5e1"/>
<rect x="481" y="178" width="27" height="27" rx="5" fill="#bbf7d0" stroke="#cbd5e1"/>
<rect x="512" y="178" width="27" height="27" rx="5" fill="#bbf7d0" stroke="#cbd5e1"/>
<rect x="388" y="209" width="27" height="27" rx="5" fill="#f8fafc" stroke="#cbd5e1"/>
<rect x="419" y="209" width="27" height="27" rx="5" fill="#16a34a" stroke="#cbd5e1"/>
<rect x="450" y="209" width="27" height="27" rx="5" fill="#bbf7d0" stroke="#cbd5e1"/>
<rect x="481" y="209" width="27" height="27" rx="5" fill="#bbf7d0" stroke="#cbd5e1"/>
<rect x="512" y="209" width="27" height="27" rx="5" fill="#bbf7d0" stroke="#cbd5e1"/>
<rect x="388" y="240" width="27" height="27" rx="5" fill="#f8fafc" stroke="#cbd5e1"/>
<rect x="419" y="240" width="27" height="27" rx="5" fill="#f8fafc" stroke="#cbd5e1"/>
<rect x="450" y="240" width="27" height="27" rx="5" fill="#16a34a" stroke="#cbd5e1"/>
<rect x="481" y="240" width="27" height="27" rx="5" fill="#bbf7d0" stroke="#cbd5e1"/>
<rect x="512" y="240" width="27" height="27" rx="5" fill="#bbf7d0" stroke="#cbd5e1"/>
<rect x="388" y="271" width="27" height="27" rx="5" fill="#f8fafc" stroke="#cbd5e1"/>
<rect x="419" y="271" width="27" height="27" rx="5" fill="#f8fafc" stroke="#cbd5e1"/>
<rect x="450" y="271" width="27" height="27" rx="5" fill="#f8fafc" stroke="#cbd5e1"/>
<rect x="481" y="271" width="27" height="27" rx="5" fill="#16a34a" stroke="#cbd5e1"/>
<rect x="512" y="271" width="27" height="27" rx="5" fill="#bbf7d0" stroke="#cbd5e1"/>

<rect x="398" y="354" width="110" height="30" rx="15" fill="#dcfce7" stroke="#94a3b8"/>
<text x="453" y="374" text-anchor="middle" font-size="13" font-weight="700" fill="#334155">square-root form</text>
<line x1="564" y1="280" x2="638" y2="280" stroke="#2563eb" stroke-width="3" stroke-linecap="round" marker-end="url(#arrow)"/>
<rect x="640" y="134" width="220" height="292" rx="12" fill="#ecfeff" stroke="#0891b2" stroke-width="2"/>
<text x="750" y="164" text-anchor="middle" font-size="17" font-weight="700" fill="#172033">Information factor</text>
<text x="750" y="189" text-anchor="middle" font-size="13" font-weight="600" fill="#475569">Lambda = R^T R when</text>
<text x="750" y="205" text-anchor="middle" font-size="13" font-weight="600" fill="#475569">needed</text>
<rect x="688" y="178" width="27" height="27" rx="5" fill="#0f766e" stroke="#cbd5e1"/>
<rect x="719" y="178" width="27" height="27" rx="5" fill="#99f6e4" stroke="#cbd5e1"/>
<rect x="750" y="178" width="27" height="27" rx="5" fill="#f8fafc" stroke="#cbd5e1"/>
<rect x="781" y="178" width="27" height="27" rx="5" fill="#f8fafc" stroke="#cbd5e1"/>
<rect x="812" y="178" width="27" height="27" rx="5" fill="#f8fafc" stroke="#cbd5e1"/>
<rect x="688" y="209" width="27" height="27" rx="5" fill="#99f6e4" stroke="#cbd5e1"/>
<rect x="719" y="209" width="27" height="27" rx="5" fill="#0f766e" stroke="#cbd5e1"/>
<rect x="750" y="209" width="27" height="27" rx="5" fill="#99f6e4" stroke="#cbd5e1"/>
<rect x="781" y="209" width="27" height="27" rx="5" fill="#f8fafc" stroke="#cbd5e1"/>
<rect x="812" y="209" width="27" height="27" rx="5" fill="#f8fafc" stroke="#cbd5e1"/>
<rect x="688" y="240" width="27" height="27" rx="5" fill="#f8fafc" stroke="#cbd5e1"/>
<rect x="719" y="240" width="27" height="27" rx="5" fill="#99f6e4" stroke="#cbd5e1"/>
<rect x="750" y="240" width="27" height="27" rx="5" fill="#0f766e" stroke="#cbd5e1"/>
<rect x="781" y="240" width="27" height="27" rx="5" fill="#99f6e4" stroke="#cbd5e1"/>
<rect x="812" y="240" width="27" height="27" rx="5" fill="#f8fafc" stroke="#cbd5e1"/>
<rect x="688" y="271" width="27" height="27" rx="5" fill="#f8fafc" stroke="#cbd5e1"/>
<rect x="719" y="271" width="27" height="27" rx="5" fill="#f8fafc" stroke="#cbd5e1"/>
<rect x="750" y="271" width="27" height="27" rx="5" fill="#99f6e4" stroke="#cbd5e1"/>
<rect x="781" y="271" width="27" height="27" rx="5" fill="#0f766e" stroke="#cbd5e1"/>
<rect x="812" y="271" width="27" height="27" rx="5" fill="#99f6e4" stroke="#cbd5e1"/>
<rect x="688" y="302" width="27" height="27" rx="5" fill="#f8fafc" stroke="#cbd5e1"/>
<rect x="719" y="302" width="27" height="27" rx="5" fill="#f8fafc" stroke="#cbd5e1"/>
<rect x="750" y="302" width="27" height="27" rx="5" fill="#f8fafc" stroke="#cbd5e1"/>
<rect x="781" y="302" width="27" height="27" rx="5" fill="#99f6e4" stroke="#cbd5e1"/>
<rect x="812" y="302" width="27" height="27" rx="5" fill="#0f766e" stroke="#cbd5e1"/>

<line x1="862" y1="280" x2="922" y2="280" stroke="#2563eb" stroke-width="3" stroke-linecap="round" marker-end="url(#arrow)"/>
<rect x="924" y="134" width="202" height="292" rx="12" fill="#f5f3ff" stroke="#7c3aed" stroke-width="2"/>
<text x="1025" y="164" text-anchor="middle" font-size="17" font-weight="700" fill="#172033">Selected covariance</text>
<text x="1025" y="185" text-anchor="middle" font-size="17" font-weight="700" fill="#172033">recovery</text>
<text x="1025" y="189" text-anchor="middle" font-size="13" font-weight="600" fill="#475569">only queried</text>
<text x="1025" y="205" text-anchor="middle" font-size="13" font-weight="600" fill="#475569">marginals</text>
<rect x="956" y="192" width="27" height="27" rx="5" fill="#7c3aed" stroke="#cbd5e1"/>
<rect x="987" y="192" width="27" height="27" rx="5" fill="#ddd6fe" stroke="#cbd5e1"/>
<rect x="1018" y="192" width="27" height="27" rx="5" fill="#f8fafc" stroke="#cbd5e1"/>
<rect x="1049" y="192" width="27" height="27" rx="5" fill="#f8fafc" stroke="#cbd5e1"/>
<rect x="956" y="223" width="27" height="27" rx="5" fill="#ddd6fe" stroke="#cbd5e1"/>
<rect x="987" y="223" width="27" height="27" rx="5" fill="#7c3aed" stroke="#cbd5e1"/>
<rect x="1018" y="223" width="27" height="27" rx="5" fill="#f8fafc" stroke="#cbd5e1"/>
<rect x="1049" y="223" width="27" height="27" rx="5" fill="#f8fafc" stroke="#cbd5e1"/>
<rect x="956" y="254" width="27" height="27" rx="5" fill="#f8fafc" stroke="#cbd5e1"/>
<rect x="987" y="254" width="27" height="27" rx="5" fill="#f8fafc" stroke="#cbd5e1"/>
<rect x="1018" y="254" width="27" height="27" rx="5" fill="#7c3aed" stroke="#cbd5e1"/>
<rect x="1049" y="254" width="27" height="27" rx="5" fill="#f8fafc" stroke="#cbd5e1"/>
<rect x="956" y="285" width="27" height="27" rx="5" fill="#f8fafc" stroke="#cbd5e1"/>
<rect x="987" y="285" width="27" height="27" rx="5" fill="#f8fafc" stroke="#cbd5e1"/>
<rect x="1018" y="285" width="27" height="27" rx="5" fill="#f8fafc" stroke="#cbd5e1"/>
<rect x="1049" y="285" width="27" height="27" rx="5" fill="#7c3aed" stroke="#cbd5e1"/>

<rect x="962" y="354" width="126" height="30" rx="15" fill="#ede9fe" stroke="#94a3b8"/>
<text x="1025" y="374" text-anchor="middle" font-size="13" font-weight="700" fill="#334155">chosen blocks only</text>
<path d="M744 424 C690 498 470 500 434 424" fill="none" stroke="#64748b" stroke-width="2.5" stroke-linecap="round" stroke-linejoin="round" marker-end="url(#arrow)"/>
<text x="594" y="520" text-anchor="middle" font-size="15" font-weight="600" fill="#475569">avoid forming dense inverse covariance during normal operation</text>

</svg>
