<svg xmlns="http://www.w3.org/2000/svg" width="1200" height="620" viewBox="0 0 1200 620" role="img" aria-labelledby="title desc">
  <title id="title">Sparse ordering and fill-in</title>
  <desc id="desc">Variable ordering changes fill-in during sparse factorization, directly affecting memory, runtime, and whether real-time SLAM remains feasible.</desc>
  <defs>
    <marker id="arrow" markerWidth="12" markerHeight="12" refX="9" refY="3" orient="auto" markerUnits="strokeWidth">
      <path d="M0,0 L0,6 L9,3 z" fill="#2563eb"/>
    </marker>
    <pattern id="fineGrid" width="24" height="24" patternUnits="userSpaceOnUse">
      <path d="M24 0H0V24" fill="none" stroke="#e2e8f0" stroke-width="1"/>
    </pattern>
    <filter id="shadow" x="-10%" y="-10%" width="120%" height="120%">
      <feDropShadow dx="0" dy="5" stdDeviation="7" flood-color="#0f172a" flood-opacity="0.12"/>
    </filter>
  </defs>
  <rect width="1200" height="620" fill="#f8fafc"/>
  <rect x="38" y="34" width="1124" height="552" rx="18" fill="#ffffff" stroke="#d9e2ef" filter="url(#shadow)"/>
  <text x="70" y="84" font-size="30" font-weight="800" fill="#0f172a">Sparse ordering and fill-in</text>
  <rect x="70" y="104" width="1060" height="2" fill="#dbeafe"/>

<rect x="74" y="128" width="260" height="310" rx="12" fill="#eff6ff" stroke="#2f6fd6" stroke-width="2"/>
<text x="204" y="158" text-anchor="middle" font-size="17" font-weight="700" fill="#172033">Original sparsity</text>
<text x="204" y="179" text-anchor="middle" font-size="17" font-weight="700" fill="#172033">graph</text>
<text x="204" y="183" text-anchor="middle" font-size="13" font-weight="600" fill="#475569">variables and local</text>
<text x="204" y="199" text-anchor="middle" font-size="13" font-weight="600" fill="#475569">factors</text>
<rect x="104" y="160" width="25" height="25" rx="5" fill="#2563eb" stroke="#cbd5e1"/>
<rect x="133" y="160" width="25" height="25" rx="5" fill="#bfdbfe" stroke="#cbd5e1"/>
<rect x="162" y="160" width="25" height="25" rx="5" fill="#f8fafc" stroke="#cbd5e1"/>
<rect x="191" y="160" width="25" height="25" rx="5" fill="#f8fafc" stroke="#cbd5e1"/>
<rect x="220" y="160" width="25" height="25" rx="5" fill="#f8fafc" stroke="#cbd5e1"/>
<rect x="249" y="160" width="25" height="25" rx="5" fill="#bfdbfe" stroke="#cbd5e1"/>
<rect x="278" y="160" width="25" height="25" rx="5" fill="#f8fafc" stroke="#cbd5e1"/>
<rect x="104" y="189" width="25" height="25" rx="5" fill="#bfdbfe" stroke="#cbd5e1"/>
<rect x="133" y="189" width="25" height="25" rx="5" fill="#2563eb" stroke="#cbd5e1"/>
<rect x="162" y="189" width="25" height="25" rx="5" fill="#bfdbfe" stroke="#cbd5e1"/>
<rect x="191" y="189" width="25" height="25" rx="5" fill="#f8fafc" stroke="#cbd5e1"/>
<rect x="220" y="189" width="25" height="25" rx="5" fill="#f8fafc" stroke="#cbd5e1"/>
<rect x="249" y="189" width="25" height="25" rx="5" fill="#f8fafc" stroke="#cbd5e1"/>
<rect x="278" y="189" width="25" height="25" rx="5" fill="#f8fafc" stroke="#cbd5e1"/>
<rect x="104" y="218" width="25" height="25" rx="5" fill="#f8fafc" stroke="#cbd5e1"/>
<rect x="133" y="218" width="25" height="25" rx="5" fill="#bfdbfe" stroke="#cbd5e1"/>
<rect x="162" y="218" width="25" height="25" rx="5" fill="#2563eb" stroke="#cbd5e1"/>
<rect x="191" y="218" width="25" height="25" rx="5" fill="#bfdbfe" stroke="#cbd5e1"/>
<rect x="220" y="218" width="25" height="25" rx="5" fill="#f8fafc" stroke="#cbd5e1"/>
<rect x="249" y="218" width="25" height="25" rx="5" fill="#f8fafc" stroke="#cbd5e1"/>
<rect x="278" y="218" width="25" height="25" rx="5" fill="#f8fafc" stroke="#cbd5e1"/>
<rect x="104" y="247" width="25" height="25" rx="5" fill="#f8fafc" stroke="#cbd5e1"/>
<rect x="133" y="247" width="25" height="25" rx="5" fill="#f8fafc" stroke="#cbd5e1"/>
<rect x="162" y="247" width="25" height="25" rx="5" fill="#bfdbfe" stroke="#cbd5e1"/>
<rect x="191" y="247" width="25" height="25" rx="5" fill="#2563eb" stroke="#cbd5e1"/>
<rect x="220" y="247" width="25" height="25" rx="5" fill="#bfdbfe" stroke="#cbd5e1"/>
<rect x="249" y="247" width="25" height="25" rx="5" fill="#f8fafc" stroke="#cbd5e1"/>
<rect x="278" y="247" width="25" height="25" rx="5" fill="#f8fafc" stroke="#cbd5e1"/>
<rect x="104" y="276" width="25" height="25" rx="5" fill="#f8fafc" stroke="#cbd5e1"/>
<rect x="133" y="276" width="25" height="25" rx="5" fill="#f8fafc" stroke="#cbd5e1"/>
<rect x="162" y="276" width="25" height="25" rx="5" fill="#f8fafc" stroke="#cbd5e1"/>
<rect x="191" y="276" width="25" height="25" rx="5" fill="#bfdbfe" stroke="#cbd5e1"/>
<rect x="220" y="276" width="25" height="25" rx="5" fill="#2563eb" stroke="#cbd5e1"/>
<rect x="249" y="276" width="25" height="25" rx="5" fill="#bfdbfe" stroke="#cbd5e1"/>
<rect x="278" y="276" width="25" height="25" rx="5" fill="#f8fafc" stroke="#cbd5e1"/>
<rect x="104" y="305" width="25" height="25" rx="5" fill="#bfdbfe" stroke="#cbd5e1"/>
<rect x="133" y="305" width="25" height="25" rx="5" fill="#f8fafc" stroke="#cbd5e1"/>
<rect x="162" y="305" width="25" height="25" rx="5" fill="#f8fafc" stroke="#cbd5e1"/>
<rect x="191" y="305" width="25" height="25" rx="5" fill="#f8fafc" stroke="#cbd5e1"/>
<rect x="220" y="305" width="25" height="25" rx="5" fill="#bfdbfe" stroke="#cbd5e1"/>
<rect x="249" y="305" width="25" height="25" rx="5" fill="#2563eb" stroke="#cbd5e1"/>
<rect x="278" y="305" width="25" height="25" rx="5" fill="#bfdbfe" stroke="#cbd5e1"/>
<rect x="104" y="334" width="25" height="25" rx="5" fill="#f8fafc" stroke="#cbd5e1"/>
<rect x="133" y="334" width="25" height="25" rx="5" fill="#f8fafc" stroke="#cbd5e1"/>
<rect x="162" y="334" width="25" height="25" rx="5" fill="#f8fafc" stroke="#cbd5e1"/>
<rect x="191" y="334" width="25" height="25" rx="5" fill="#f8fafc" stroke="#cbd5e1"/>
<rect x="220" y="334" width="25" height="25" rx="5" fill="#f8fafc" stroke="#cbd5e1"/>
<rect x="249" y="334" width="25" height="25" rx="5" fill="#bfdbfe" stroke="#cbd5e1"/>
<rect x="278" y="334" width="25" height="25" rx="5" fill="#2563eb" stroke="#cbd5e1"/>

<line x1="336" y1="282" x2="430" y2="222" stroke="#2563eb" stroke-width="3" stroke-linecap="round" marker-end="url(#arrow)"/>
<line x1="336" y1="310" x2="430" y2="382" stroke="#2563eb" stroke-width="3" stroke-linecap="round" marker-end="url(#arrow)"/>
<rect x="432" y="128" width="260" height="310" rx="12" fill="#fff1f2" stroke="#dc2626" stroke-width="2"/>
<text x="562" y="158" text-anchor="middle" font-size="17" font-weight="700" fill="#172033">Poor ordering</text>
<text x="562" y="183" text-anchor="middle" font-size="13" font-weight="600" fill="#475569">early dense</text>
<text x="562" y="199" text-anchor="middle" font-size="13" font-weight="600" fill="#475569">separators</text>
<rect x="470" y="160" width="25" height="25" rx="5" fill="#dc2626" stroke="#cbd5e1"/>
<rect x="499" y="160" width="25" height="25" rx="5" fill="#f8fafc" stroke="#cbd5e1"/>
<rect x="528" y="160" width="25" height="25" rx="5" fill="#f8fafc" stroke="#cbd5e1"/>
<rect x="557" y="160" width="25" height="25" rx="5" fill="#f8fafc" stroke="#cbd5e1"/>
<rect x="586" y="160" width="25" height="25" rx="5" fill="#f8fafc" stroke="#cbd5e1"/>
<rect x="615" y="160" width="25" height="25" rx="5" fill="#f8fafc" stroke="#cbd5e1"/>
<rect x="644" y="160" width="25" height="25" rx="5" fill="#f8fafc" stroke="#cbd5e1"/>
<rect x="470" y="189" width="25" height="25" rx="5" fill="#fecaca" stroke="#cbd5e1"/>
<rect x="499" y="189" width="25" height="25" rx="5" fill="#dc2626" stroke="#cbd5e1"/>
<rect x="528" y="189" width="25" height="25" rx="5" fill="#f8fafc" stroke="#cbd5e1"/>
<rect x="557" y="189" width="25" height="25" rx="5" fill="#f8fafc" stroke="#cbd5e1"/>
<rect x="586" y="189" width="25" height="25" rx="5" fill="#f8fafc" stroke="#cbd5e1"/>
<rect x="615" y="189" width="25" height="25" rx="5" fill="#f8fafc" stroke="#cbd5e1"/>
<rect x="644" y="189" width="25" height="25" rx="5" fill="#f8fafc" stroke="#cbd5e1"/>
<rect x="470" y="218" width="25" height="25" rx="5" fill="#fecaca" stroke="#cbd5e1"/>
<rect x="499" y="218" width="25" height="25" rx="5" fill="#fecaca" stroke="#cbd5e1"/>
<rect x="528" y="218" width="25" height="25" rx="5" fill="#dc2626" stroke="#cbd5e1"/>
<rect x="557" y="218" width="25" height="25" rx="5" fill="#f8fafc" stroke="#cbd5e1"/>
<rect x="586" y="218" width="25" height="25" rx="5" fill="#f8fafc" stroke="#cbd5e1"/>
<rect x="615" y="218" width="25" height="25" rx="5" fill="#f8fafc" stroke="#cbd5e1"/>
<rect x="644" y="218" width="25" height="25" rx="5" fill="#f8fafc" stroke="#cbd5e1"/>
<rect x="470" y="247" width="25" height="25" rx="5" fill="#fecaca" stroke="#cbd5e1"/>
<rect x="499" y="247" width="25" height="25" rx="5" fill="#fecaca" stroke="#cbd5e1"/>
<rect x="528" y="247" width="25" height="25" rx="5" fill="#fecaca" stroke="#cbd5e1"/>
<rect x="557" y="247" width="25" height="25" rx="5" fill="#dc2626" stroke="#cbd5e1"/>
<rect x="586" y="247" width="25" height="25" rx="5" fill="#f8fafc" stroke="#cbd5e1"/>
<rect x="615" y="247" width="25" height="25" rx="5" fill="#f8fafc" stroke="#cbd5e1"/>
<rect x="644" y="247" width="25" height="25" rx="5" fill="#f8fafc" stroke="#cbd5e1"/>
<rect x="470" y="276" width="25" height="25" rx="5" fill="#fecaca" stroke="#cbd5e1"/>
<rect x="499" y="276" width="25" height="25" rx="5" fill="#fecaca" stroke="#cbd5e1"/>
<rect x="528" y="276" width="25" height="25" rx="5" fill="#fecaca" stroke="#cbd5e1"/>
<rect x="557" y="276" width="25" height="25" rx="5" fill="#fecaca" stroke="#cbd5e1"/>
<rect x="586" y="276" width="25" height="25" rx="5" fill="#dc2626" stroke="#cbd5e1"/>
<rect x="615" y="276" width="25" height="25" rx="5" fill="#f8fafc" stroke="#cbd5e1"/>
<rect x="644" y="276" width="25" height="25" rx="5" fill="#f8fafc" stroke="#cbd5e1"/>
<rect x="470" y="305" width="25" height="25" rx="5" fill="#fecaca" stroke="#cbd5e1"/>
<rect x="499" y="305" width="25" height="25" rx="5" fill="#fecaca" stroke="#cbd5e1"/>
<rect x="528" y="305" width="25" height="25" rx="5" fill="#fecaca" stroke="#cbd5e1"/>
<rect x="557" y="305" width="25" height="25" rx="5" fill="#fecaca" stroke="#cbd5e1"/>
<rect x="586" y="305" width="25" height="25" rx="5" fill="#fecaca" stroke="#cbd5e1"/>
<rect x="615" y="305" width="25" height="25" rx="5" fill="#dc2626" stroke="#cbd5e1"/>
<rect x="644" y="305" width="25" height="25" rx="5" fill="#f8fafc" stroke="#cbd5e1"/>
<rect x="470" y="334" width="25" height="25" rx="5" fill="#fecaca" stroke="#cbd5e1"/>
<rect x="499" y="334" width="25" height="25" rx="5" fill="#fecaca" stroke="#cbd5e1"/>
<rect x="528" y="334" width="25" height="25" rx="5" fill="#f8fafc" stroke="#cbd5e1"/>
<rect x="557" y="334" width="25" height="25" rx="5" fill="#fecaca" stroke="#cbd5e1"/>
<rect x="586" y="334" width="25" height="25" rx="5" fill="#fecaca" stroke="#cbd5e1"/>
<rect x="615" y="334" width="25" height="25" rx="5" fill="#fecaca" stroke="#cbd5e1"/>
<rect x="644" y="334" width="25" height="25" rx="5" fill="#dc2626" stroke="#cbd5e1"/>

<rect x="486" y="388" width="150" height="32" rx="16" fill="#fee2e2" stroke="#94a3b8"/>
<text x="561" y="409" text-anchor="middle" font-size="13" font-weight="700" fill="#334155">more fill-in</text>
<rect x="798" y="128" width="260" height="310" rx="12" fill="#f0fdf4" stroke="#16a34a" stroke-width="2"/>
<text x="928" y="158" text-anchor="middle" font-size="17" font-weight="700" fill="#172033">Fill-reducing ordering</text>
<text x="928" y="183" text-anchor="middle" font-size="13" font-weight="600" fill="#475569">AMD, COLAMD, nested</text>
<text x="928" y="199" text-anchor="middle" font-size="13" font-weight="600" fill="#475569">dissection</text>
<rect x="836" y="160" width="25" height="25" rx="5" fill="#16a34a" stroke="#cbd5e1"/>
<rect x="865" y="160" width="25" height="25" rx="5" fill="#f8fafc" stroke="#cbd5e1"/>
<rect x="894" y="160" width="25" height="25" rx="5" fill="#f8fafc" stroke="#cbd5e1"/>
<rect x="923" y="160" width="25" height="25" rx="5" fill="#f8fafc" stroke="#cbd5e1"/>
<rect x="952" y="160" width="25" height="25" rx="5" fill="#f8fafc" stroke="#cbd5e1"/>
<rect x="981" y="160" width="25" height="25" rx="5" fill="#f8fafc" stroke="#cbd5e1"/>
<rect x="1010" y="160" width="25" height="25" rx="5" fill="#f8fafc" stroke="#cbd5e1"/>
<rect x="836" y="189" width="25" height="25" rx="5" fill="#bbf7d0" stroke="#cbd5e1"/>
<rect x="865" y="189" width="25" height="25" rx="5" fill="#16a34a" stroke="#cbd5e1"/>
<rect x="894" y="189" width="25" height="25" rx="5" fill="#f8fafc" stroke="#cbd5e1"/>
<rect x="923" y="189" width="25" height="25" rx="5" fill="#f8fafc" stroke="#cbd5e1"/>
<rect x="952" y="189" width="25" height="25" rx="5" fill="#f8fafc" stroke="#cbd5e1"/>
<rect x="981" y="189" width="25" height="25" rx="5" fill="#f8fafc" stroke="#cbd5e1"/>
<rect x="1010" y="189" width="25" height="25" rx="5" fill="#f8fafc" stroke="#cbd5e1"/>
<rect x="836" y="218" width="25" height="25" rx="5" fill="#f8fafc" stroke="#cbd5e1"/>
<rect x="865" y="218" width="25" height="25" rx="5" fill="#bbf7d0" stroke="#cbd5e1"/>
<rect x="894" y="218" width="25" height="25" rx="5" fill="#16a34a" stroke="#cbd5e1"/>
<rect x="923" y="218" width="25" height="25" rx="5" fill="#f8fafc" stroke="#cbd5e1"/>
<rect x="952" y="218" width="25" height="25" rx="5" fill="#f8fafc" stroke="#cbd5e1"/>
<rect x="981" y="218" width="25" height="25" rx="5" fill="#f8fafc" stroke="#cbd5e1"/>
<rect x="1010" y="218" width="25" height="25" rx="5" fill="#f8fafc" stroke="#cbd5e1"/>
<rect x="836" y="247" width="25" height="25" rx="5" fill="#f8fafc" stroke="#cbd5e1"/>
<rect x="865" y="247" width="25" height="25" rx="5" fill="#f8fafc" stroke="#cbd5e1"/>
<rect x="894" y="247" width="25" height="25" rx="5" fill="#bbf7d0" stroke="#cbd5e1"/>
<rect x="923" y="247" width="25" height="25" rx="5" fill="#16a34a" stroke="#cbd5e1"/>
<rect x="952" y="247" width="25" height="25" rx="5" fill="#f8fafc" stroke="#cbd5e1"/>
<rect x="981" y="247" width="25" height="25" rx="5" fill="#f8fafc" stroke="#cbd5e1"/>
<rect x="1010" y="247" width="25" height="25" rx="5" fill="#f8fafc" stroke="#cbd5e1"/>
<rect x="836" y="276" width="25" height="25" rx="5" fill="#f8fafc" stroke="#cbd5e1"/>
<rect x="865" y="276" width="25" height="25" rx="5" fill="#f8fafc" stroke="#cbd5e1"/>
<rect x="894" y="276" width="25" height="25" rx="5" fill="#f8fafc" stroke="#cbd5e1"/>
<rect x="923" y="276" width="25" height="25" rx="5" fill="#bbf7d0" stroke="#cbd5e1"/>
<rect x="952" y="276" width="25" height="25" rx="5" fill="#16a34a" stroke="#cbd5e1"/>
<rect x="981" y="276" width="25" height="25" rx="5" fill="#f8fafc" stroke="#cbd5e1"/>
<rect x="1010" y="276" width="25" height="25" rx="5" fill="#f8fafc" stroke="#cbd5e1"/>
<rect x="836" y="305" width="25" height="25" rx="5" fill="#bbf7d0" stroke="#cbd5e1"/>
<rect x="865" y="305" width="25" height="25" rx="5" fill="#bbf7d0" stroke="#cbd5e1"/>
<rect x="894" y="305" width="25" height="25" rx="5" fill="#f8fafc" stroke="#cbd5e1"/>
<rect x="923" y="305" width="25" height="25" rx="5" fill="#f8fafc" stroke="#cbd5e1"/>
<rect x="952" y="305" width="25" height="25" rx="5" fill="#bbf7d0" stroke="#cbd5e1"/>
<rect x="981" y="305" width="25" height="25" rx="5" fill="#16a34a" stroke="#cbd5e1"/>
<rect x="1010" y="305" width="25" height="25" rx="5" fill="#f8fafc" stroke="#cbd5e1"/>
<rect x="836" y="334" width="25" height="25" rx="5" fill="#bbf7d0" stroke="#cbd5e1"/>
<rect x="865" y="334" width="25" height="25" rx="5" fill="#bbf7d0" stroke="#cbd5e1"/>
<rect x="894" y="334" width="25" height="25" rx="5" fill="#f8fafc" stroke="#cbd5e1"/>
<rect x="923" y="334" width="25" height="25" rx="5" fill="#f8fafc" stroke="#cbd5e1"/>
<rect x="952" y="334" width="25" height="25" rx="5" fill="#f8fafc" stroke="#cbd5e1"/>
<rect x="981" y="334" width="25" height="25" rx="5" fill="#bbf7d0" stroke="#cbd5e1"/>
<rect x="1010" y="334" width="25" height="25" rx="5" fill="#16a34a" stroke="#cbd5e1"/>

<rect x="844" y="388" width="166" height="32" rx="16" fill="#dcfce7" stroke="#94a3b8"/>
<text x="927" y="409" text-anchor="middle" font-size="13" font-weight="700" fill="#334155">smaller factor</text>
<text x="600" y="510" text-anchor="middle" font-size="15" font-weight="600" fill="#475569">same math, different permutation P H P^T before factorization</text>

</svg>
