<svg xmlns="http://www.w3.org/2000/svg" width="1200" height="620" viewBox="0 0 1200 620" role="img" aria-labelledby="title desc">
  <title id="title">Normal-equation factorization path</title>
  <desc id="desc">how least-squares systems become factored matrices and why conditioning matters before back-substitution.</desc>
  <defs>
    <marker id="arrow" markerWidth="12" markerHeight="12" refX="9" refY="3" orient="auto" markerUnits="strokeWidth">
      <path d="M0,0 L0,6 L9,3 z" fill="#2563eb"/>
    </marker>
    <filter id="shadow" x="-10%" y="-10%" width="120%" height="120%">
      <feDropShadow dx="0" dy="6" stdDeviation="8" flood-color="#0f172a" flood-opacity="0.14"/>
    </filter>
  </defs>
  <rect width="1200" height="620" fill="#f8fafc"/>
  <rect x="36" y="34" width="1128" height="552" rx="28" fill="#ffffff" stroke="#d8dee9" filter="url(#shadow)"/>
  <text x="70" y="88" font-size="32" font-weight="800" fill="#0f172a">Normal-equation factorization path</text>
  <rect x="70" y="108" width="1060" height="2" fill="#dbeafe"/>
  <rect x="390" y="150" width="51" height="51" rx="8" fill="#2563eb" stroke="#cbd5e1"/>
<rect x="446" y="150" width="51" height="51" rx="8" fill="#bfdbfe" stroke="#cbd5e1"/>
<rect x="502" y="150" width="51" height="51" rx="8" fill="#f8fafc" stroke="#cbd5e1"/>
<rect x="558" y="150" width="51" height="51" rx="8" fill="#f8fafc" stroke="#cbd5e1"/>
<rect x="614" y="150" width="51" height="51" rx="8" fill="#bfdbfe" stroke="#cbd5e1"/>
<rect x="670" y="150" width="51" height="51" rx="8" fill="#bfdbfe" stroke="#cbd5e1"/>
<rect x="390" y="206" width="51" height="51" rx="8" fill="#bfdbfe" stroke="#cbd5e1"/>
<rect x="446" y="206" width="51" height="51" rx="8" fill="#2563eb" stroke="#cbd5e1"/>
<rect x="502" y="206" width="51" height="51" rx="8" fill="#bfdbfe" stroke="#cbd5e1"/>
<rect x="558" y="206" width="51" height="51" rx="8" fill="#f8fafc" stroke="#cbd5e1"/>
<rect x="614" y="206" width="51" height="51" rx="8" fill="#bfdbfe" stroke="#cbd5e1"/>
<rect x="670" y="206" width="51" height="51" rx="8" fill="#bfdbfe" stroke="#cbd5e1"/>
<rect x="390" y="262" width="51" height="51" rx="8" fill="#f8fafc" stroke="#cbd5e1"/>
<rect x="446" y="262" width="51" height="51" rx="8" fill="#bfdbfe" stroke="#cbd5e1"/>
<rect x="502" y="262" width="51" height="51" rx="8" fill="#2563eb" stroke="#cbd5e1"/>
<rect x="558" y="262" width="51" height="51" rx="8" fill="#bfdbfe" stroke="#cbd5e1"/>
<rect x="614" y="262" width="51" height="51" rx="8" fill="#f8fafc" stroke="#cbd5e1"/>
<rect x="670" y="262" width="51" height="51" rx="8" fill="#f8fafc" stroke="#cbd5e1"/>
<rect x="390" y="318" width="51" height="51" rx="8" fill="#f8fafc" stroke="#cbd5e1"/>
<rect x="446" y="318" width="51" height="51" rx="8" fill="#f8fafc" stroke="#cbd5e1"/>
<rect x="502" y="318" width="51" height="51" rx="8" fill="#bfdbfe" stroke="#cbd5e1"/>
<rect x="558" y="318" width="51" height="51" rx="8" fill="#2563eb" stroke="#cbd5e1"/>
<rect x="614" y="318" width="51" height="51" rx="8" fill="#bfdbfe" stroke="#cbd5e1"/>
<rect x="670" y="318" width="51" height="51" rx="8" fill="#f8fafc" stroke="#cbd5e1"/>
<rect x="390" y="374" width="51" height="51" rx="8" fill="#f8fafc" stroke="#cbd5e1"/>
<rect x="446" y="374" width="51" height="51" rx="8" fill="#f8fafc" stroke="#cbd5e1"/>
<rect x="502" y="374" width="51" height="51" rx="8" fill="#f8fafc" stroke="#cbd5e1"/>
<rect x="558" y="374" width="51" height="51" rx="8" fill="#bfdbfe" stroke="#cbd5e1"/>
<rect x="614" y="374" width="51" height="51" rx="8" fill="#2563eb" stroke="#cbd5e1"/>
<rect x="670" y="374" width="51" height="51" rx="8" fill="#bfdbfe" stroke="#cbd5e1"/>
<rect x="390" y="430" width="51" height="51" rx="8" fill="#f8fafc" stroke="#cbd5e1"/>
<rect x="446" y="430" width="51" height="51" rx="8" fill="#f8fafc" stroke="#cbd5e1"/>
<rect x="502" y="430" width="51" height="51" rx="8" fill="#f8fafc" stroke="#cbd5e1"/>
<rect x="558" y="430" width="51" height="51" rx="8" fill="#f8fafc" stroke="#cbd5e1"/>
<rect x="614" y="430" width="51" height="51" rx="8" fill="#bfdbfe" stroke="#cbd5e1"/>
<rect x="670" y="430" width="51" height="51" rx="8" fill="#2563eb" stroke="#cbd5e1"/>

<rect x="380" y="140" width="341" height="341" rx="12" fill="none" stroke="#0f172a" stroke-width="3"/>
<rect x="88" y="167" width="184" height="76" rx="18" fill="#dbeafe" stroke="#2563eb" stroke-width="2"/>
<text x="180" y="199" text-anchor="middle" font-size="20" font-weight="700" fill="#0f172a">J transpose J</text>
<rect x="88" y="332" width="184" height="76" rx="18" fill="#dcfce7" stroke="#2563eb" stroke-width="2"/>
<text x="180" y="364" text-anchor="middle" font-size="20" font-weight="700" fill="#0f172a">SPD check</text>
<rect x="508" y="487" width="184" height="76" rx="18" fill="#fef3c7" stroke="#2563eb" stroke-width="2"/>
<text x="600" y="519" text-anchor="middle" font-size="20" font-weight="700" fill="#0f172a">Cholesky</text>
<rect x="868" y="167" width="184" height="76" rx="18" fill="#ede9fe" stroke="#2563eb" stroke-width="2"/>
<text x="960" y="199" text-anchor="middle" font-size="20" font-weight="700" fill="#0f172a">LDLT</text>
<rect x="868" y="332" width="184" height="76" rx="18" fill="#fee2e2" stroke="#2563eb" stroke-width="2"/>
<text x="960" y="364" text-anchor="middle" font-size="20" font-weight="700" fill="#0f172a">backsolve</text>
<line x1="280" y1="205" x2="380" y2="210" stroke="#64748b" stroke-width="4" stroke-linecap="round" marker-end="url(#arrow)"/>
<line x1="822" y1="210" x2="868" y2="205" stroke="#64748b" stroke-width="4" stroke-linecap="round" marker-end="url(#arrow)"/>
</svg>
