<svg xmlns="http://www.w3.org/2000/svg" width="1200" height="620" viewBox="0 0 1200 620" role="img" aria-labelledby="title desc">
  <title id="title">World-model theory map</title>
  <desc id="desc">The theoretical foundations page connects world-model formalism to predictive coding, representation theory, causality, control, games, and safety-critical ML evidence.</desc>
  <defs>
    <marker id="arrow" markerWidth="12" markerHeight="12" refX="9" refY="3" orient="auto" markerUnits="strokeWidth">
      <path d="M0,0 L0,6 L9,3 z" fill="#2563eb"/>
    </marker>
    <pattern id="fineGrid" width="24" height="24" patternUnits="userSpaceOnUse">
      <path d="M24 0H0V24" fill="none" stroke="#e2e8f0" stroke-width="1"/>
    </pattern>
    <filter id="shadow" x="-10%" y="-10%" width="120%" height="120%">
      <feDropShadow dx="0" dy="5" stdDeviation="7" flood-color="#0f172a" flood-opacity="0.12"/>
    </filter>
  </defs>
  <rect width="1200" height="620" fill="#f8fafc"/>
  <rect x="38" y="34" width="1124" height="552" rx="18" fill="#ffffff" stroke="#d9e2ef" filter="url(#shadow)"/>
  <text x="70" y="84" font-size="30" font-weight="800" fill="#0f172a">World-model theory map</text>
  <rect x="70" y="104" width="1060" height="2" fill="#dbeafe"/>

<rect x="470" y="242" width="260" height="118" rx="12" fill="#eef2ff" stroke="#4f46e5" stroke-width="2"/>
<text x="600" y="272" text-anchor="middle" font-size="19" font-weight="700" fill="#172033">World-model formalism</text>
<text x="600" y="297" text-anchor="middle" font-size="13" font-weight="600" fill="#475569">state, observation,</text>
<text x="600" y="313" text-anchor="middle" font-size="13" font-weight="600" fill="#475569">action, prediction</text>
<rect x="142" y="148" width="210" height="92" rx="12" fill="#eff6ff" stroke="#2563eb" stroke-width="2"/>
<text x="247" y="178" text-anchor="middle" font-size="17" font-weight="700" fill="#172033">Predictive coding</text>
<text x="247" y="203" text-anchor="middle" font-size="13" font-weight="600" fill="#475569">prediction error</text>
<rect x="500" y="142" width="210" height="92" rx="12" fill="#f0fdf4" stroke="#16a34a" stroke-width="2"/>
<text x="605" y="172" text-anchor="middle" font-size="17" font-weight="700" fill="#172033">Representation</text>
<text x="605" y="193" text-anchor="middle" font-size="17" font-weight="700" fill="#172033">theory</text>
<text x="605" y="197" text-anchor="middle" font-size="13" font-weight="600" fill="#475569">latent structure</text>
<rect x="860" y="148" width="210" height="92" rx="12" fill="#fff7ed" stroke="#ea580c" stroke-width="2"/>
<text x="965" y="178" text-anchor="middle" font-size="17" font-weight="700" fill="#172033">Causality</text>
<text x="965" y="203" text-anchor="middle" font-size="13" font-weight="600" fill="#475569">interventions</text>
<rect x="180" y="430" width="210" height="92" rx="12" fill="#ecfeff" stroke="#0891b2" stroke-width="2"/>
<text x="285" y="460" text-anchor="middle" font-size="17" font-weight="700" fill="#172033">Control and games</text>
<text x="285" y="485" text-anchor="middle" font-size="13" font-weight="600" fill="#475569">agents + feedback</text>
<rect x="805" y="430" width="210" height="92" rx="12" fill="#ffe4e6" stroke="#e11d48" stroke-width="2"/>
<text x="910" y="460" text-anchor="middle" font-size="17" font-weight="700" fill="#172033">Safety-critical ML</text>
<text x="910" y="485" text-anchor="middle" font-size="13" font-weight="600" fill="#475569">evidence + assurance</text>
<line x1="470" y1="275" x2="354" y2="205" stroke="#64748b" stroke-width="2.5" stroke-linecap="round" marker-end="url(#arrow)"/>
<line x1="584" y1="242" x2="594" y2="236" stroke="#64748b" stroke-width="2.5" stroke-linecap="round" marker-end="url(#arrow)"/>
<line x1="730" y1="277" x2="858" y2="208" stroke="#64748b" stroke-width="2.5" stroke-linecap="round" marker-end="url(#arrow)"/>
<line x1="484" y1="354" x2="360" y2="440" stroke="#64748b" stroke-width="2.5" stroke-linecap="round" marker-end="url(#arrow)"/>
<line x1="724" y1="354" x2="810" y2="440" stroke="#64748b" stroke-width="2.5" stroke-linecap="round" marker-end="url(#arrow)"/>
<path d="M603 242 C560 205 510 204 458 236" fill="none" stroke="#7c3aed" stroke-width="2.5" stroke-linecap="round" stroke-linejoin="round" marker-end="url(#arrow)"/>
<path d="M733 301 C802 310 846 356 880 430" fill="none" stroke="#e11d48" stroke-width="2.5" stroke-linecap="round" stroke-linejoin="round" marker-end="url(#arrow)"/>
<rect x="516" y="390" width="168" height="32" rx="16" fill="#ede9fe" stroke="#94a3b8"/>
<text x="600" y="411" text-anchor="middle" font-size="13" font-weight="700" fill="#334155">learned dynamics</text>
<rect x="500" y="434" width="200" height="32" rx="16" fill="#ffedd5" stroke="#94a3b8"/>
<text x="600" y="455" text-anchor="middle" font-size="13" font-weight="700" fill="#334155">counterfactual</text>
<text x="600" y="522" text-anchor="middle" font-size="15" font-weight="600" fill="#475569">the page is a dependency graph, not a single theory</text>

</svg>
