<svg xmlns="http://www.w3.org/2000/svg" width="1400" height="720" viewBox="0 0 1400 720" role="img" aria-labelledby="title desc" data-diagram-kind="manifold-linearization">
  <title id="title">manifold/tangent-space diagram</title>
  <desc id="desc">manifold/tangent-space diagram showing SO(3)/SE(3), Exp/log maps, left/right perturbations, adjoint transform, and residual Jacobian linearization.</desc>
  <defs>
    <marker id="arrow" markerWidth="12" markerHeight="12" refX="9" refY="3" orient="auto" markerUnits="strokeWidth">
      <path d="M0,0 L0,6 L9,3 z" fill="#2563eb"/>
    </marker>
    <filter id="shadow" x="-10%" y="-10%" width="120%" height="120%">
      <feDropShadow dx="0" dy="5" stdDeviation="8" flood-color="#0f172a" flood-opacity="0.12"/>
    </filter>
    <pattern id="grid" width="28" height="28" patternUnits="userSpaceOnUse">
      <path d="M28 0H0V28" fill="none" stroke="#e2e8f0" stroke-width="1"/>
    </pattern>
  </defs>
  <rect width="1400" height="720" fill="#f8fafc"/>
  <rect x="42" y="38" width="1316" height="644" rx="20" fill="#ffffff" stroke="#d9e2ef" filter="url(#shadow)"/>
  <text x="80" y="88" font-size="30" font-weight="800" fill="#0f172a">manifold/tangent-space diagram</text>
  <text x="80" y="122" font-size="16" font-weight="600" fill="#475569">manifold/tangent-space diagram showing SO(3)/SE(3), Exp/log maps, left/right perturbations, adjoint transform, and residual Jacobian linearization.</text>
  <rect x="80" y="144" width="1240" height="2" fill="#dbeafe"/>

<!-- layout:manifold-linearization -->
<path d="M172 472 C350 304 600 248 804 330 C924 378 1040 492 1210 420" fill="none" stroke="#bfdbfe" stroke-width="64" stroke-linecap="round"/>
<path d="M172 472 C350 304 600 248 804 330 C924 378 1040 492 1210 420" fill="none" stroke="#2563eb" stroke-width="5"/>
<line x1="636" y1="320" x2="806" y2="246" stroke="#e11d48" stroke-width="4" stroke-linecap="round" marker-end="url(#arrow)"/>
<line x1="636" y1="320" x2="712" y2="484" stroke="#16a34a" stroke-width="4" stroke-linecap="round" marker-end="url(#arrow)"/>
<circle cx="636" cy="320" r="44" fill="#f5f3ff" stroke="#7c3aed" stroke-width="3"/>
<text x="636" y="325" text-anchor="middle" font-size="14" font-weight="700" fill="#172033">SO(3)/SE(3)</text>
<rect x="900" y="202" width="260" height="84" rx="14" fill="#fff7ed" stroke="#ea580c" stroke-width="2"/>
<text x="1030" y="250" text-anchor="middle" font-size="17" font-weight="700" fill="#172033">Exp/log maps</text>


</svg>
