<svg xmlns="http://www.w3.org/2000/svg" width="1400" height="720" viewBox="0 0 1400 720" role="img" aria-labelledby="title desc" data-diagram-kind="transform-tree">
  <title id="title">3D Geometry Foundations for Autonomy</title>
  <desc id="desc">section-level autonomy-role diagram showing 3D geometry foundations, autonomy problem classes, stack interfaces, reading paths, and failure diagnosis.</desc>
  <!-- layout:transform-tree -->
  <rect width="1400" height="720" fill="#f7f9fc"/>
  <rect x="70" y="70" width="310" height="570" rx="16" fill="#ffffff" stroke="#c5d0df" stroke-width="2"/>
  <rect x="545" y="70" width="310" height="570" rx="16" fill="#ffffff" stroke="#c5d0df" stroke-width="2"/>
  <rect x="1020" y="70" width="310" height="570" rx="16" fill="#ffffff" stroke="#c5d0df" stroke-width="2"/>
  <text x="225" y="112" text-anchor="middle" font-family="Arial, sans-serif" font-size="28" font-weight="700" fill="#1c334d">Geometry Core</text>
  <text x="700" y="112" text-anchor="middle" font-family="Arial, sans-serif" font-size="28" font-weight="700" fill="#1c334d">Autonomy Interfaces</text>
  <text x="1175" y="112" text-anchor="middle" font-family="Arial, sans-serif" font-size="28" font-weight="700" fill="#1c334d">Review Paths</text>
  <circle cx="225" cy="185" r="52" fill="#dceeff" stroke="#2f6fb3" stroke-width="3"/>
  <text x="225" y="178" text-anchor="middle" font-family="Arial, sans-serif" font-size="16" font-weight="700" fill="#17324d">map</text>
  <text x="225" y="198" text-anchor="middle" font-family="Arial, sans-serif" font-size="13" fill="#17324d">global frame</text>
  <circle cx="225" cy="305" r="52" fill="#e8f7ea" stroke="#3d8a4e" stroke-width="3"/>
  <text x="225" y="298" text-anchor="middle" font-family="Arial, sans-serif" font-size="16" font-weight="700" fill="#173f25">base</text>
  <text x="225" y="318" text-anchor="middle" font-family="Arial, sans-serif" font-size="13" fill="#173f25">vehicle frame</text>
  <circle cx="130" cy="435" r="47" fill="#fff0d9" stroke="#c27a17" stroke-width="3"/>
  <text x="130" y="429" text-anchor="middle" font-family="Arial, sans-serif" font-size="15" font-weight="700" fill="#523100">camera</text>
  <text x="130" y="448" text-anchor="middle" font-family="Arial, sans-serif" font-size="12" fill="#523100">projection</text>
  <circle cx="320" cy="435" r="47" fill="#fff0d9" stroke="#c27a17" stroke-width="3"/>
  <text x="320" y="429" text-anchor="middle" font-family="Arial, sans-serif" font-size="15" font-weight="700" fill="#523100">LiDAR</text>
  <text x="320" y="448" text-anchor="middle" font-family="Arial, sans-serif" font-size="12" fill="#523100">points</text>
  <circle cx="225" cy="555" r="47" fill="#f1e7ff" stroke="#7f57c2" stroke-width="3"/>
  <text x="225" y="549" text-anchor="middle" font-family="Arial, sans-serif" font-size="15" font-weight="700" fill="#3d2465">image</text>
  <text x="225" y="568" text-anchor="middle" font-family="Arial, sans-serif" font-size="12" fill="#3d2465">pixels</text>
  <path d="M225 237 L225 253" stroke="#4d5d70" stroke-width="4"/>
  <path d="M225 357 L150 395" stroke="#4d5d70" stroke-width="4"/>
  <path d="M225 357 L300 395" stroke="#4d5d70" stroke-width="4"/>
  <path d="M130 482 L200 520" stroke="#4d5d70" stroke-width="4"/>
  <path d="M390 210 C455 210 490 210 545 210" fill="none" stroke="#6f7f91" stroke-width="4"/>
  <path d="M390 360 C455 360 490 360 545 360" fill="none" stroke="#6f7f91" stroke-width="4"/>
  <path d="M855 210 C920 210 955 210 1010 210" fill="none" stroke="#6f7f91" stroke-width="4"/>
  <path d="M855 360 C920 360 955 360 1010 360" fill="none" stroke="#6f7f91" stroke-width="4"/>
  <rect x="595" y="160" width="210" height="72" rx="10" fill="#e8f2ff" stroke="#2f6fb3" stroke-width="2"/>
  <text x="700" y="190" text-anchor="middle" font-family="Arial, sans-serif" font-size="17" font-weight="700" fill="#17324d">Perception</text>
  <text x="700" y="213" text-anchor="middle" font-family="Arial, sans-serif" font-size="13" fill="#17324d">project boxes and rays</text>
  <rect x="595" y="260" width="210" height="72" rx="10" fill="#e9f7ec" stroke="#3d8a4e" stroke-width="2"/>
  <text x="700" y="290" text-anchor="middle" font-family="Arial, sans-serif" font-size="17" font-weight="700" fill="#173f25">Localization</text>
  <text x="700" y="313" text-anchor="middle" font-family="Arial, sans-serif" font-size="13" fill="#173f25">pose residuals</text>
  <rect x="595" y="360" width="210" height="72" rx="10" fill="#fff1da" stroke="#c27a17" stroke-width="2"/>
  <text x="700" y="390" text-anchor="middle" font-family="Arial, sans-serif" font-size="17" font-weight="700" fill="#523100">Mapping</text>
  <text x="700" y="413" text-anchor="middle" font-family="Arial, sans-serif" font-size="13" fill="#523100">registration evidence</text>
  <rect x="595" y="460" width="210" height="72" rx="10" fill="#f3eafe" stroke="#7f57c2" stroke-width="2"/>
  <text x="700" y="490" text-anchor="middle" font-family="Arial, sans-serif" font-size="17" font-weight="700" fill="#3d2465">Operations</text>
  <text x="700" y="513" text-anchor="middle" font-family="Arial, sans-serif" font-size="13" fill="#3d2465">calibration drift</text>
  <rect x="1080" y="150" width="190" height="74" rx="10" fill="#e8f2ff" stroke="#2f6fb3" stroke-width="2"/>
  <text x="1175" y="180" text-anchor="middle" font-family="Arial, sans-serif" font-size="16" font-weight="700" fill="#17324d">Frames</text>
  <text x="1175" y="203" text-anchor="middle" font-family="Arial, sans-serif" font-size="13" fill="#17324d">compose transforms</text>
  <rect x="1080" y="255" width="190" height="74" rx="10" fill="#e9f7ec" stroke="#3d8a4e" stroke-width="2"/>
  <text x="1175" y="285" text-anchor="middle" font-family="Arial, sans-serif" font-size="16" font-weight="700" fill="#173f25">Projection</text>
  <text x="1175" y="308" text-anchor="middle" font-family="Arial, sans-serif" font-size="13" fill="#173f25">validate model</text>
  <rect x="1080" y="360" width="190" height="74" rx="10" fill="#fff1da" stroke="#c27a17" stroke-width="2"/>
  <text x="1175" y="390" text-anchor="middle" font-family="Arial, sans-serif" font-size="16" font-weight="700" fill="#523100">Lie Updates</text>
  <text x="1175" y="413" text-anchor="middle" font-family="Arial, sans-serif" font-size="13" fill="#523100">check convention</text>
  <rect x="1080" y="465" width="190" height="74" rx="10" fill="#f3eafe" stroke="#7f57c2" stroke-width="2"/>
  <text x="1175" y="495" text-anchor="middle" font-family="Arial, sans-serif" font-size="16" font-weight="700" fill="#3d2465">Diagnosis</text>
  <text x="1175" y="518" text-anchor="middle" font-family="Arial, sans-serif" font-size="13" fill="#3d2465">wrong order</text>
  <text x="700" y="620" text-anchor="middle" font-family="Arial, sans-serif" font-size="18" fill="#34445a">Registration stays geometry until mapping commits it into persistent state.</text>
</svg>
