<svg xmlns="http://www.w3.org/2000/svg" width="1400" height="720" viewBox="0 0 1400 720" role="img" aria-labelledby="title desc" data-diagram-kind="projection-rays">
  <title id="title">camera-pose and landmark geometry</title>
  <desc id="desc">camera-pose and landmark geometry showing projection rays, PnP pose constraints, triangulation intersection, reprojection residuals, and degeneracy cases.</desc>
  <defs>
    <marker id="arrow" markerWidth="12" markerHeight="12" refX="9" refY="3" orient="auto" markerUnits="strokeWidth">
      <path d="M0,0 L0,6 L9,3 z" fill="#2563eb"/>
    </marker>
    <filter id="shadow" x="-10%" y="-10%" width="120%" height="120%">
      <feDropShadow dx="0" dy="5" stdDeviation="8" flood-color="#0f172a" flood-opacity="0.12"/>
    </filter>
    <pattern id="grid" width="28" height="28" patternUnits="userSpaceOnUse">
      <path d="M28 0H0V28" fill="none" stroke="#e2e8f0" stroke-width="1"/>
    </pattern>
  </defs>
  <rect width="1400" height="720" fill="#f8fafc"/>
  <rect x="42" y="38" width="1316" height="644" rx="20" fill="#ffffff" stroke="#d9e2ef" filter="url(#shadow)"/>
  <text x="80" y="88" font-size="30" font-weight="800" fill="#0f172a">camera-pose and landmark geometry</text>
  <text x="80" y="122" font-size="16" font-weight="600" fill="#475569">camera-pose and landmark geometry showing projection rays, PnP pose constraints, triangulation intersection, reprojection residuals, and degeneracy...</text>
  <rect x="80" y="144" width="1240" height="2" fill="#dbeafe"/>

<!-- layout:projection-rays -->
<rect x="180" y="264" width="160" height="220" rx="12" fill="#1e293b"/>
<circle cx="260" cy="374" r="26" fill="#38bdf8"/>
<rect x="1010" y="210" width="190" height="300" rx="12" fill="#f8fafc" stroke="#0f172a" stroke-width="3"/>
<polyline points="340,374 1010,250" fill="none" stroke="#2563eb" stroke-width="3" stroke-linecap="round" stroke-linejoin="round"/>
<polyline points="340,374 1010,360" fill="none" stroke="#2563eb" stroke-width="3" stroke-linecap="round" stroke-linejoin="round"/>
<polyline points="340,374 1010,478" fill="none" stroke="#2563eb" stroke-width="3" stroke-linecap="round" stroke-linejoin="round"/>
<circle cx="1048" cy="250" r="24" fill="#fff7ed" stroke="#ea580c" stroke-width="3"/>
<text x="1048" y="255" text-anchor="middle" font-size="11" font-weight="700" fill="#172033">p1</text>
<circle cx="1106" cy="360" r="24" fill="#ecfeff" stroke="#0891b2" stroke-width="3"/>
<text x="1106" y="365" text-anchor="middle" font-size="11" font-weight="700" fill="#172033">p2</text>
<circle cx="1154" cy="478" r="24" fill="#f5f3ff" stroke="#7c3aed" stroke-width="3"/>
<text x="1154" y="483" text-anchor="middle" font-size="11" font-weight="700" fill="#172033">p3</text>
<text x="700" y="596" text-anchor="middle" font-size="14" font-weight="600" fill="#475569">projection rays</text>

</svg>
