<svg xmlns="http://www.w3.org/2000/svg" width="1400" height="720" viewBox="0 0 1400 720" role="img" aria-labelledby="title desc" data-diagram-kind="transform-tree">
  <title id="title">transform tree</title>
  <desc id="desc">transform tree from map to odom to base to sensors to image plane, with SE(3) composition, projection, and common frame-error points.</desc>
  <defs>
    <marker id="arrow" markerWidth="12" markerHeight="12" refX="9" refY="3" orient="auto" markerUnits="strokeWidth">
      <path d="M0,0 L0,6 L9,3 z" fill="#2563eb"/>
    </marker>
    <filter id="shadow" x="-10%" y="-10%" width="120%" height="120%">
      <feDropShadow dx="0" dy="5" stdDeviation="8" flood-color="#0f172a" flood-opacity="0.12"/>
    </filter>
    <pattern id="grid" width="28" height="28" patternUnits="userSpaceOnUse">
      <path d="M28 0H0V28" fill="none" stroke="#e2e8f0" stroke-width="1"/>
    </pattern>
  </defs>
  <rect width="1400" height="720" fill="#f8fafc"/>
  <rect x="42" y="38" width="1316" height="644" rx="20" fill="#ffffff" stroke="#d9e2ef" filter="url(#shadow)"/>
  <text x="80" y="88" font-size="30" font-weight="800" fill="#0f172a">transform tree</text>
  <text x="80" y="122" font-size="16" font-weight="600" fill="#475569">transform tree from map to odom to base to sensors to image plane, with SE(3) composition, projection, and common frame-error points.</text>
  <rect x="80" y="144" width="1240" height="2" fill="#dbeafe"/>

<!-- layout:transform-tree -->
<circle cx="700" cy="230" r="58" fill="#eff6ff" stroke="#2563eb" stroke-width="3"/>
<text x="700" y="235" text-anchor="middle" font-size="14" font-weight="700" fill="#172033">map</text>
<circle cx="430" cy="390" r="54" fill="#f0fdf4" stroke="#16a34a" stroke-width="3"/>
<text x="430" y="395" text-anchor="middle" font-size="14" font-weight="700" fill="#172033">odom</text>
<circle cx="700" cy="430" r="54" fill="#fff7ed" stroke="#ea580c" stroke-width="3"/>
<text x="700" y="435" text-anchor="middle" font-size="14" font-weight="700" fill="#172033">base</text>
<circle cx="970" cy="390" r="54" fill="#ecfeff" stroke="#0891b2" stroke-width="3"/>
<text x="970" y="395" text-anchor="middle" font-size="14" font-weight="700" fill="#172033">sensors</text>
<circle cx="700" cy="560" r="48" fill="#f5f3ff" stroke="#7c3aed" stroke-width="3"/>
<text x="700" y="565" text-anchor="middle" font-size="14" font-weight="700" fill="#172033">image plane</text>
<line x1="664" y1="276" x2="472" y2="358" stroke="#64748b" stroke-width="3" stroke-linecap="round" marker-end="url(#arrow)"/>
<line x1="700" y1="290" x2="700" y2="374" stroke="#64748b" stroke-width="3" stroke-linecap="round" marker-end="url(#arrow)"/>
<line x1="736" y1="276" x2="928" y2="358" stroke="#64748b" stroke-width="3" stroke-linecap="round" marker-end="url(#arrow)"/>
<line x1="700" y1="486" x2="700" y2="510" stroke="#64748b" stroke-width="3" stroke-linecap="round" marker-end="url(#arrow)"/>

</svg>
