<svg xmlns="http://www.w3.org/2000/svg" width="1400" height="720" viewBox="0 0 1400 720" role="img" aria-labelledby="title desc" data-diagram-kind="decision-boundary">
  <title id="title">feature-space hyperplane</title>
  <desc id="desc">feature-space hyperplane with margin, misclassified point, perceptron update vector, multiclass score geometry, and regularization effect.</desc>
  <defs>
    <marker id="arrow" markerWidth="12" markerHeight="12" refX="9" refY="3" orient="auto" markerUnits="strokeWidth">
      <path d="M0,0 L0,6 L9,3 z" fill="#2563eb"/>
    </marker>
    <filter id="shadow" x="-10%" y="-10%" width="120%" height="120%">
      <feDropShadow dx="0" dy="5" stdDeviation="8" flood-color="#0f172a" flood-opacity="0.12"/>
    </filter>
    <pattern id="grid" width="28" height="28" patternUnits="userSpaceOnUse">
      <path d="M28 0H0V28" fill="none" stroke="#e2e8f0" stroke-width="1"/>
    </pattern>
  </defs>
  <rect width="1400" height="720" fill="#f8fafc"/>
  <rect x="42" y="38" width="1316" height="644" rx="20" fill="#ffffff" stroke="#d9e2ef" filter="url(#shadow)"/>
  <text x="80" y="88" font-size="30" font-weight="800" fill="#0f172a">feature-space hyperplane</text>
  <text x="80" y="122" font-size="16" font-weight="600" fill="#475569">feature-space hyperplane with margin, misclassified point, perceptron update vector, multiclass score geometry, and regularization effect.</text>
  <rect x="80" y="144" width="1240" height="2" fill="#dbeafe"/>

<!-- layout:decision-boundary -->
<rect x="150" y="196" width="620" height="390" rx="16" fill="url(#grid)" stroke="#94a3b8" stroke-width="2"/>
<path d="M208 520 C332 380 420 422 512 304 C590 206 682 240 734 204" fill="none" stroke="#e11d48" stroke-width="5"/>
<circle cx="250" cy="468" r="9" fill="#2563eb" opacity="0.82"/>
<circle cx="326" cy="410" r="9" fill="#2563eb" opacity="0.82"/>
<circle cx="512" cy="466" r="9" fill="#2563eb" opacity="0.82"/>
<circle cx="616" cy="380" r="9" fill="#2563eb" opacity="0.82"/>
<circle cx="322" cy="262" r="9" fill="#16a34a" opacity="0.82"/>
<circle cx="440" cy="310" r="9" fill="#16a34a" opacity="0.82"/>
<circle cx="620" cy="248" r="9" fill="#16a34a" opacity="0.82"/>
<circle cx="690" cy="300" r="9" fill="#16a34a" opacity="0.82"/>
<rect x="884" y="250" width="260" height="82" rx="14" fill="#eff6ff" stroke="#2563eb" stroke-width="2"/>
<text x="1014" y="297" text-anchor="middle" font-size="17" font-weight="700" fill="#172033">feature-space</text>
<text x="1014" y="318" text-anchor="middle" font-size="17" font-weight="700" fill="#172033">hyperplane</text>

<rect x="996" y="414" width="260" height="82" rx="14" fill="#ffe4e6" stroke="#e11d48" stroke-width="2"/>
<text x="1126" y="461" text-anchor="middle" font-size="17" font-weight="700" fill="#172033">margin</text>

<line x1="770" y1="390" x2="880" y2="292" stroke="#64748b" stroke-width="3" stroke-linecap="round" marker-end="url(#arrow)"/>
<line x1="1010" y1="336" x2="1064" y2="410" stroke="#64748b" stroke-width="3" stroke-linecap="round" marker-end="url(#arrow)"/>

</svg>
