<svg xmlns="http://www.w3.org/2000/svg" width="1400" height="720" viewBox="0 0 1400 720" role="img" aria-labelledby="title desc" data-diagram-kind="world-model-rollout">
  <title id="title">sense-predict-act world-model loop</title>
  <desc id="desc">sense-predict-act world-model loop with latent representation, dynamics rollout, planning/imagination, uncertainty, and SLAM/perception connections.</desc>
  <defs>
    <marker id="arrow" markerWidth="12" markerHeight="12" refX="9" refY="3" orient="auto" markerUnits="strokeWidth">
      <path d="M0,0 L0,6 L9,3 z" fill="#2563eb"/>
    </marker>
    <filter id="shadow" x="-10%" y="-10%" width="120%" height="120%">
      <feDropShadow dx="0" dy="5" stdDeviation="8" flood-color="#0f172a" flood-opacity="0.12"/>
    </filter>
    <pattern id="grid" width="28" height="28" patternUnits="userSpaceOnUse">
      <path d="M28 0H0V28" fill="none" stroke="#e2e8f0" stroke-width="1"/>
    </pattern>
  </defs>
  <rect width="1400" height="720" fill="#f8fafc"/>
  <rect x="42" y="38" width="1316" height="644" rx="20" fill="#ffffff" stroke="#d9e2ef" filter="url(#shadow)"/>
  <text x="80" y="88" font-size="30" font-weight="800" fill="#0f172a">sense-predict-act world-model loop</text>
  <text x="80" y="122" font-size="16" font-weight="600" fill="#475569">sense-predict-act world-model loop with latent representation, dynamics rollout, planning/imagination, uncertainty, and SLAM/perception connections.</text>
  <rect x="80" y="144" width="1240" height="2" fill="#dbeafe"/>

<!-- layout:world-model-rollout -->
<text x="112" y="222" text-anchor="start" font-size="14" font-weight="600" fill="#475569">context</text>
<line x1="180" y1="216" x2="1220" y2="216" stroke="#cbd5e1" stroke-width="2"/>
<polyline points="180,216 230,216 230,190 310,190 310,216 440,216 440,194 540,194 540,216 800,216 800,188 920,188 920,216" fill="none" stroke="#2563eb" stroke-width="3" stroke-linecap="round" stroke-linejoin="round"/>
<text x="112" y="304" text-anchor="start" font-size="14" font-weight="600" fill="#475569">latent</text>
<line x1="180" y1="298" x2="1220" y2="298" stroke="#cbd5e1" stroke-width="2"/>
<polyline points="204,298 254,298 254,272 334,272 334,298 464,298 464,276 564,276 564,298 824,298 824,270 944,270 944,298" fill="none" stroke="#16a34a" stroke-width="3" stroke-linecap="round" stroke-linejoin="round"/>
<text x="112" y="386" text-anchor="start" font-size="14" font-weight="600" fill="#475569">prediction</text>
<line x1="180" y1="380" x2="1220" y2="380" stroke="#cbd5e1" stroke-width="2"/>
<polyline points="228,380 278,380 278,354 358,354 358,380 488,380 488,358 588,358 588,380 848,380 848,352 968,352 968,380" fill="none" stroke="#ea580c" stroke-width="3" stroke-linecap="round" stroke-linejoin="round"/>
<text x="112" y="468" text-anchor="start" font-size="14" font-weight="600" fill="#475569">plan</text>
<line x1="180" y1="462" x2="1220" y2="462" stroke="#cbd5e1" stroke-width="2"/>
<polyline points="252,462 302,462 302,436 382,436 382,462 512,462 512,440 612,440 612,462 872,462 872,434 992,434 992,462" fill="none" stroke="#0891b2" stroke-width="3" stroke-linecap="round" stroke-linejoin="round"/>
<line x1="282" y1="578" x2="1090" y2="578" stroke="#0f172a" stroke-width="4" stroke-linecap="round" marker-end="url(#arrow)"/>
<text x="686" y="626" text-anchor="middle" font-size="14" font-weight="600" fill="#475569">sense-predict-act world-model loop</text>
<path d="M212 246 C420 164 1000 164 1174 246" fill="none" stroke="#16a34a" stroke-width="3" stroke-linecap="round" stroke-linejoin="round" marker-end="url(#arrow)"/>

</svg>
