<svg xmlns="http://www.w3.org/2000/svg" width="1400" height="720" viewBox="0 0 1400 720" role="img" aria-labelledby="title desc" data-diagram-kind="attention-matrix">
  <title id="title">Q/K/V attention matrix</title>
  <desc id="desc">Q/K/V attention matrix with scaled scores, mask, softmax weights, value mixing, multi-head split/merge, and transformer block context.</desc>
  <defs>
    <marker id="arrow" markerWidth="12" markerHeight="12" refX="9" refY="3" orient="auto" markerUnits="strokeWidth">
      <path d="M0,0 L0,6 L9,3 z" fill="#2563eb"/>
    </marker>
    <filter id="shadow" x="-10%" y="-10%" width="120%" height="120%">
      <feDropShadow dx="0" dy="5" stdDeviation="8" flood-color="#0f172a" flood-opacity="0.12"/>
    </filter>
    <pattern id="grid" width="28" height="28" patternUnits="userSpaceOnUse">
      <path d="M28 0H0V28" fill="none" stroke="#e2e8f0" stroke-width="1"/>
    </pattern>
  </defs>
  <rect width="1400" height="720" fill="#f8fafc"/>
  <rect x="42" y="38" width="1316" height="644" rx="20" fill="#ffffff" stroke="#d9e2ef" filter="url(#shadow)"/>
  <text x="80" y="88" font-size="30" font-weight="800" fill="#0f172a">Q/K/V attention matrix</text>
  <text x="80" y="122" font-size="16" font-weight="600" fill="#475569">Q/K/V attention matrix with scaled scores, mask, softmax weights, value mixing, multi-head split/merge, and transformer block context.</text>
  <rect x="80" y="144" width="1240" height="2" fill="#dbeafe"/>

<!-- layout:attention-matrix -->
<rect x="116" y="216" width="116" height="58" rx="14" fill="#eff6ff" stroke="#2563eb" stroke-width="2"/>
<text x="174" y="251" text-anchor="middle" font-size="13" font-weight="700" fill="#172033">Q/K/V</text>
<text x="174" y="267" text-anchor="middle" font-size="13" font-weight="700" fill="#172033">attention</text>

<rect x="252" y="216" width="116" height="58" rx="14" fill="#f0fdf4" stroke="#16a34a" stroke-width="2"/>
<text x="310" y="251" text-anchor="middle" font-size="13" font-weight="700" fill="#172033">scaled</text>
<text x="310" y="267" text-anchor="middle" font-size="13" font-weight="700" fill="#172033">scores</text>

<rect x="388" y="216" width="116" height="58" rx="14" fill="#fff7ed" stroke="#ea580c" stroke-width="2"/>
<text x="446" y="251" text-anchor="middle" font-size="13" font-weight="700" fill="#172033">mask</text>

<rect x="524" y="216" width="116" height="58" rx="14" fill="#ecfeff" stroke="#0891b2" stroke-width="2"/>
<text x="582" y="251" text-anchor="middle" font-size="13" font-weight="700" fill="#172033">softmax</text>
<text x="582" y="267" text-anchor="middle" font-size="13" font-weight="700" fill="#172033">weights</text>

<rect x="660" y="216" width="116" height="58" rx="14" fill="#f5f3ff" stroke="#7c3aed" stroke-width="2"/>
<text x="718" y="251" text-anchor="middle" font-size="13" font-weight="700" fill="#172033">value mixing</text>

<rect x="260" y="320" width="280" height="280" rx="14" fill="url(#grid)" stroke="#4c1d95" stroke-width="3"/>
<rect x="278" y="338" width="37" height="37" rx="5" fill="#7c3aed" stroke="#cbd5e1"/>
<rect x="320" y="338" width="37" height="37" rx="5" fill="#f8fafc" stroke="#cbd5e1"/>
<rect x="362" y="338" width="37" height="37" rx="5" fill="#f8fafc" stroke="#cbd5e1"/>
<rect x="404" y="338" width="37" height="37" rx="5" fill="#f8fafc" stroke="#cbd5e1"/>
<rect x="446" y="338" width="37" height="37" rx="5" fill="#ddd6fe" stroke="#cbd5e1"/>
<rect x="488" y="338" width="37" height="37" rx="5" fill="#7c3aed" stroke="#cbd5e1"/>
<rect x="278" y="380" width="37" height="37" rx="5" fill="#f8fafc" stroke="#cbd5e1"/>
<rect x="320" y="380" width="37" height="37" rx="5" fill="#7c3aed" stroke="#cbd5e1"/>
<rect x="362" y="380" width="37" height="37" rx="5" fill="#ddd6fe" stroke="#cbd5e1"/>
<rect x="404" y="380" width="37" height="37" rx="5" fill="#f8fafc" stroke="#cbd5e1"/>
<rect x="446" y="380" width="37" height="37" rx="5" fill="#7c3aed" stroke="#cbd5e1"/>
<rect x="488" y="380" width="37" height="37" rx="5" fill="#f8fafc" stroke="#cbd5e1"/>
<rect x="278" y="422" width="37" height="37" rx="5" fill="#ddd6fe" stroke="#cbd5e1"/>
<rect x="320" y="422" width="37" height="37" rx="5" fill="#f8fafc" stroke="#cbd5e1"/>
<rect x="362" y="422" width="37" height="37" rx="5" fill="#7c3aed" stroke="#cbd5e1"/>
<rect x="404" y="422" width="37" height="37" rx="5" fill="#7c3aed" stroke="#cbd5e1"/>
<rect x="446" y="422" width="37" height="37" rx="5" fill="#ddd6fe" stroke="#cbd5e1"/>
<rect x="488" y="422" width="37" height="37" rx="5" fill="#f8fafc" stroke="#cbd5e1"/>
<rect x="278" y="464" width="37" height="37" rx="5" fill="#f8fafc" stroke="#cbd5e1"/>
<rect x="320" y="464" width="37" height="37" rx="5" fill="#f8fafc" stroke="#cbd5e1"/>
<rect x="362" y="464" width="37" height="37" rx="5" fill="#7c3aed" stroke="#cbd5e1"/>
<rect x="404" y="464" width="37" height="37" rx="5" fill="#7c3aed" stroke="#cbd5e1"/>
<rect x="446" y="464" width="37" height="37" rx="5" fill="#f8fafc" stroke="#cbd5e1"/>
<rect x="488" y="464" width="37" height="37" rx="5" fill="#f8fafc" stroke="#cbd5e1"/>
<rect x="278" y="506" width="37" height="37" rx="5" fill="#ddd6fe" stroke="#cbd5e1"/>
<rect x="320" y="506" width="37" height="37" rx="5" fill="#7c3aed" stroke="#cbd5e1"/>
<rect x="362" y="506" width="37" height="37" rx="5" fill="#f8fafc" stroke="#cbd5e1"/>
<rect x="404" y="506" width="37" height="37" rx="5" fill="#f8fafc" stroke="#cbd5e1"/>
<rect x="446" y="506" width="37" height="37" rx="5" fill="#7c3aed" stroke="#cbd5e1"/>
<rect x="488" y="506" width="37" height="37" rx="5" fill="#f8fafc" stroke="#cbd5e1"/>
<rect x="278" y="548" width="37" height="37" rx="5" fill="#7c3aed" stroke="#cbd5e1"/>
<rect x="320" y="548" width="37" height="37" rx="5" fill="#f8fafc" stroke="#cbd5e1"/>
<rect x="362" y="548" width="37" height="37" rx="5" fill="#ddd6fe" stroke="#cbd5e1"/>
<rect x="404" y="548" width="37" height="37" rx="5" fill="#f8fafc" stroke="#cbd5e1"/>
<rect x="446" y="548" width="37" height="37" rx="5" fill="#f8fafc" stroke="#cbd5e1"/>
<rect x="488" y="548" width="37" height="37" rx="5" fill="#7c3aed" stroke="#cbd5e1"/>

<text x="1040" y="262" text-anchor="start" font-size="14" font-weight="600" fill="#475569">head 1</text>
<path d="M842 368 C918 184 1020 214 1164 254" fill="none" stroke="#0891b2" stroke-width="3" stroke-linecap="round" stroke-linejoin="round" marker-end="url(#arrow)"/>
<text x="1040" y="356" text-anchor="start" font-size="14" font-weight="600" fill="#475569">head 2</text>
<path d="M842 384 C918 278 1020 308 1164 348" fill="none" stroke="#7c3aed" stroke-width="3" stroke-linecap="round" stroke-linejoin="round" marker-end="url(#arrow)"/>
<text x="1040" y="450" text-anchor="start" font-size="14" font-weight="600" fill="#475569">head 3</text>
<path d="M842 400 C918 372 1020 402 1164 442" fill="none" stroke="#e11d48" stroke-width="3" stroke-linecap="round" stroke-linejoin="round" marker-end="url(#arrow)"/>
<circle cx="1190" cy="254" r="46" fill="#ecfeff" stroke="#0891b2" stroke-width="3"/>
<text x="1190" y="259" text-anchor="middle" font-size="14" font-weight="700" fill="#172033">Q/K/V</text>
<text x="1190" y="276" text-anchor="middle" font-size="14" font-weight="700" fill="#172033">attention</text>
<circle cx="1190" cy="348" r="46" fill="#f5f3ff" stroke="#7c3aed" stroke-width="3"/>
<text x="1190" y="353" text-anchor="middle" font-size="14" font-weight="700" fill="#172033">scaled</text>
<text x="1190" y="370" text-anchor="middle" font-size="14" font-weight="700" fill="#172033">scores</text>
<circle cx="1190" cy="442" r="46" fill="#ffe4e6" stroke="#e11d48" stroke-width="3"/>
<text x="1190" y="447" text-anchor="middle" font-size="14" font-weight="700" fill="#172033">mask</text>
<text x="790" y="626" text-anchor="middle" font-size="14" font-weight="600" fill="#475569">tokens route context through patterned attention weights</text>

</svg>
