<svg xmlns="http://www.w3.org/2000/svg" width="1400" height="720" viewBox="0 0 1400 720" role="img" aria-labelledby="title desc" data-diagram-kind="sparse-attention-map">
  <title id="title">sparse 3D attention layout</title>
  <desc id="desc">sparse 3D attention layout showing points/voxels, windowing or serialization, neighbor attention, BEV aggregation, memory/latency budget, and Orin deployment path.</desc>
  <defs>
    <marker id="arrow" markerWidth="12" markerHeight="12" refX="9" refY="3" orient="auto" markerUnits="strokeWidth">
      <path d="M0,0 L0,6 L9,3 z" fill="#2563eb"/>
    </marker>
    <filter id="shadow" x="-10%" y="-10%" width="120%" height="120%">
      <feDropShadow dx="0" dy="5" stdDeviation="8" flood-color="#0f172a" flood-opacity="0.12"/>
    </filter>
    <pattern id="grid" width="28" height="28" patternUnits="userSpaceOnUse">
      <path d="M28 0H0V28" fill="none" stroke="#e2e8f0" stroke-width="1"/>
    </pattern>
  </defs>
  <rect width="1400" height="720" fill="#f8fafc"/>
  <rect x="42" y="38" width="1316" height="644" rx="20" fill="#ffffff" stroke="#d9e2ef" filter="url(#shadow)"/>
  <text x="80" y="88" font-size="30" font-weight="800" fill="#0f172a">sparse 3D attention layout</text>
  <text x="80" y="122" font-size="16" font-weight="600" fill="#475569">sparse 3D attention layout showing points/voxels, windowing or serialization, neighbor attention, BEV aggregation, memory/latency budget, and Orin...</text>
  <rect x="80" y="144" width="1240" height="2" fill="#dbeafe"/>

<!-- layout:sparse-attention-map -->
<rect x="180" y="190" width="390" height="390" rx="16" fill="url(#grid)" stroke="#4c1d95" stroke-width="3"/>
<rect x="206" y="216" width="39" height="39" rx="5" fill="#7c3aed" stroke="#cbd5e1"/>
<rect x="250" y="216" width="39" height="39" rx="5" fill="#ddd6fe" stroke="#cbd5e1"/>
<rect x="294" y="216" width="39" height="39" rx="5" fill="#f8fafc" stroke="#cbd5e1"/>
<rect x="338" y="216" width="39" height="39" rx="5" fill="#f8fafc" stroke="#cbd5e1"/>
<rect x="382" y="216" width="39" height="39" rx="5" fill="#f8fafc" stroke="#cbd5e1"/>
<rect x="426" y="216" width="39" height="39" rx="5" fill="#7c3aed" stroke="#cbd5e1"/>
<rect x="470" y="216" width="39" height="39" rx="5" fill="#f8fafc" stroke="#cbd5e1"/>
<rect x="514" y="216" width="39" height="39" rx="5" fill="#f8fafc" stroke="#cbd5e1"/>
<rect x="206" y="260" width="39" height="39" rx="5" fill="#ddd6fe" stroke="#cbd5e1"/>
<rect x="250" y="260" width="39" height="39" rx="5" fill="#7c3aed" stroke="#cbd5e1"/>
<rect x="294" y="260" width="39" height="39" rx="5" fill="#ddd6fe" stroke="#cbd5e1"/>
<rect x="338" y="260" width="39" height="39" rx="5" fill="#f8fafc" stroke="#cbd5e1"/>
<rect x="382" y="260" width="39" height="39" rx="5" fill="#7c3aed" stroke="#cbd5e1"/>
<rect x="426" y="260" width="39" height="39" rx="5" fill="#f8fafc" stroke="#cbd5e1"/>
<rect x="470" y="260" width="39" height="39" rx="5" fill="#f8fafc" stroke="#cbd5e1"/>
<rect x="514" y="260" width="39" height="39" rx="5" fill="#f8fafc" stroke="#cbd5e1"/>
<rect x="206" y="304" width="39" height="39" rx="5" fill="#f8fafc" stroke="#cbd5e1"/>
<rect x="250" y="304" width="39" height="39" rx="5" fill="#ddd6fe" stroke="#cbd5e1"/>
<rect x="294" y="304" width="39" height="39" rx="5" fill="#7c3aed" stroke="#cbd5e1"/>
<rect x="338" y="304" width="39" height="39" rx="5" fill="#7c3aed" stroke="#cbd5e1"/>
<rect x="382" y="304" width="39" height="39" rx="5" fill="#f8fafc" stroke="#cbd5e1"/>
<rect x="426" y="304" width="39" height="39" rx="5" fill="#f8fafc" stroke="#cbd5e1"/>
<rect x="470" y="304" width="39" height="39" rx="5" fill="#f8fafc" stroke="#cbd5e1"/>
<rect x="514" y="304" width="39" height="39" rx="5" fill="#f8fafc" stroke="#cbd5e1"/>
<rect x="206" y="348" width="39" height="39" rx="5" fill="#f8fafc" stroke="#cbd5e1"/>
<rect x="250" y="348" width="39" height="39" rx="5" fill="#f8fafc" stroke="#cbd5e1"/>
<rect x="294" y="348" width="39" height="39" rx="5" fill="#7c3aed" stroke="#cbd5e1"/>
<rect x="338" y="348" width="39" height="39" rx="5" fill="#7c3aed" stroke="#cbd5e1"/>
<rect x="382" y="348" width="39" height="39" rx="5" fill="#ddd6fe" stroke="#cbd5e1"/>
<rect x="426" y="348" width="39" height="39" rx="5" fill="#f8fafc" stroke="#cbd5e1"/>
<rect x="470" y="348" width="39" height="39" rx="5" fill="#f8fafc" stroke="#cbd5e1"/>
<rect x="514" y="348" width="39" height="39" rx="5" fill="#7c3aed" stroke="#cbd5e1"/>
<rect x="206" y="392" width="39" height="39" rx="5" fill="#f8fafc" stroke="#cbd5e1"/>
<rect x="250" y="392" width="39" height="39" rx="5" fill="#7c3aed" stroke="#cbd5e1"/>
<rect x="294" y="392" width="39" height="39" rx="5" fill="#f8fafc" stroke="#cbd5e1"/>
<rect x="338" y="392" width="39" height="39" rx="5" fill="#ddd6fe" stroke="#cbd5e1"/>
<rect x="382" y="392" width="39" height="39" rx="5" fill="#7c3aed" stroke="#cbd5e1"/>
<rect x="426" y="392" width="39" height="39" rx="5" fill="#ddd6fe" stroke="#cbd5e1"/>
<rect x="470" y="392" width="39" height="39" rx="5" fill="#7c3aed" stroke="#cbd5e1"/>
<rect x="514" y="392" width="39" height="39" rx="5" fill="#f8fafc" stroke="#cbd5e1"/>
<rect x="206" y="436" width="39" height="39" rx="5" fill="#7c3aed" stroke="#cbd5e1"/>
<rect x="250" y="436" width="39" height="39" rx="5" fill="#f8fafc" stroke="#cbd5e1"/>
<rect x="294" y="436" width="39" height="39" rx="5" fill="#f8fafc" stroke="#cbd5e1"/>
<rect x="338" y="436" width="39" height="39" rx="5" fill="#f8fafc" stroke="#cbd5e1"/>
<rect x="382" y="436" width="39" height="39" rx="5" fill="#ddd6fe" stroke="#cbd5e1"/>
<rect x="426" y="436" width="39" height="39" rx="5" fill="#7c3aed" stroke="#cbd5e1"/>
<rect x="470" y="436" width="39" height="39" rx="5" fill="#ddd6fe" stroke="#cbd5e1"/>
<rect x="514" y="436" width="39" height="39" rx="5" fill="#f8fafc" stroke="#cbd5e1"/>
<rect x="206" y="480" width="39" height="39" rx="5" fill="#f8fafc" stroke="#cbd5e1"/>
<rect x="250" y="480" width="39" height="39" rx="5" fill="#f8fafc" stroke="#cbd5e1"/>
<rect x="294" y="480" width="39" height="39" rx="5" fill="#f8fafc" stroke="#cbd5e1"/>
<rect x="338" y="480" width="39" height="39" rx="5" fill="#f8fafc" stroke="#cbd5e1"/>
<rect x="382" y="480" width="39" height="39" rx="5" fill="#7c3aed" stroke="#cbd5e1"/>
<rect x="426" y="480" width="39" height="39" rx="5" fill="#ddd6fe" stroke="#cbd5e1"/>
<rect x="470" y="480" width="39" height="39" rx="5" fill="#7c3aed" stroke="#cbd5e1"/>
<rect x="514" y="480" width="39" height="39" rx="5" fill="#ddd6fe" stroke="#cbd5e1"/>
<rect x="206" y="524" width="39" height="39" rx="5" fill="#f8fafc" stroke="#cbd5e1"/>
<rect x="250" y="524" width="39" height="39" rx="5" fill="#f8fafc" stroke="#cbd5e1"/>
<rect x="294" y="524" width="39" height="39" rx="5" fill="#f8fafc" stroke="#cbd5e1"/>
<rect x="338" y="524" width="39" height="39" rx="5" fill="#7c3aed" stroke="#cbd5e1"/>
<rect x="382" y="524" width="39" height="39" rx="5" fill="#f8fafc" stroke="#cbd5e1"/>
<rect x="426" y="524" width="39" height="39" rx="5" fill="#f8fafc" stroke="#cbd5e1"/>
<rect x="470" y="524" width="39" height="39" rx="5" fill="#ddd6fe" stroke="#cbd5e1"/>
<rect x="514" y="524" width="39" height="39" rx="5" fill="#7c3aed" stroke="#cbd5e1"/>

<rect x="760" y="270" width="230" height="82" rx="14" fill="#f5f3ff" stroke="#7c3aed" stroke-width="2"/>
<text x="875" y="317" text-anchor="middle" font-size="17" font-weight="700" fill="#172033">points/voxels</text>

<rect x="910" y="442" width="230" height="82" rx="14" fill="#eff6ff" stroke="#2563eb" stroke-width="2"/>
<text x="1025" y="489" text-anchor="middle" font-size="17" font-weight="700" fill="#172033">windowing or</text>
<text x="1025" y="510" text-anchor="middle" font-size="17" font-weight="700" fill="#172033">serialization</text>

<line x1="574" y1="340" x2="756" y2="312" stroke="#64748b" stroke-width="3" stroke-linecap="round" marker-end="url(#arrow)"/>
<line x1="574" y1="438" x2="906" y2="482" stroke="#64748b" stroke-width="3" stroke-linecap="round" marker-end="url(#arrow)"/>

</svg>
