<svg xmlns="http://www.w3.org/2000/svg" width="1400" height="720" viewBox="0 0 1400 720" role="img" aria-labelledby="title desc" data-diagram-kind="training-lifecycle">
  <title id="title">foundation-model lifecycle</title>
  <desc id="desc">foundation-model lifecycle from data mixture through tokenization, pretraining objective, optimizer stability, adaptation, evaluation, and contamination control.</desc>
  <defs>
    <marker id="arrow" markerWidth="12" markerHeight="12" refX="9" refY="3" orient="auto" markerUnits="strokeWidth">
      <path d="M0,0 L0,6 L9,3 z" fill="#2563eb"/>
    </marker>
    <filter id="shadow" x="-10%" y="-10%" width="120%" height="120%">
      <feDropShadow dx="0" dy="5" stdDeviation="8" flood-color="#0f172a" flood-opacity="0.12"/>
    </filter>
    <pattern id="grid" width="28" height="28" patternUnits="userSpaceOnUse">
      <path d="M28 0H0V28" fill="none" stroke="#e2e8f0" stroke-width="1"/>
    </pattern>
  </defs>
  <rect width="1400" height="720" fill="#f8fafc"/>
  <rect x="42" y="38" width="1316" height="644" rx="20" fill="#ffffff" stroke="#d9e2ef" filter="url(#shadow)"/>
  <text x="80" y="88" font-size="30" font-weight="800" fill="#0f172a">foundation-model lifecycle</text>
  <text x="80" y="122" font-size="16" font-weight="600" fill="#475569">foundation-model lifecycle from data mixture through tokenization, pretraining objective, optimizer stability, adaptation, evaluation, and contamin...</text>
  <rect x="80" y="144" width="1240" height="2" fill="#dbeafe"/>

<!-- layout:training-lifecycle -->
<rect x="163" y="258" width="178" height="92" rx="14" fill="#eff6ff" stroke="#2563eb" stroke-width="2"/>
<text x="252" y="310" text-anchor="middle" font-size="15" font-weight="700" fill="#172033">data mixture</text>
<text x="252" y="328" text-anchor="middle" font-size="15" font-weight="700" fill="#172033">through</text>

<line x1="345" y1="304" x2="379" y2="304" stroke="#64748b" stroke-width="2.6" stroke-linecap="round" marker-end="url(#arrow)"/>
<rect x="387" y="258" width="178" height="92" rx="14" fill="#f0fdf4" stroke="#16a34a" stroke-width="2"/>
<text x="476" y="310" text-anchor="middle" font-size="15" font-weight="700" fill="#172033">pretraining</text>
<text x="476" y="328" text-anchor="middle" font-size="15" font-weight="700" fill="#172033">objective</text>

<line x1="569" y1="304" x2="603" y2="304" stroke="#64748b" stroke-width="2.6" stroke-linecap="round" marker-end="url(#arrow)"/>
<rect x="611" y="258" width="178" height="92" rx="14" fill="#fff7ed" stroke="#ea580c" stroke-width="2"/>
<text x="700" y="310" text-anchor="middle" font-size="15" font-weight="700" fill="#172033">optimizer</text>
<text x="700" y="328" text-anchor="middle" font-size="15" font-weight="700" fill="#172033">stability</text>

<line x1="793" y1="304" x2="827" y2="304" stroke="#64748b" stroke-width="2.6" stroke-linecap="round" marker-end="url(#arrow)"/>
<rect x="835" y="258" width="178" height="92" rx="14" fill="#ecfeff" stroke="#0891b2" stroke-width="2"/>
<text x="924" y="310" text-anchor="middle" font-size="15" font-weight="700" fill="#172033">adaptation</text>

<line x1="1017" y1="304" x2="1051" y2="304" stroke="#64748b" stroke-width="2.6" stroke-linecap="round" marker-end="url(#arrow)"/>
<rect x="1059" y="258" width="178" height="92" rx="14" fill="#f5f3ff" stroke="#7c3aed" stroke-width="2"/>
<text x="1148" y="310" text-anchor="middle" font-size="15" font-weight="700" fill="#172033">evaluation</text>


<path d="M262 470 C430 596 920 596 1094 470" fill="none" stroke="#16a34a" stroke-width="3" stroke-linecap="round" stroke-linejoin="round" marker-end="url(#arrow)"/>
<text x="700" y="622" text-anchor="middle" font-size="14" font-weight="600" fill="#475569">evaluation feeds the next data and training pass</text>

</svg>
