<svg xmlns="http://www.w3.org/2000/svg" width="1400" height="720" viewBox="0 0 1400 720" role="img" aria-labelledby="title desc" data-diagram-kind="computational-graph">
  <title id="title">computational graph</title>
  <desc id="desc">computational graph with forward values and reverse-mode vector-Jacobian products flowing back to parameters, including detach/graph-break warning points.</desc>
  <defs>
    <marker id="arrow" markerWidth="12" markerHeight="12" refX="9" refY="3" orient="auto" markerUnits="strokeWidth">
      <path d="M0,0 L0,6 L9,3 z" fill="#2563eb"/>
    </marker>
    <filter id="shadow" x="-10%" y="-10%" width="120%" height="120%">
      <feDropShadow dx="0" dy="5" stdDeviation="8" flood-color="#0f172a" flood-opacity="0.12"/>
    </filter>
    <pattern id="grid" width="28" height="28" patternUnits="userSpaceOnUse">
      <path d="M28 0H0V28" fill="none" stroke="#e2e8f0" stroke-width="1"/>
    </pattern>
  </defs>
  <rect width="1400" height="720" fill="#f8fafc"/>
  <rect x="42" y="38" width="1316" height="644" rx="20" fill="#ffffff" stroke="#d9e2ef" filter="url(#shadow)"/>
  <text x="80" y="88" font-size="30" font-weight="800" fill="#0f172a">computational graph</text>
  <text x="80" y="122" font-size="16" font-weight="600" fill="#475569">computational graph with forward values and reverse-mode vector-Jacobian products flowing back to parameters, including detach/graph-break warning...</text>
  <rect x="80" y="144" width="1240" height="2" fill="#dbeafe"/>

<!-- layout:computational-graph -->
<circle cx="240" cy="286" r="54" fill="#eff6ff" stroke="#2563eb" stroke-width="3"/>
<text x="240" y="291" text-anchor="middle" font-size="14" font-weight="700" fill="#172033">computational</text>
<text x="240" y="308" text-anchor="middle" font-size="14" font-weight="700" fill="#172033">graph</text>
<rect x="418" y="208" width="76" height="76" rx="8" fill="#fff7ed" stroke="#ea580c" stroke-width="3"/>
<text x="456" y="251" text-anchor="middle" font-size="13" font-weight="800" fill="#172033">forward</text>
<text x="456" y="267" text-anchor="middle" font-size="13" font-weight="800" fill="#172033">values</text>
<rect x="418" y="370" width="76" height="76" rx="8" fill="#ecfeff" stroke="#0891b2" stroke-width="3"/>
<text x="456" y="413" text-anchor="middle" font-size="13" font-weight="800" fill="#172033">parameters</text>
<circle cx="700" cy="346" r="58" fill="#f5f3ff" stroke="#7c3aed" stroke-width="3"/>
<text x="700" y="351" text-anchor="middle" font-size="14" font-weight="700" fill="#172033">including</text>
<text x="700" y="368" text-anchor="middle" font-size="14" font-weight="700" fill="#172033">detach/graph-break</text>
<circle cx="990" cy="346" r="58" fill="#ffe4e6" stroke="#e11d48" stroke-width="3"/>
<text x="990" y="351" text-anchor="middle" font-size="14" font-weight="700" fill="#172033">Backpropagation</text>
<line x1="296" y1="286" x2="416" y2="254" stroke="#2563eb" stroke-width="3" stroke-linecap="round" marker-end="url(#arrow)"/>
<line x1="296" y1="286" x2="416" y2="408" stroke="#2563eb" stroke-width="3" stroke-linecap="round" marker-end="url(#arrow)"/>
<line x1="496" y1="260" x2="652" y2="328" stroke="#2563eb" stroke-width="3" stroke-linecap="round" marker-end="url(#arrow)"/>
<line x1="496" y1="408" x2="652" y2="362" stroke="#2563eb" stroke-width="3" stroke-linecap="round" marker-end="url(#arrow)"/>
<line x1="760" y1="346" x2="930" y2="346" stroke="#e11d48" stroke-width="3" stroke-linecap="round" marker-end="url(#arrow)"/>
<path d="M930 390 C760 562 470 560 456 448" fill="none" stroke="#e11d48" stroke-width="3" stroke-linecap="round" stroke-linejoin="round" marker-end="url(#arrow)"/>

</svg>
