<svg xmlns="http://www.w3.org/2000/svg" width="1400" height="720" viewBox="0 0 1400 720" role="img" aria-labelledby="title desc" data-diagram-kind="latent-architecture">
  <title id="title">VQ-VAE and Discrete Tokenization</title>
  <desc id="desc">VQ-VAE encoder to nearest-code lookup, straight-through gradient path, codebook update, loss decomposition, and collapse diagnostics.</desc>
  <defs>
    <marker id="arrow" markerWidth="12" markerHeight="12" refX="9" refY="3" orient="auto" markerUnits="strokeWidth">
      <path d="M0,0 L0,6 L9,3 z" fill="#2563eb"/>
    </marker>
    <filter id="shadow" x="-10%" y="-10%" width="120%" height="120%">
      <feDropShadow dx="0" dy="5" stdDeviation="8" flood-color="#0f172a" flood-opacity="0.12"/>
    </filter>
    <pattern id="grid" width="28" height="28" patternUnits="userSpaceOnUse">
      <path d="M28 0H0V28" fill="none" stroke="#e2e8f0" stroke-width="1"/>
    </pattern>
  </defs>
  <rect width="1400" height="720" fill="#f8fafc"/>
  <rect x="42" y="38" width="1316" height="644" rx="20" fill="#ffffff" stroke="#d9e2ef" filter="url(#shadow)"/>
  <text x="80" y="88" font-size="30" font-weight="800" fill="#0f172a">VQ-VAE and Discrete Tokenization</text>
  <text x="80" y="122" font-size="16" font-weight="600" fill="#475569">VQ-VAE encoder to nearest-code lookup, straight-through gradient path, codebook update, loss decomposition, and collapse diagnostics.</text>
  <rect x="80" y="144" width="1240" height="2" fill="#dbeafe"/>

<!-- layout:latent-architecture -->
<rect x="148" y="320" width="220" height="92" rx="14" fill="#eff6ff" stroke="#2563eb" stroke-width="2"/>
<text x="258" y="372" text-anchor="middle" font-size="17" font-weight="700" fill="#172033">VQ-VAE encoder</text>

<rect x="470" y="246" width="220" height="92" rx="14" fill="#ecfeff" stroke="#0891b2" stroke-width="2"/>
<text x="580" y="298" text-anchor="middle" font-size="17" font-weight="700" fill="#172033">nearest-code</text>
<text x="580" y="319" text-anchor="middle" font-size="17" font-weight="700" fill="#172033">lookup</text>

<circle cx="700" cy="436" r="54" fill="#f5f3ff" stroke="#7c3aed" stroke-width="3"/>
<text x="700" y="441" text-anchor="middle" font-size="14" font-weight="700" fill="#172033">straight-through</text>
<text x="700" y="458" text-anchor="middle" font-size="14" font-weight="700" fill="#172033">gradient</text>
<rect x="830" y="246" width="220" height="92" rx="14" fill="#fff7ed" stroke="#ea580c" stroke-width="2"/>
<text x="940" y="298" text-anchor="middle" font-size="17" font-weight="700" fill="#172033">codebook update</text>

<rect x="1110" y="320" width="180" height="92" rx="14" fill="#f0fdf4" stroke="#16a34a" stroke-width="2"/>
<text x="1200" y="372" text-anchor="middle" font-size="17" font-weight="700" fill="#172033">loss</text>
<text x="1200" y="393" text-anchor="middle" font-size="17" font-weight="700" fill="#172033">decomposition</text>

<line x1="370" y1="366" x2="466" y2="294" stroke="#64748b" stroke-width="3" stroke-linecap="round" marker-end="url(#arrow)"/>
<line x1="584" y1="340" x2="672" y2="400" stroke="#64748b" stroke-width="3" stroke-linecap="round" marker-end="url(#arrow)"/>
<line x1="730" y1="400" x2="840" y2="340" stroke="#64748b" stroke-width="3" stroke-linecap="round" marker-end="url(#arrow)"/>
<line x1="1052" y1="294" x2="1106" y2="354" stroke="#64748b" stroke-width="3" stroke-linecap="round" marker-end="url(#arrow)"/>

</svg>
