<svg xmlns="http://www.w3.org/2000/svg" width="1400" height="720" viewBox="0 0 1400 720" role="img" aria-labelledby="title desc" data-diagram-kind="receptive-field">
  <title id="title">grid convolution diagram</title>
  <desc id="desc">grid convolution diagram showing shared kernel, stride, padding, dilation, receptive-field growth, feature pyramid, and aliasing tradeoff.</desc>
  <defs>
    <marker id="arrow" markerWidth="12" markerHeight="12" refX="9" refY="3" orient="auto" markerUnits="strokeWidth">
      <path d="M0,0 L0,6 L9,3 z" fill="#2563eb"/>
    </marker>
    <filter id="shadow" x="-10%" y="-10%" width="120%" height="120%">
      <feDropShadow dx="0" dy="5" stdDeviation="8" flood-color="#0f172a" flood-opacity="0.12"/>
    </filter>
    <pattern id="grid" width="28" height="28" patternUnits="userSpaceOnUse">
      <path d="M28 0H0V28" fill="none" stroke="#e2e8f0" stroke-width="1"/>
    </pattern>
  </defs>
  <rect width="1400" height="720" fill="#f8fafc"/>
  <rect x="42" y="38" width="1316" height="644" rx="20" fill="#ffffff" stroke="#d9e2ef" filter="url(#shadow)"/>
  <text x="80" y="88" font-size="30" font-weight="800" fill="#0f172a">grid convolution diagram</text>
  <text x="80" y="122" font-size="16" font-weight="600" fill="#475569">grid convolution diagram showing shared kernel, stride, padding, dilation, receptive-field growth, feature pyramid, and aliasing tradeoff.</text>
  <rect x="80" y="144" width="1240" height="2" fill="#dbeafe"/>

<!-- layout:receptive-field -->
<rect x="150" y="216" width="376" height="376" rx="14" fill="#f8fafc" stroke="#0f172a" stroke-width="3"/>
<rect x="178" y="244" width="41" height="41" rx="5" fill="#f8fafc" stroke="#cbd5e1"/>
<rect x="224" y="244" width="41" height="41" rx="5" fill="#f8fafc" stroke="#cbd5e1"/>
<rect x="270" y="244" width="41" height="41" rx="5" fill="#f8fafc" stroke="#cbd5e1"/>
<rect x="316" y="244" width="41" height="41" rx="5" fill="#f8fafc" stroke="#cbd5e1"/>
<rect x="362" y="244" width="41" height="41" rx="5" fill="#f8fafc" stroke="#cbd5e1"/>
<rect x="408" y="244" width="41" height="41" rx="5" fill="#f8fafc" stroke="#cbd5e1"/>
<rect x="454" y="244" width="41" height="41" rx="5" fill="#f8fafc" stroke="#cbd5e1"/>
<rect x="178" y="290" width="41" height="41" rx="5" fill="#f8fafc" stroke="#cbd5e1"/>
<rect x="224" y="290" width="41" height="41" rx="5" fill="#f8fafc" stroke="#cbd5e1"/>
<rect x="270" y="290" width="41" height="41" rx="5" fill="#f8fafc" stroke="#cbd5e1"/>
<rect x="316" y="290" width="41" height="41" rx="5" fill="#f8fafc" stroke="#cbd5e1"/>
<rect x="362" y="290" width="41" height="41" rx="5" fill="#f8fafc" stroke="#cbd5e1"/>
<rect x="408" y="290" width="41" height="41" rx="5" fill="#f8fafc" stroke="#cbd5e1"/>
<rect x="454" y="290" width="41" height="41" rx="5" fill="#f8fafc" stroke="#cbd5e1"/>
<rect x="178" y="336" width="41" height="41" rx="5" fill="#f8fafc" stroke="#cbd5e1"/>
<rect x="224" y="336" width="41" height="41" rx="5" fill="#f8fafc" stroke="#cbd5e1"/>
<rect x="270" y="336" width="41" height="41" rx="5" fill="#2563eb" stroke="#cbd5e1"/>
<rect x="316" y="336" width="41" height="41" rx="5" fill="#2563eb" stroke="#cbd5e1"/>
<rect x="362" y="336" width="41" height="41" rx="5" fill="#2563eb" stroke="#cbd5e1"/>
<rect x="408" y="336" width="41" height="41" rx="5" fill="#f8fafc" stroke="#cbd5e1"/>
<rect x="454" y="336" width="41" height="41" rx="5" fill="#f8fafc" stroke="#cbd5e1"/>
<rect x="178" y="382" width="41" height="41" rx="5" fill="#f8fafc" stroke="#cbd5e1"/>
<rect x="224" y="382" width="41" height="41" rx="5" fill="#f8fafc" stroke="#cbd5e1"/>
<rect x="270" y="382" width="41" height="41" rx="5" fill="#2563eb" stroke="#cbd5e1"/>
<rect x="316" y="382" width="41" height="41" rx="5" fill="#2563eb" stroke="#cbd5e1"/>
<rect x="362" y="382" width="41" height="41" rx="5" fill="#2563eb" stroke="#cbd5e1"/>
<rect x="408" y="382" width="41" height="41" rx="5" fill="#f8fafc" stroke="#cbd5e1"/>
<rect x="454" y="382" width="41" height="41" rx="5" fill="#f8fafc" stroke="#cbd5e1"/>
<rect x="178" y="428" width="41" height="41" rx="5" fill="#f8fafc" stroke="#cbd5e1"/>
<rect x="224" y="428" width="41" height="41" rx="5" fill="#f8fafc" stroke="#cbd5e1"/>
<rect x="270" y="428" width="41" height="41" rx="5" fill="#2563eb" stroke="#cbd5e1"/>
<rect x="316" y="428" width="41" height="41" rx="5" fill="#2563eb" stroke="#cbd5e1"/>
<rect x="362" y="428" width="41" height="41" rx="5" fill="#2563eb" stroke="#cbd5e1"/>
<rect x="408" y="428" width="41" height="41" rx="5" fill="#f8fafc" stroke="#cbd5e1"/>
<rect x="454" y="428" width="41" height="41" rx="5" fill="#f8fafc" stroke="#cbd5e1"/>
<rect x="178" y="474" width="41" height="41" rx="5" fill="#f8fafc" stroke="#cbd5e1"/>
<rect x="224" y="474" width="41" height="41" rx="5" fill="#f8fafc" stroke="#cbd5e1"/>
<rect x="270" y="474" width="41" height="41" rx="5" fill="#f8fafc" stroke="#cbd5e1"/>
<rect x="316" y="474" width="41" height="41" rx="5" fill="#f8fafc" stroke="#cbd5e1"/>
<rect x="362" y="474" width="41" height="41" rx="5" fill="#f8fafc" stroke="#cbd5e1"/>
<rect x="408" y="474" width="41" height="41" rx="5" fill="#f8fafc" stroke="#cbd5e1"/>
<rect x="454" y="474" width="41" height="41" rx="5" fill="#f8fafc" stroke="#cbd5e1"/>
<rect x="178" y="520" width="41" height="41" rx="5" fill="#f8fafc" stroke="#cbd5e1"/>
<rect x="224" y="520" width="41" height="41" rx="5" fill="#f8fafc" stroke="#cbd5e1"/>
<rect x="270" y="520" width="41" height="41" rx="5" fill="#f8fafc" stroke="#cbd5e1"/>
<rect x="316" y="520" width="41" height="41" rx="5" fill="#f8fafc" stroke="#cbd5e1"/>
<rect x="362" y="520" width="41" height="41" rx="5" fill="#f8fafc" stroke="#cbd5e1"/>
<rect x="408" y="520" width="41" height="41" rx="5" fill="#f8fafc" stroke="#cbd5e1"/>
<rect x="454" y="520" width="41" height="41" rx="5" fill="#f8fafc" stroke="#cbd5e1"/>

<line x1="536" y1="404" x2="724" y2="404" stroke="#64748b" stroke-width="3" stroke-linecap="round" marker-end="url(#arrow)"/>
<rect x="750" y="258" width="288" height="288" rx="14" fill="#f8fafc" stroke="#2563eb" stroke-width="3"/>
<rect x="784" y="292" width="51" height="51" rx="5" fill="#bbf7d0" stroke="#cbd5e1"/>
<rect x="840" y="292" width="51" height="51" rx="5" fill="#f8fafc" stroke="#cbd5e1"/>
<rect x="896" y="292" width="51" height="51" rx="5" fill="#f8fafc" stroke="#cbd5e1"/>
<rect x="952" y="292" width="51" height="51" rx="5" fill="#f8fafc" stroke="#cbd5e1"/>
<rect x="784" y="348" width="51" height="51" rx="5" fill="#f8fafc" stroke="#cbd5e1"/>
<rect x="840" y="348" width="51" height="51" rx="5" fill="#bbf7d0" stroke="#cbd5e1"/>
<rect x="896" y="348" width="51" height="51" rx="5" fill="#16a34a" stroke="#cbd5e1"/>
<rect x="952" y="348" width="51" height="51" rx="5" fill="#f8fafc" stroke="#cbd5e1"/>
<rect x="784" y="404" width="51" height="51" rx="5" fill="#f8fafc" stroke="#cbd5e1"/>
<rect x="840" y="404" width="51" height="51" rx="5" fill="#f8fafc" stroke="#cbd5e1"/>
<rect x="896" y="404" width="51" height="51" rx="5" fill="#bbf7d0" stroke="#cbd5e1"/>
<rect x="952" y="404" width="51" height="51" rx="5" fill="#f8fafc" stroke="#cbd5e1"/>
<rect x="784" y="460" width="51" height="51" rx="5" fill="#f8fafc" stroke="#cbd5e1"/>
<rect x="840" y="460" width="51" height="51" rx="5" fill="#f8fafc" stroke="#cbd5e1"/>
<rect x="896" y="460" width="51" height="51" rx="5" fill="#f8fafc" stroke="#cbd5e1"/>
<rect x="952" y="460" width="51" height="51" rx="5" fill="#bbf7d0" stroke="#cbd5e1"/>

<text x="700" y="626" text-anchor="middle" font-size="14" font-weight="600" fill="#475569">shared kernel</text>

</svg>
