<svg xmlns="http://www.w3.org/2000/svg" width="1400" height="720" viewBox="0 0 1400 720" role="img" aria-labelledby="title desc" data-diagram-kind="embedding-space">
  <title id="title">Contrastive Learning and InfoNCE</title>
  <desc id="desc">anchor-positive-negative embedding geometry plus batch similarity matrix showing InfoNCE temperature, positives, negatives, and leakage risks.</desc>
  <defs>
    <marker id="arrow" markerWidth="12" markerHeight="12" refX="9" refY="3" orient="auto" markerUnits="strokeWidth">
      <path d="M0,0 L0,6 L9,3 z" fill="#2563eb"/>
    </marker>
    <filter id="shadow" x="-10%" y="-10%" width="120%" height="120%">
      <feDropShadow dx="0" dy="5" stdDeviation="8" flood-color="#0f172a" flood-opacity="0.12"/>
    </filter>
    <pattern id="grid" width="28" height="28" patternUnits="userSpaceOnUse">
      <path d="M28 0H0V28" fill="none" stroke="#e2e8f0" stroke-width="1"/>
    </pattern>
  </defs>
  <rect width="1400" height="720" fill="#f8fafc"/>
  <rect x="42" y="38" width="1316" height="644" rx="20" fill="#ffffff" stroke="#d9e2ef" filter="url(#shadow)"/>
  <text x="80" y="88" font-size="30" font-weight="800" fill="#0f172a">Contrastive Learning and InfoNCE</text>
  <text x="80" y="122" font-size="16" font-weight="600" fill="#475569">anchor-positive-negative embedding geometry plus batch similarity matrix showing InfoNCE temperature, positives, negatives, and leakage risks.</text>
  <rect x="80" y="144" width="1240" height="2" fill="#dbeafe"/>

<!-- layout:embedding-space -->
<rect x="158" y="198" width="700" height="390" rx="16" fill="url(#grid)" stroke="#94a3b8" stroke-width="2"/>
<circle cx="270" cy="430" r="9" fill="#2563eb" opacity="0.82"/>
<circle cx="320" cy="390" r="8" fill="#2563eb" opacity="0.82"/>
<circle cx="362" cy="454" r="8" fill="#2563eb" opacity="0.82"/>
<circle cx="618" cy="288" r="9" fill="#16a34a" opacity="0.82"/>
<circle cx="676" cy="330" r="8" fill="#16a34a" opacity="0.82"/>
<circle cx="710" cy="260" r="8" fill="#16a34a" opacity="0.82"/>
<circle cx="504" cy="470" r="8" fill="#e11d48" opacity="0.82"/>
<circle cx="560" cy="512" r="9" fill="#e11d48" opacity="0.82"/>
<ellipse cx="320" cy="422" rx="114" ry="82" fill="none" stroke="#2563eb" stroke-width="3"/>
<ellipse cx="666" cy="294" rx="118" ry="86" fill="none" stroke="#16a34a" stroke-width="3"/>
<line x1="872" y1="390" x2="1010" y2="390" stroke="#64748b" stroke-width="3" stroke-linecap="round" marker-end="url(#arrow)"/>
<rect x="1018" y="344" width="220" height="92" rx="14" fill="#fff7ed" stroke="#ea580c" stroke-width="2"/>
<text x="1128" y="396" text-anchor="middle" font-size="17" font-weight="700" fill="#172033">InfoNCE temperature</text>


</svg>
