<svg xmlns="http://www.w3.org/2000/svg" width="1400" height="720" viewBox="0 0 1400 720" role="img" aria-labelledby="title desc" data-diagram-kind="occupancy-map-update">
  <title id="title">ray-based occupancy update</title>
  <desc id="desc">ray-based occupancy update showing prior cell state, inverse sensor model, log-odds/evidential mass, dynamic occupancy, and diagnostic failure cases.</desc>
  <defs>
    <marker id="arrow" markerWidth="12" markerHeight="12" refX="9" refY="3" orient="auto" markerUnits="strokeWidth">
      <path d="M0,0 L0,6 L9,3 z" fill="#2563eb"/>
    </marker>
    <filter id="shadow" x="-10%" y="-10%" width="120%" height="120%">
      <feDropShadow dx="0" dy="5" stdDeviation="8" flood-color="#0f172a" flood-opacity="0.12"/>
    </filter>
    <pattern id="grid" width="28" height="28" patternUnits="userSpaceOnUse">
      <path d="M28 0H0V28" fill="none" stroke="#e2e8f0" stroke-width="1"/>
    </pattern>
  </defs>
  <rect width="1400" height="720" fill="#f8fafc"/>
  <rect x="42" y="38" width="1316" height="644" rx="20" fill="#ffffff" stroke="#d9e2ef" filter="url(#shadow)"/>
  <text x="80" y="88" font-size="30" font-weight="800" fill="#0f172a">ray-based occupancy update</text>
  <text x="80" y="122" font-size="16" font-weight="600" fill="#475569">ray-based occupancy update showing prior cell state, inverse sensor model, log-odds/evidential mass, dynamic occupancy, and diagnostic failure cases.</text>
  <rect x="80" y="144" width="1240" height="2" fill="#dbeafe"/>

<!-- layout:occupancy-map-update -->
<rect x="158" y="196" width="416" height="416" rx="16" fill="url(#grid)" stroke="#0f172a" stroke-width="3"/>
<rect x="190" y="228" width="41" height="41" rx="5" fill="#bbf7d0" stroke="#cbd5e1"/>
<rect x="236" y="228" width="41" height="41" rx="5" fill="#f8fafc" stroke="#cbd5e1"/>
<rect x="282" y="228" width="41" height="41" rx="5" fill="#f8fafc" stroke="#cbd5e1"/>
<rect x="328" y="228" width="41" height="41" rx="5" fill="#bbf7d0" stroke="#cbd5e1"/>
<rect x="374" y="228" width="41" height="41" rx="5" fill="#f8fafc" stroke="#cbd5e1"/>
<rect x="420" y="228" width="41" height="41" rx="5" fill="#f8fafc" stroke="#cbd5e1"/>
<rect x="466" y="228" width="41" height="41" rx="5" fill="#bbf7d0" stroke="#cbd5e1"/>
<rect x="512" y="228" width="41" height="41" rx="5" fill="#f8fafc" stroke="#cbd5e1"/>
<rect x="190" y="274" width="41" height="41" rx="5" fill="#f8fafc" stroke="#cbd5e1"/>
<rect x="236" y="274" width="41" height="41" rx="5" fill="#f8fafc" stroke="#cbd5e1"/>
<rect x="282" y="274" width="41" height="41" rx="5" fill="#bbf7d0" stroke="#cbd5e1"/>
<rect x="328" y="274" width="41" height="41" rx="5" fill="#f8fafc" stroke="#cbd5e1"/>
<rect x="374" y="274" width="41" height="41" rx="5" fill="#f8fafc" stroke="#cbd5e1"/>
<rect x="420" y="274" width="41" height="41" rx="5" fill="#bbf7d0" stroke="#cbd5e1"/>
<rect x="466" y="274" width="41" height="41" rx="5" fill="#f8fafc" stroke="#cbd5e1"/>
<rect x="512" y="274" width="41" height="41" rx="5" fill="#f8fafc" stroke="#cbd5e1"/>
<rect x="190" y="320" width="41" height="41" rx="5" fill="#f8fafc" stroke="#cbd5e1"/>
<rect x="236" y="320" width="41" height="41" rx="5" fill="#bbf7d0" stroke="#cbd5e1"/>
<rect x="282" y="320" width="41" height="41" rx="5" fill="#f8fafc" stroke="#cbd5e1"/>
<rect x="328" y="320" width="41" height="41" rx="5" fill="#f8fafc" stroke="#cbd5e1"/>
<rect x="374" y="320" width="41" height="41" rx="5" fill="#bbf7d0" stroke="#cbd5e1"/>
<rect x="420" y="320" width="41" height="41" rx="5" fill="#f8fafc" stroke="#cbd5e1"/>
<rect x="466" y="320" width="41" height="41" rx="5" fill="#f8fafc" stroke="#cbd5e1"/>
<rect x="512" y="320" width="41" height="41" rx="5" fill="#bbf7d0" stroke="#cbd5e1"/>
<rect x="190" y="366" width="41" height="41" rx="5" fill="#bbf7d0" stroke="#cbd5e1"/>
<rect x="236" y="366" width="41" height="41" rx="5" fill="#f8fafc" stroke="#cbd5e1"/>
<rect x="282" y="366" width="41" height="41" rx="5" fill="#f8fafc" stroke="#cbd5e1"/>
<rect x="328" y="366" width="41" height="41" rx="5" fill="#bbf7d0" stroke="#cbd5e1"/>
<rect x="374" y="366" width="41" height="41" rx="5" fill="#f8fafc" stroke="#cbd5e1"/>
<rect x="420" y="366" width="41" height="41" rx="5" fill="#f8fafc" stroke="#cbd5e1"/>
<rect x="466" y="366" width="41" height="41" rx="5" fill="#bbf7d0" stroke="#cbd5e1"/>
<rect x="512" y="366" width="41" height="41" rx="5" fill="#f8fafc" stroke="#cbd5e1"/>
<rect x="190" y="412" width="41" height="41" rx="5" fill="#f8fafc" stroke="#cbd5e1"/>
<rect x="236" y="412" width="41" height="41" rx="5" fill="#f8fafc" stroke="#cbd5e1"/>
<rect x="282" y="412" width="41" height="41" rx="5" fill="#bbf7d0" stroke="#cbd5e1"/>
<rect x="328" y="412" width="41" height="41" rx="5" fill="#f8fafc" stroke="#cbd5e1"/>
<rect x="374" y="412" width="41" height="41" rx="5" fill="#f8fafc" stroke="#cbd5e1"/>
<rect x="420" y="412" width="41" height="41" rx="5" fill="#bbf7d0" stroke="#cbd5e1"/>
<rect x="466" y="412" width="41" height="41" rx="5" fill="#f8fafc" stroke="#cbd5e1"/>
<rect x="512" y="412" width="41" height="41" rx="5" fill="#f8fafc" stroke="#cbd5e1"/>
<rect x="190" y="458" width="41" height="41" rx="5" fill="#f8fafc" stroke="#cbd5e1"/>
<rect x="236" y="458" width="41" height="41" rx="5" fill="#bbf7d0" stroke="#cbd5e1"/>
<rect x="282" y="458" width="41" height="41" rx="5" fill="#f8fafc" stroke="#cbd5e1"/>
<rect x="328" y="458" width="41" height="41" rx="5" fill="#f8fafc" stroke="#cbd5e1"/>
<rect x="374" y="458" width="41" height="41" rx="5" fill="#16a34a" stroke="#cbd5e1"/>
<rect x="420" y="458" width="41" height="41" rx="5" fill="#16a34a" stroke="#cbd5e1"/>
<rect x="466" y="458" width="41" height="41" rx="5" fill="#16a34a" stroke="#cbd5e1"/>
<rect x="512" y="458" width="41" height="41" rx="5" fill="#16a34a" stroke="#cbd5e1"/>
<rect x="190" y="504" width="41" height="41" rx="5" fill="#bbf7d0" stroke="#cbd5e1"/>
<rect x="236" y="504" width="41" height="41" rx="5" fill="#f8fafc" stroke="#cbd5e1"/>
<rect x="282" y="504" width="41" height="41" rx="5" fill="#f8fafc" stroke="#cbd5e1"/>
<rect x="328" y="504" width="41" height="41" rx="5" fill="#bbf7d0" stroke="#cbd5e1"/>
<rect x="374" y="504" width="41" height="41" rx="5" fill="#16a34a" stroke="#cbd5e1"/>
<rect x="420" y="504" width="41" height="41" rx="5" fill="#16a34a" stroke="#cbd5e1"/>
<rect x="466" y="504" width="41" height="41" rx="5" fill="#16a34a" stroke="#cbd5e1"/>
<rect x="512" y="504" width="41" height="41" rx="5" fill="#16a34a" stroke="#cbd5e1"/>
<rect x="190" y="550" width="41" height="41" rx="5" fill="#f8fafc" stroke="#cbd5e1"/>
<rect x="236" y="550" width="41" height="41" rx="5" fill="#f8fafc" stroke="#cbd5e1"/>
<rect x="282" y="550" width="41" height="41" rx="5" fill="#bbf7d0" stroke="#cbd5e1"/>
<rect x="328" y="550" width="41" height="41" rx="5" fill="#f8fafc" stroke="#cbd5e1"/>
<rect x="374" y="550" width="41" height="41" rx="5" fill="#16a34a" stroke="#cbd5e1"/>
<rect x="420" y="550" width="41" height="41" rx="5" fill="#16a34a" stroke="#cbd5e1"/>
<rect x="466" y="550" width="41" height="41" rx="5" fill="#16a34a" stroke="#cbd5e1"/>
<rect x="512" y="550" width="41" height="41" rx="5" fill="#16a34a" stroke="#cbd5e1"/>

<rect x="750" y="244" width="240" height="86" rx="14" fill="#eff6ff" stroke="#2563eb" stroke-width="2"/>
<text x="870" y="293" text-anchor="middle" font-size="17" font-weight="700" fill="#172033">prior cell state</text>

<rect x="890" y="438" width="240" height="86" rx="14" fill="#f0fdf4" stroke="#16a34a" stroke-width="2"/>
<text x="1010" y="487" text-anchor="middle" font-size="17" font-weight="700" fill="#172033">inverse sensor model</text>

<line x1="578" y1="360" x2="746" y2="288" stroke="#64748b" stroke-width="3" stroke-linecap="round" marker-end="url(#arrow)"/>
<line x1="990" y1="332" x2="1010" y2="434" stroke="#64748b" stroke-width="3" stroke-linecap="round" marker-end="url(#arrow)"/>

</svg>
