<svg xmlns="http://www.w3.org/2000/svg" width="1400" height="720" viewBox="0 0 1400 720" role="img" aria-labelledby="title desc" data-diagram-kind="matrix-structure">
  <title id="title">sparse backend decision map</title>
  <desc id="desc">sparse backend decision map from Jacobian structure to factorization, Schur, marginalization, covariance, and PCG.</desc>
  <defs>
    <marker id="arrow" markerWidth="12" markerHeight="12" refX="9" refY="3" orient="auto" markerUnits="strokeWidth">
      <path d="M0,0 L0,6 L9,3 z" fill="#2563eb"/>
    </marker>
    <filter id="shadow" x="-10%" y="-10%" width="120%" height="120%">
      <feDropShadow dx="0" dy="5" stdDeviation="8" flood-color="#0f172a" flood-opacity="0.12"/>
    </filter>
    <pattern id="grid" width="28" height="28" patternUnits="userSpaceOnUse">
      <path d="M28 0H0V28" fill="none" stroke="#e2e8f0" stroke-width="1"/>
    </pattern>
  </defs>
  <rect width="1400" height="720" fill="#f8fafc"/>
  <rect x="42" y="38" width="1316" height="644" rx="20" fill="#ffffff" stroke="#d9e2ef" filter="url(#shadow)"/>
  <text x="80" y="88" font-size="30" font-weight="800" fill="#0f172a">sparse backend decision map</text>
  <text x="80" y="122" font-size="16" font-weight="600" fill="#475569">sparse backend decision map from Jacobian structure to factorization, Schur, marginalization, covariance, and PCG.</text>
  <rect x="80" y="144" width="1240" height="2" fill="#dbeafe"/>

<!-- layout:matrix-structure -->
<rect x="222" y="196" width="378" height="378" rx="16" fill="url(#grid)" stroke="#0f172a" stroke-width="3"/>
<rect x="246" y="220" width="37" height="37" rx="5" fill="#2563eb" stroke="#cbd5e1"/>
<rect x="288" y="220" width="37" height="37" rx="5" fill="#bfdbfe" stroke="#cbd5e1"/>
<rect x="330" y="220" width="37" height="37" rx="5" fill="#f8fafc" stroke="#cbd5e1"/>
<rect x="372" y="220" width="37" height="37" rx="5" fill="#f8fafc" stroke="#cbd5e1"/>
<rect x="414" y="220" width="37" height="37" rx="5" fill="#f8fafc" stroke="#cbd5e1"/>
<rect x="456" y="220" width="37" height="37" rx="5" fill="#f8fafc" stroke="#cbd5e1"/>
<rect x="498" y="220" width="37" height="37" rx="5" fill="#bfdbfe" stroke="#cbd5e1"/>
<rect x="540" y="220" width="37" height="37" rx="5" fill="#bfdbfe" stroke="#cbd5e1"/>
<rect x="246" y="262" width="37" height="37" rx="5" fill="#bfdbfe" stroke="#cbd5e1"/>
<rect x="288" y="262" width="37" height="37" rx="5" fill="#2563eb" stroke="#cbd5e1"/>
<rect x="330" y="262" width="37" height="37" rx="5" fill="#bfdbfe" stroke="#cbd5e1"/>
<rect x="372" y="262" width="37" height="37" rx="5" fill="#f8fafc" stroke="#cbd5e1"/>
<rect x="414" y="262" width="37" height="37" rx="5" fill="#f8fafc" stroke="#cbd5e1"/>
<rect x="456" y="262" width="37" height="37" rx="5" fill="#f8fafc" stroke="#cbd5e1"/>
<rect x="498" y="262" width="37" height="37" rx="5" fill="#bfdbfe" stroke="#cbd5e1"/>
<rect x="540" y="262" width="37" height="37" rx="5" fill="#bfdbfe" stroke="#cbd5e1"/>
<rect x="246" y="304" width="37" height="37" rx="5" fill="#f8fafc" stroke="#cbd5e1"/>
<rect x="288" y="304" width="37" height="37" rx="5" fill="#bfdbfe" stroke="#cbd5e1"/>
<rect x="330" y="304" width="37" height="37" rx="5" fill="#2563eb" stroke="#cbd5e1"/>
<rect x="372" y="304" width="37" height="37" rx="5" fill="#bfdbfe" stroke="#cbd5e1"/>
<rect x="414" y="304" width="37" height="37" rx="5" fill="#f8fafc" stroke="#cbd5e1"/>
<rect x="456" y="304" width="37" height="37" rx="5" fill="#f8fafc" stroke="#cbd5e1"/>
<rect x="498" y="304" width="37" height="37" rx="5" fill="#bfdbfe" stroke="#cbd5e1"/>
<rect x="540" y="304" width="37" height="37" rx="5" fill="#bfdbfe" stroke="#cbd5e1"/>
<rect x="246" y="346" width="37" height="37" rx="5" fill="#f8fafc" stroke="#cbd5e1"/>
<rect x="288" y="346" width="37" height="37" rx="5" fill="#f8fafc" stroke="#cbd5e1"/>
<rect x="330" y="346" width="37" height="37" rx="5" fill="#bfdbfe" stroke="#cbd5e1"/>
<rect x="372" y="346" width="37" height="37" rx="5" fill="#2563eb" stroke="#cbd5e1"/>
<rect x="414" y="346" width="37" height="37" rx="5" fill="#bfdbfe" stroke="#cbd5e1"/>
<rect x="456" y="346" width="37" height="37" rx="5" fill="#f8fafc" stroke="#cbd5e1"/>
<rect x="498" y="346" width="37" height="37" rx="5" fill="#f8fafc" stroke="#cbd5e1"/>
<rect x="540" y="346" width="37" height="37" rx="5" fill="#f8fafc" stroke="#cbd5e1"/>
<rect x="246" y="388" width="37" height="37" rx="5" fill="#f8fafc" stroke="#cbd5e1"/>
<rect x="288" y="388" width="37" height="37" rx="5" fill="#f8fafc" stroke="#cbd5e1"/>
<rect x="330" y="388" width="37" height="37" rx="5" fill="#f8fafc" stroke="#cbd5e1"/>
<rect x="372" y="388" width="37" height="37" rx="5" fill="#bfdbfe" stroke="#cbd5e1"/>
<rect x="414" y="388" width="37" height="37" rx="5" fill="#2563eb" stroke="#cbd5e1"/>
<rect x="456" y="388" width="37" height="37" rx="5" fill="#bfdbfe" stroke="#cbd5e1"/>
<rect x="498" y="388" width="37" height="37" rx="5" fill="#f8fafc" stroke="#cbd5e1"/>
<rect x="540" y="388" width="37" height="37" rx="5" fill="#f8fafc" stroke="#cbd5e1"/>
<rect x="246" y="430" width="37" height="37" rx="5" fill="#f8fafc" stroke="#cbd5e1"/>
<rect x="288" y="430" width="37" height="37" rx="5" fill="#f8fafc" stroke="#cbd5e1"/>
<rect x="330" y="430" width="37" height="37" rx="5" fill="#f8fafc" stroke="#cbd5e1"/>
<rect x="372" y="430" width="37" height="37" rx="5" fill="#f8fafc" stroke="#cbd5e1"/>
<rect x="414" y="430" width="37" height="37" rx="5" fill="#bfdbfe" stroke="#cbd5e1"/>
<rect x="456" y="430" width="37" height="37" rx="5" fill="#2563eb" stroke="#cbd5e1"/>
<rect x="498" y="430" width="37" height="37" rx="5" fill="#bfdbfe" stroke="#cbd5e1"/>
<rect x="540" y="430" width="37" height="37" rx="5" fill="#f8fafc" stroke="#cbd5e1"/>
<rect x="246" y="472" width="37" height="37" rx="5" fill="#f8fafc" stroke="#cbd5e1"/>
<rect x="288" y="472" width="37" height="37" rx="5" fill="#f8fafc" stroke="#cbd5e1"/>
<rect x="330" y="472" width="37" height="37" rx="5" fill="#f8fafc" stroke="#cbd5e1"/>
<rect x="372" y="472" width="37" height="37" rx="5" fill="#f8fafc" stroke="#cbd5e1"/>
<rect x="414" y="472" width="37" height="37" rx="5" fill="#f8fafc" stroke="#cbd5e1"/>
<rect x="456" y="472" width="37" height="37" rx="5" fill="#bfdbfe" stroke="#cbd5e1"/>
<rect x="498" y="472" width="37" height="37" rx="5" fill="#2563eb" stroke="#cbd5e1"/>
<rect x="540" y="472" width="37" height="37" rx="5" fill="#bfdbfe" stroke="#cbd5e1"/>
<rect x="246" y="514" width="37" height="37" rx="5" fill="#f8fafc" stroke="#cbd5e1"/>
<rect x="288" y="514" width="37" height="37" rx="5" fill="#f8fafc" stroke="#cbd5e1"/>
<rect x="330" y="514" width="37" height="37" rx="5" fill="#f8fafc" stroke="#cbd5e1"/>
<rect x="372" y="514" width="37" height="37" rx="5" fill="#f8fafc" stroke="#cbd5e1"/>
<rect x="414" y="514" width="37" height="37" rx="5" fill="#f8fafc" stroke="#cbd5e1"/>
<rect x="456" y="514" width="37" height="37" rx="5" fill="#f8fafc" stroke="#cbd5e1"/>
<rect x="498" y="514" width="37" height="37" rx="5" fill="#bfdbfe" stroke="#cbd5e1"/>
<rect x="540" y="514" width="37" height="37" rx="5" fill="#2563eb" stroke="#cbd5e1"/>

<rect x="766" y="236" width="250" height="82" rx="14" fill="#ecfeff" stroke="#0891b2" stroke-width="2"/>
<text x="891" y="283" text-anchor="middle" font-size="17" font-weight="700" fill="#172033">Jacobian structure</text>

<rect x="886" y="416" width="250" height="82" rx="14" fill="#fff7ed" stroke="#ea580c" stroke-width="2"/>
<text x="1011" y="463" text-anchor="middle" font-size="17" font-weight="700" fill="#172033">factorization</text>

<line x1="602" y1="344" x2="762" y2="278" stroke="#64748b" stroke-width="3" stroke-linecap="round" marker-end="url(#arrow)"/>
<line x1="602" y1="410" x2="882" y2="458" stroke="#64748b" stroke-width="3" stroke-linecap="round" marker-end="url(#arrow)"/>

</svg>
