<svg xmlns="http://www.w3.org/2000/svg" width="1400" height="720" viewBox="0 0 1400 720" role="img" aria-labelledby="title desc" data-diagram-kind="matrix-structure">
  <title id="title">sparse backend decision map</title>
  <desc id="desc">sparse backend decision map from Jacobian structure to factorization, Schur, marginalization, covariance, and PCG.</desc>
  <defs>
    <marker id="arrow" markerWidth="12" markerHeight="12" refX="9" refY="3" orient="auto" markerUnits="strokeWidth">
      <path d="M0,0 L0,6 L9,3 z" fill="#2563eb"/>
    </marker>
    <filter id="shadow" x="-10%" y="-10%" width="120%" height="120%">
      <feDropShadow dx="0" dy="5" stdDeviation="8" flood-color="#0f172a" flood-opacity="0.12"/>
    </filter>
    <pattern id="grid" width="28" height="28" patternUnits="userSpaceOnUse">
      <path d="M28 0H0V28" fill="none" stroke="#e2e8f0" stroke-width="1"/>
    </pattern>
  </defs>
  <rect width="1400" height="720" fill="#f8fafc"/>
  <rect x="42" y="38" width="1316" height="644" rx="20" fill="#ffffff" stroke="#d9e2ef" filter="url(#shadow)"/>
  <text x="80" y="88" font-size="30" font-weight="800" fill="#0f172a">sparse backend decision map</text>
  <text x="80" y="122" font-size="16" font-weight="600" fill="#475569">sparse backend decision map from Jacobian structure to factorization, Schur, marginalization, covariance, and PCG.</text>
  <rect x="80" y="144" width="1240" height="2" fill="#dbeafe"/>

<!-- layout:matrix-structure -->
<rect x="100" y="202" width="214" height="214" rx="14" fill="#f8fafc" stroke="#0f172a" stroke-width="3"/>
<rect x="126" y="228" width="23" height="23" rx="5" fill="#2563eb" stroke="#cbd5e1"/>
<rect x="154" y="228" width="23" height="23" rx="5" fill="#2563eb" stroke="#cbd5e1"/>
<rect x="182" y="228" width="23" height="23" rx="5" fill="#f8fafc" stroke="#cbd5e1"/>
<rect x="210" y="228" width="23" height="23" rx="5" fill="#f8fafc" stroke="#cbd5e1"/>
<rect x="238" y="228" width="23" height="23" rx="5" fill="#2563eb" stroke="#cbd5e1"/>
<rect x="266" y="228" width="23" height="23" rx="5" fill="#2563eb" stroke="#cbd5e1"/>
<rect x="126" y="256" width="23" height="23" rx="5" fill="#2563eb" stroke="#cbd5e1"/>
<rect x="154" y="256" width="23" height="23" rx="5" fill="#2563eb" stroke="#cbd5e1"/>
<rect x="182" y="256" width="23" height="23" rx="5" fill="#2563eb" stroke="#cbd5e1"/>
<rect x="210" y="256" width="23" height="23" rx="5" fill="#f8fafc" stroke="#cbd5e1"/>
<rect x="238" y="256" width="23" height="23" rx="5" fill="#2563eb" stroke="#cbd5e1"/>
<rect x="266" y="256" width="23" height="23" rx="5" fill="#2563eb" stroke="#cbd5e1"/>
<rect x="126" y="284" width="23" height="23" rx="5" fill="#f8fafc" stroke="#cbd5e1"/>
<rect x="154" y="284" width="23" height="23" rx="5" fill="#2563eb" stroke="#cbd5e1"/>
<rect x="182" y="284" width="23" height="23" rx="5" fill="#2563eb" stroke="#cbd5e1"/>
<rect x="210" y="284" width="23" height="23" rx="5" fill="#2563eb" stroke="#cbd5e1"/>
<rect x="238" y="284" width="23" height="23" rx="5" fill="#f8fafc" stroke="#cbd5e1"/>
<rect x="266" y="284" width="23" height="23" rx="5" fill="#f8fafc" stroke="#cbd5e1"/>
<rect x="126" y="312" width="23" height="23" rx="5" fill="#f8fafc" stroke="#cbd5e1"/>
<rect x="154" y="312" width="23" height="23" rx="5" fill="#f8fafc" stroke="#cbd5e1"/>
<rect x="182" y="312" width="23" height="23" rx="5" fill="#2563eb" stroke="#cbd5e1"/>
<rect x="210" y="312" width="23" height="23" rx="5" fill="#2563eb" stroke="#cbd5e1"/>
<rect x="238" y="312" width="23" height="23" rx="5" fill="#2563eb" stroke="#cbd5e1"/>
<rect x="266" y="312" width="23" height="23" rx="5" fill="#f8fafc" stroke="#cbd5e1"/>
<rect x="126" y="340" width="23" height="23" rx="5" fill="#f8fafc" stroke="#cbd5e1"/>
<rect x="154" y="340" width="23" height="23" rx="5" fill="#bfdbfe" stroke="#cbd5e1"/>
<rect x="182" y="340" width="23" height="23" rx="5" fill="#f8fafc" stroke="#cbd5e1"/>
<rect x="210" y="340" width="23" height="23" rx="5" fill="#2563eb" stroke="#cbd5e1"/>
<rect x="238" y="340" width="23" height="23" rx="5" fill="#2563eb" stroke="#cbd5e1"/>
<rect x="266" y="340" width="23" height="23" rx="5" fill="#2563eb" stroke="#cbd5e1"/>
<rect x="126" y="368" width="23" height="23" rx="5" fill="#bfdbfe" stroke="#cbd5e1"/>
<rect x="154" y="368" width="23" height="23" rx="5" fill="#f8fafc" stroke="#cbd5e1"/>
<rect x="182" y="368" width="23" height="23" rx="5" fill="#f8fafc" stroke="#cbd5e1"/>
<rect x="210" y="368" width="23" height="23" rx="5" fill="#f8fafc" stroke="#cbd5e1"/>
<rect x="238" y="368" width="23" height="23" rx="5" fill="#2563eb" stroke="#cbd5e1"/>
<rect x="266" y="368" width="23" height="23" rx="5" fill="#2563eb" stroke="#cbd5e1"/>

<text x="206" y="454" text-anchor="middle" font-size="14" font-weight="600" fill="#475569">Jacobian sparsity</text>
<line x1="318" y1="304" x2="392" y2="304" stroke="#64748b" stroke-width="3" stroke-linecap="round" marker-end="url(#arrow)"/>
<rect x="404" y="202" width="214" height="214" rx="14" fill="#f8fafc" stroke="#7c3aed" stroke-width="3"/>
<rect x="430" y="228" width="23" height="23" rx="5" fill="#7c3aed" stroke="#cbd5e1"/>
<rect x="458" y="228" width="23" height="23" rx="5" fill="#7c3aed" stroke="#cbd5e1"/>
<rect x="486" y="228" width="23" height="23" rx="5" fill="#7c3aed" stroke="#cbd5e1"/>
<rect x="514" y="228" width="23" height="23" rx="5" fill="#7c3aed" stroke="#cbd5e1"/>
<rect x="542" y="228" width="23" height="23" rx="5" fill="#7c3aed" stroke="#cbd5e1"/>
<rect x="570" y="228" width="23" height="23" rx="5" fill="#7c3aed" stroke="#cbd5e1"/>
<rect x="430" y="256" width="23" height="23" rx="5" fill="#7c3aed" stroke="#cbd5e1"/>
<rect x="458" y="256" width="23" height="23" rx="5" fill="#7c3aed" stroke="#cbd5e1"/>
<rect x="486" y="256" width="23" height="23" rx="5" fill="#f8fafc" stroke="#cbd5e1"/>
<rect x="514" y="256" width="23" height="23" rx="5" fill="#ddd6fe" stroke="#cbd5e1"/>
<rect x="542" y="256" width="23" height="23" rx="5" fill="#f8fafc" stroke="#cbd5e1"/>
<rect x="570" y="256" width="23" height="23" rx="5" fill="#7c3aed" stroke="#cbd5e1"/>
<rect x="430" y="284" width="23" height="23" rx="5" fill="#7c3aed" stroke="#cbd5e1"/>
<rect x="458" y="284" width="23" height="23" rx="5" fill="#7c3aed" stroke="#cbd5e1"/>
<rect x="486" y="284" width="23" height="23" rx="5" fill="#7c3aed" stroke="#cbd5e1"/>
<rect x="514" y="284" width="23" height="23" rx="5" fill="#f8fafc" stroke="#cbd5e1"/>
<rect x="542" y="284" width="23" height="23" rx="5" fill="#f8fafc" stroke="#cbd5e1"/>
<rect x="570" y="284" width="23" height="23" rx="5" fill="#7c3aed" stroke="#cbd5e1"/>
<rect x="430" y="312" width="23" height="23" rx="5" fill="#7c3aed" stroke="#cbd5e1"/>
<rect x="458" y="312" width="23" height="23" rx="5" fill="#7c3aed" stroke="#cbd5e1"/>
<rect x="486" y="312" width="23" height="23" rx="5" fill="#7c3aed" stroke="#cbd5e1"/>
<rect x="514" y="312" width="23" height="23" rx="5" fill="#7c3aed" stroke="#cbd5e1"/>
<rect x="542" y="312" width="23" height="23" rx="5" fill="#f8fafc" stroke="#cbd5e1"/>
<rect x="570" y="312" width="23" height="23" rx="5" fill="#7c3aed" stroke="#cbd5e1"/>
<rect x="430" y="340" width="23" height="23" rx="5" fill="#7c3aed" stroke="#cbd5e1"/>
<rect x="458" y="340" width="23" height="23" rx="5" fill="#7c3aed" stroke="#cbd5e1"/>
<rect x="486" y="340" width="23" height="23" rx="5" fill="#7c3aed" stroke="#cbd5e1"/>
<rect x="514" y="340" width="23" height="23" rx="5" fill="#7c3aed" stroke="#cbd5e1"/>
<rect x="542" y="340" width="23" height="23" rx="5" fill="#7c3aed" stroke="#cbd5e1"/>
<rect x="570" y="340" width="23" height="23" rx="5" fill="#7c3aed" stroke="#cbd5e1"/>
<rect x="430" y="368" width="23" height="23" rx="5" fill="#7c3aed" stroke="#cbd5e1"/>
<rect x="458" y="368" width="23" height="23" rx="5" fill="#7c3aed" stroke="#cbd5e1"/>
<rect x="486" y="368" width="23" height="23" rx="5" fill="#7c3aed" stroke="#cbd5e1"/>
<rect x="514" y="368" width="23" height="23" rx="5" fill="#7c3aed" stroke="#cbd5e1"/>
<rect x="542" y="368" width="23" height="23" rx="5" fill="#7c3aed" stroke="#cbd5e1"/>
<rect x="570" y="368" width="23" height="23" rx="5" fill="#7c3aed" stroke="#cbd5e1"/>

<text x="510" y="454" text-anchor="middle" font-size="14" font-weight="600" fill="#475569">ordering / fill-in</text>
<line x1="622" y1="304" x2="696" y2="304" stroke="#64748b" stroke-width="3" stroke-linecap="round" marker-end="url(#arrow)"/>
<rect x="708" y="202" width="260" height="214" rx="14" fill="#fff7ed" stroke="#ea580c" stroke-width="3"/>
<text x="838" y="236" text-anchor="middle" font-size="16" font-weight="800" fill="#172033">factorization choice</text>
<text x="838" y="286" text-anchor="middle" font-size="14" font-weight="600" fill="#475569">Cholesky / LDLT</text>
<text x="838" y="340" text-anchor="middle" font-size="14" font-weight="600" fill="#475569">QR / SVD</text>
<text x="838" y="392" text-anchor="middle" font-size="14" font-weight="600" fill="#475569">rank robustness vs speed</text>
<line x1="972" y1="304" x2="1046" y2="304" stroke="#64748b" stroke-width="3" stroke-linecap="round" marker-end="url(#arrow)"/>
<rect x="1058" y="202" width="240" height="214" rx="14" fill="#ecfeff" stroke="#0891b2" stroke-width="3"/>
<text x="1110" y="242" text-anchor="start" font-size="16" font-weight="800" fill="#172033">Schur solve</text>
<text x="1168" y="306" text-anchor="middle" font-size="18" font-weight="900" fill="#0891b2">vs</text>
<text x="1110" y="372" text-anchor="start" font-size="16" font-weight="800" fill="#172033">marginalization prior</text>
<path d="M206 466 C248 552 444 570 572 520" fill="none" stroke="#2563eb" stroke-width="3" stroke-linecap="round" stroke-linejoin="round" marker-end="url(#arrow)"/>
<rect x="572" y="494" width="218" height="72" rx="14" fill="#eff6ff" stroke="#2563eb" stroke-width="2"/>
<text x="681" y="536" text-anchor="middle" font-size="14" font-weight="700" fill="#172033">square-root information /</text>
<text x="681" y="553" text-anchor="middle" font-size="14" font-weight="700" fill="#172033">covariance recovery</text>

<path d="M838 418 C866 538 976 584 1088 532" fill="none" stroke="#16a34a" stroke-width="3" stroke-linecap="round" stroke-linejoin="round" marker-end="url(#arrow)"/>
<rect x="1010" y="494" width="236" height="72" rx="14" fill="#f0fdf4" stroke="#16a34a" stroke-width="2"/>
<text x="1128" y="536" text-anchor="middle" font-size="14" font-weight="700" fill="#172033">PCG /</text>
<text x="1128" y="553" text-anchor="middle" font-size="14" font-weight="700" fill="#172033">preconditioner /</text>
<text x="1128" y="570" text-anchor="middle" font-size="14" font-weight="700" fill="#172033">stagnation</text>

<text x="700" y="626" text-anchor="middle" font-size="14" font-weight="600" fill="#475569">backend diagnostics connect structure, rank, memory, covariance, and iterative</text>
<text x="700" y="643" text-anchor="middle" font-size="14" font-weight="600" fill="#475569">residuals</text>

</svg>
