<svg xmlns="http://www.w3.org/2000/svg" width="1400" height="720" viewBox="0 0 1400 720" role="img" aria-labelledby="title desc" data-diagram-kind="numerical-factorization">
  <title id="title">Cholesky, LDLT, and Normal Equations</title>
  <desc id="desc">residual Jacobian to normal equations to SPD check, Cholesky/LDLT factorization, conditioning warning, and solve/back-substitution path.</desc>
  <defs>
    <marker id="arrow" markerWidth="12" markerHeight="12" refX="9" refY="3" orient="auto" markerUnits="strokeWidth">
      <path d="M0,0 L0,6 L9,3 z" fill="#2563eb"/>
    </marker>
    <filter id="shadow" x="-10%" y="-10%" width="120%" height="120%">
      <feDropShadow dx="0" dy="5" stdDeviation="8" flood-color="#0f172a" flood-opacity="0.12"/>
    </filter>
    <pattern id="grid" width="28" height="28" patternUnits="userSpaceOnUse">
      <path d="M28 0H0V28" fill="none" stroke="#e2e8f0" stroke-width="1"/>
    </pattern>
  </defs>
  <rect width="1400" height="720" fill="#f8fafc"/>
  <rect x="42" y="38" width="1316" height="644" rx="20" fill="#ffffff" stroke="#d9e2ef" filter="url(#shadow)"/>
  <text x="80" y="88" font-size="30" font-weight="800" fill="#0f172a">Cholesky, LDLT, and Normal Equations</text>
  <text x="80" y="122" font-size="16" font-weight="600" fill="#475569">residual Jacobian to normal equations to SPD check, Cholesky/LDLT factorization, conditioning warning, and solve/back-substitution path.</text>
  <rect x="80" y="144" width="1240" height="2" fill="#dbeafe"/>

<!-- layout:numerical-factorization -->
<rect x="160" y="250" width="210" height="210" rx="14" fill="#f8fafc" stroke="#0f172a" stroke-width="3"/>
<rect x="184" y="274" width="31" height="31" rx="5" fill="#2563eb" stroke="#cbd5e1"/>
<rect x="220" y="274" width="31" height="31" rx="5" fill="#f8fafc" stroke="#cbd5e1"/>
<rect x="256" y="274" width="31" height="31" rx="5" fill="#f8fafc" stroke="#cbd5e1"/>
<rect x="292" y="274" width="31" height="31" rx="5" fill="#f8fafc" stroke="#cbd5e1"/>
<rect x="328" y="274" width="31" height="31" rx="5" fill="#f8fafc" stroke="#cbd5e1"/>
<rect x="184" y="310" width="31" height="31" rx="5" fill="#2563eb" stroke="#cbd5e1"/>
<rect x="220" y="310" width="31" height="31" rx="5" fill="#2563eb" stroke="#cbd5e1"/>
<rect x="256" y="310" width="31" height="31" rx="5" fill="#f8fafc" stroke="#cbd5e1"/>
<rect x="292" y="310" width="31" height="31" rx="5" fill="#f8fafc" stroke="#cbd5e1"/>
<rect x="328" y="310" width="31" height="31" rx="5" fill="#f8fafc" stroke="#cbd5e1"/>
<rect x="184" y="346" width="31" height="31" rx="5" fill="#2563eb" stroke="#cbd5e1"/>
<rect x="220" y="346" width="31" height="31" rx="5" fill="#2563eb" stroke="#cbd5e1"/>
<rect x="256" y="346" width="31" height="31" rx="5" fill="#2563eb" stroke="#cbd5e1"/>
<rect x="292" y="346" width="31" height="31" rx="5" fill="#f8fafc" stroke="#cbd5e1"/>
<rect x="328" y="346" width="31" height="31" rx="5" fill="#f8fafc" stroke="#cbd5e1"/>
<rect x="184" y="382" width="31" height="31" rx="5" fill="#2563eb" stroke="#cbd5e1"/>
<rect x="220" y="382" width="31" height="31" rx="5" fill="#2563eb" stroke="#cbd5e1"/>
<rect x="256" y="382" width="31" height="31" rx="5" fill="#2563eb" stroke="#cbd5e1"/>
<rect x="292" y="382" width="31" height="31" rx="5" fill="#2563eb" stroke="#cbd5e1"/>
<rect x="328" y="382" width="31" height="31" rx="5" fill="#f8fafc" stroke="#cbd5e1"/>
<rect x="184" y="418" width="31" height="31" rx="5" fill="#2563eb" stroke="#cbd5e1"/>
<rect x="220" y="418" width="31" height="31" rx="5" fill="#2563eb" stroke="#cbd5e1"/>
<rect x="256" y="418" width="31" height="31" rx="5" fill="#2563eb" stroke="#cbd5e1"/>
<rect x="292" y="418" width="31" height="31" rx="5" fill="#2563eb" stroke="#cbd5e1"/>
<rect x="328" y="418" width="31" height="31" rx="5" fill="#2563eb" stroke="#cbd5e1"/>

<line x1="386" y1="356" x2="512" y2="356" stroke="#64748b" stroke-width="3" stroke-linecap="round" marker-end="url(#arrow)"/>
<rect x="532" y="250" width="210" height="210" rx="14" fill="#f8fafc" stroke="#0f172a" stroke-width="3"/>
<rect x="556" y="274" width="31" height="31" rx="5" fill="#16a34a" stroke="#cbd5e1"/>
<rect x="592" y="274" width="31" height="31" rx="5" fill="#f8fafc" stroke="#cbd5e1"/>
<rect x="628" y="274" width="31" height="31" rx="5" fill="#f8fafc" stroke="#cbd5e1"/>
<rect x="664" y="274" width="31" height="31" rx="5" fill="#f8fafc" stroke="#cbd5e1"/>
<rect x="700" y="274" width="31" height="31" rx="5" fill="#f8fafc" stroke="#cbd5e1"/>
<rect x="556" y="310" width="31" height="31" rx="5" fill="#bfdbfe" stroke="#cbd5e1"/>
<rect x="592" y="310" width="31" height="31" rx="5" fill="#16a34a" stroke="#cbd5e1"/>
<rect x="628" y="310" width="31" height="31" rx="5" fill="#f8fafc" stroke="#cbd5e1"/>
<rect x="664" y="310" width="31" height="31" rx="5" fill="#f8fafc" stroke="#cbd5e1"/>
<rect x="700" y="310" width="31" height="31" rx="5" fill="#f8fafc" stroke="#cbd5e1"/>
<rect x="556" y="346" width="31" height="31" rx="5" fill="#bfdbfe" stroke="#cbd5e1"/>
<rect x="592" y="346" width="31" height="31" rx="5" fill="#bfdbfe" stroke="#cbd5e1"/>
<rect x="628" y="346" width="31" height="31" rx="5" fill="#16a34a" stroke="#cbd5e1"/>
<rect x="664" y="346" width="31" height="31" rx="5" fill="#f8fafc" stroke="#cbd5e1"/>
<rect x="700" y="346" width="31" height="31" rx="5" fill="#f8fafc" stroke="#cbd5e1"/>
<rect x="556" y="382" width="31" height="31" rx="5" fill="#bfdbfe" stroke="#cbd5e1"/>
<rect x="592" y="382" width="31" height="31" rx="5" fill="#bfdbfe" stroke="#cbd5e1"/>
<rect x="628" y="382" width="31" height="31" rx="5" fill="#bfdbfe" stroke="#cbd5e1"/>
<rect x="664" y="382" width="31" height="31" rx="5" fill="#16a34a" stroke="#cbd5e1"/>
<rect x="700" y="382" width="31" height="31" rx="5" fill="#f8fafc" stroke="#cbd5e1"/>
<rect x="556" y="418" width="31" height="31" rx="5" fill="#bfdbfe" stroke="#cbd5e1"/>
<rect x="592" y="418" width="31" height="31" rx="5" fill="#bfdbfe" stroke="#cbd5e1"/>
<rect x="628" y="418" width="31" height="31" rx="5" fill="#bfdbfe" stroke="#cbd5e1"/>
<rect x="664" y="418" width="31" height="31" rx="5" fill="#bfdbfe" stroke="#cbd5e1"/>
<rect x="700" y="418" width="31" height="31" rx="5" fill="#16a34a" stroke="#cbd5e1"/>

<line x1="758" y1="356" x2="884" y2="356" stroke="#64748b" stroke-width="3" stroke-linecap="round" marker-end="url(#arrow)"/>
<rect x="904" y="250" width="210" height="210" rx="14" fill="#f8fafc" stroke="#0f172a" stroke-width="3"/>
<rect x="928" y="274" width="31" height="31" rx="5" fill="#ea580c" stroke="#cbd5e1"/>
<rect x="964" y="274" width="31" height="31" rx="5" fill="#ea580c" stroke="#cbd5e1"/>
<rect x="1000" y="274" width="31" height="31" rx="5" fill="#ea580c" stroke="#cbd5e1"/>
<rect x="1036" y="274" width="31" height="31" rx="5" fill="#ea580c" stroke="#cbd5e1"/>
<rect x="1072" y="274" width="31" height="31" rx="5" fill="#ea580c" stroke="#cbd5e1"/>
<rect x="928" y="310" width="31" height="31" rx="5" fill="#f8fafc" stroke="#cbd5e1"/>
<rect x="964" y="310" width="31" height="31" rx="5" fill="#ea580c" stroke="#cbd5e1"/>
<rect x="1000" y="310" width="31" height="31" rx="5" fill="#ea580c" stroke="#cbd5e1"/>
<rect x="1036" y="310" width="31" height="31" rx="5" fill="#ea580c" stroke="#cbd5e1"/>
<rect x="1072" y="310" width="31" height="31" rx="5" fill="#ea580c" stroke="#cbd5e1"/>
<rect x="928" y="346" width="31" height="31" rx="5" fill="#f8fafc" stroke="#cbd5e1"/>
<rect x="964" y="346" width="31" height="31" rx="5" fill="#f8fafc" stroke="#cbd5e1"/>
<rect x="1000" y="346" width="31" height="31" rx="5" fill="#ea580c" stroke="#cbd5e1"/>
<rect x="1036" y="346" width="31" height="31" rx="5" fill="#ea580c" stroke="#cbd5e1"/>
<rect x="1072" y="346" width="31" height="31" rx="5" fill="#ea580c" stroke="#cbd5e1"/>
<rect x="928" y="382" width="31" height="31" rx="5" fill="#f8fafc" stroke="#cbd5e1"/>
<rect x="964" y="382" width="31" height="31" rx="5" fill="#f8fafc" stroke="#cbd5e1"/>
<rect x="1000" y="382" width="31" height="31" rx="5" fill="#f8fafc" stroke="#cbd5e1"/>
<rect x="1036" y="382" width="31" height="31" rx="5" fill="#ea580c" stroke="#cbd5e1"/>
<rect x="1072" y="382" width="31" height="31" rx="5" fill="#ea580c" stroke="#cbd5e1"/>
<rect x="928" y="418" width="31" height="31" rx="5" fill="#f8fafc" stroke="#cbd5e1"/>
<rect x="964" y="418" width="31" height="31" rx="5" fill="#f8fafc" stroke="#cbd5e1"/>
<rect x="1000" y="418" width="31" height="31" rx="5" fill="#f8fafc" stroke="#cbd5e1"/>
<rect x="1036" y="418" width="31" height="31" rx="5" fill="#f8fafc" stroke="#cbd5e1"/>
<rect x="1072" y="418" width="31" height="31" rx="5" fill="#ea580c" stroke="#cbd5e1"/>

<text x="642" y="552" text-anchor="middle" font-size="14" font-weight="600" fill="#475569">residual Jacobian</text>

</svg>
