<svg xmlns="http://www.w3.org/2000/svg" width="1400" height="720" viewBox="0 0 1400 720" role="img" aria-labelledby="title desc" data-diagram-kind="objective-landscape">
  <title id="title">residual audit flow</title>
  <desc id="desc">residual audit flow from measurement model to whitened residual and diagnostics.</desc>
  <defs>
    <marker id="arrow" markerWidth="12" markerHeight="12" refX="9" refY="3" orient="auto" markerUnits="strokeWidth">
      <path d="M0,0 L0,6 L9,3 z" fill="#2563eb"/>
    </marker>
    <filter id="shadow" x="-10%" y="-10%" width="120%" height="120%">
      <feDropShadow dx="0" dy="5" stdDeviation="8" flood-color="#0f172a" flood-opacity="0.12"/>
    </filter>
    <pattern id="grid" width="28" height="28" patternUnits="userSpaceOnUse">
      <path d="M28 0H0V28" fill="none" stroke="#e2e8f0" stroke-width="1"/>
    </pattern>
  </defs>
  <rect width="1400" height="720" fill="#f8fafc"/>
  <rect x="42" y="38" width="1316" height="644" rx="20" fill="#ffffff" stroke="#d9e2ef" filter="url(#shadow)"/>
  <text x="80" y="88" font-size="30" font-weight="800" fill="#0f172a">residual audit flow</text>
  <text x="80" y="122" font-size="16" font-weight="600" fill="#475569">residual audit flow from measurement model to whitened residual and diagnostics.</text>
  <rect x="80" y="144" width="1240" height="2" fill="#dbeafe"/>

<!-- layout:objective-landscape -->
<rect x="112" y="248" width="144" height="96" rx="14" fill="#eff6ff" stroke="#2563eb" stroke-width="2"/>
<text x="184" y="302" text-anchor="middle" font-size="15" font-weight="700" fill="#172033">measurement</text>
<text x="184" y="320" text-anchor="middle" font-size="15" font-weight="700" fill="#172033">model</text>

<line x1="256" y1="296" x2="302" y2="296" stroke="#64748b" stroke-width="2.5" stroke-linecap="round" marker-end="url(#arrow)"/>
<rect x="310" y="248" width="144" height="96" rx="14" fill="#f0fdf4" stroke="#16a34a" stroke-width="2"/>
<text x="382" y="302" text-anchor="middle" font-size="15" font-weight="700" fill="#172033">raw residual</text>

<line x1="454" y1="296" x2="500" y2="296" stroke="#64748b" stroke-width="2.5" stroke-linecap="round" marker-end="url(#arrow)"/>
<rect x="508" y="248" width="144" height="96" rx="14" fill="#fff7ed" stroke="#ea580c" stroke-width="2"/>
<text x="580" y="302" text-anchor="middle" font-size="15" font-weight="700" fill="#172033">covariance /</text>
<text x="580" y="320" text-anchor="middle" font-size="15" font-weight="700" fill="#172033">whitening</text>

<line x1="652" y1="296" x2="698" y2="296" stroke="#64748b" stroke-width="2.5" stroke-linecap="round" marker-end="url(#arrow)"/>
<rect x="706" y="248" width="144" height="96" rx="14" fill="#ecfeff" stroke="#0891b2" stroke-width="2"/>
<text x="778" y="302" text-anchor="middle" font-size="15" font-weight="700" fill="#172033">robust weight</text>

<line x1="850" y1="296" x2="896" y2="296" stroke="#64748b" stroke-width="2.5" stroke-linecap="round" marker-end="url(#arrow)"/>
<rect x="904" y="248" width="144" height="96" rx="14" fill="#f5f3ff" stroke="#7c3aed" stroke-width="2"/>
<text x="976" y="302" text-anchor="middle" font-size="15" font-weight="700" fill="#172033">Jacobian check</text>

<line x1="1048" y1="296" x2="1094" y2="296" stroke="#64748b" stroke-width="2.5" stroke-linecap="round" marker-end="url(#arrow)"/>
<rect x="1102" y="248" width="144" height="96" rx="14" fill="#ffe4e6" stroke="#e11d48" stroke-width="2"/>
<text x="1174" y="302" text-anchor="middle" font-size="15" font-weight="700" fill="#172033">residual</text>
<text x="1174" y="320" text-anchor="middle" font-size="15" font-weight="700" fill="#172033">diagnostics</text>


<rect x="150" y="432" width="300" height="130" rx="14" fill="#f0fdf4" stroke="#16a34a" stroke-width="3"/>
<text x="300" y="468" text-anchor="middle" font-size="16" font-weight="700" fill="#172033">synthetic zero residual</text>
<polyline points="206,514 258,514 286,490 332,538 392,486" fill="none" stroke="#16a34a" stroke-width="4" stroke-linecap="round" stroke-linejoin="round"/>
<rect x="550" y="432" width="300" height="130" rx="14" fill="#eff6ff" stroke="#2563eb" stroke-width="3"/>
<text x="700" y="468" text-anchor="middle" font-size="16" font-weight="700" fill="#172033">whitened histogram</text>
<rect x="610" y="526" width="28" height="22" rx="4" fill="#bfdbfe"/>
<rect x="650" y="494" width="28" height="54" rx="4" fill="#60a5fa"/>
<rect x="690" y="476" width="28" height="72" rx="4" fill="#2563eb"/>
<rect x="730" y="498" width="28" height="50" rx="4" fill="#60a5fa"/>
<rect x="770" y="528" width="28" height="20" rx="4" fill="#bfdbfe"/>
<rect x="950" y="432" width="300" height="130" rx="14" fill="#fff7ed" stroke="#ea580c" stroke-width="3"/>
<text x="1100" y="468" text-anchor="middle" font-size="16" font-weight="700" fill="#172033">per-family cost share</text>
<circle cx="1026" cy="522" r="34" fill="#fed7aa"/>
<path d="M1026 522 L1026 488 A34 34 0 0 1 1056 538 Z" fill="#ea580c"/>
<circle cx="1120" cy="522" r="34" fill="#dbeafe"/>
<path d="M1120 522 L1120 488 A34 34 0 1 1 1096 546 Z" fill="#2563eb"/>
<text x="700" y="624" text-anchor="middle" font-size="14" font-weight="600" fill="#475569">audit artifacts prove scale, signs, outliers, and derivatives before solver tuning</text>

</svg>
