<svg xmlns="http://www.w3.org/2000/svg" width="1400" height="720" viewBox="0 0 1400 720" role="img" aria-labelledby="title desc" data-diagram-kind="optimization-step-geometry">
  <title id="title">Solver Selection and Convergence Diagnosis</title>
  <desc id="desc">solver choice matrix and convergence symptom routing.</desc>
  <defs>
    <marker id="arrow" markerWidth="12" markerHeight="12" refX="9" refY="3" orient="auto" markerUnits="strokeWidth">
      <path d="M0,0 L0,6 L9,3 z" fill="#2563eb"/>
    </marker>
    <filter id="shadow" x="-10%" y="-10%" width="120%" height="120%">
      <feDropShadow dx="0" dy="5" stdDeviation="8" flood-color="#0f172a" flood-opacity="0.12"/>
    </filter>
    <pattern id="grid" width="28" height="28" patternUnits="userSpaceOnUse">
      <path d="M28 0H0V28" fill="none" stroke="#e2e8f0" stroke-width="1"/>
    </pattern>
  </defs>
  <rect width="1400" height="720" fill="#f8fafc"/>
  <rect x="42" y="38" width="1316" height="644" rx="20" fill="#ffffff" stroke="#d9e2ef" filter="url(#shadow)"/>
  <text x="80" y="88" font-size="30" font-weight="800" fill="#0f172a">Solver Selection and Convergence Diagnosis</text>
  <text x="80" y="122" font-size="16" font-weight="600" fill="#475569">solver choice matrix and convergence symptom routing.</text>
  <rect x="80" y="144" width="1240" height="2" fill="#dbeafe"/>

<!-- layout:optimization-step-geometry -->
<rect x="108" y="202" width="342" height="340" rx="16" fill="#f8fafc" stroke="#94a3b8" stroke-width="2"/>
<text x="138" y="238" text-anchor="start" font-size="18" font-weight="800" fill="#172033">Solver choice</text>
<rect x="148" y="268" width="112" height="68" rx="14" fill="#eff6ff" stroke="#2563eb" stroke-width="2"/>
<text x="204" y="308" text-anchor="middle" font-size="18" font-weight="700" fill="#172033">GN</text>

<rect x="292" y="268" width="112" height="68" rx="14" fill="#f0fdf4" stroke="#16a34a" stroke-width="2"/>
<text x="348" y="308" text-anchor="middle" font-size="15" font-weight="700" fill="#172033">LM /</text>
<text x="348" y="326" text-anchor="middle" font-size="15" font-weight="700" fill="#172033">dogleg</text>

<rect x="148" y="368" width="112" height="68" rx="14" fill="#fff7ed" stroke="#ea580c" stroke-width="2"/>
<text x="204" y="408" text-anchor="middle" font-size="15" font-weight="700" fill="#172033">backend</text>
<text x="204" y="426" text-anchor="middle" font-size="15" font-weight="700" fill="#172033">choice</text>

<rect x="292" y="368" width="112" height="68" rx="14" fill="#ecfeff" stroke="#0891b2" stroke-width="2"/>
<text x="348" y="408" text-anchor="middle" font-size="14" font-weight="700" fill="#172033">QR/SVD /</text>
<text x="348" y="425" text-anchor="middle" font-size="14" font-weight="700" fill="#172033">Schur/PCG</text>

<rect x="528" y="202" width="344" height="340" rx="16" fill="#eff6ff" stroke="#2563eb" stroke-width="3"/>
<text x="558" y="238" text-anchor="start" font-size="18" font-weight="800" fill="#172033">Trial-state lifecycle</text>
<rect x="578" y="276" width="104" height="64" rx="14" fill="#eff6ff" stroke="#2563eb" stroke-width="2"/>
<text x="630" y="314" text-anchor="middle" font-size="14" font-weight="700" fill="#172033">committed</text>
<text x="630" y="331" text-anchor="middle" font-size="14" font-weight="700" fill="#172033">state</text>

<line x1="686" y1="308" x2="728" y2="308" stroke="#64748b" stroke-width="3" stroke-linecap="round" marker-end="url(#arrow)"/>
<rect x="734" y="276" width="104" height="64" rx="14" fill="#f5f3ff" stroke="#7c3aed" stroke-width="2"/>
<text x="786" y="314" text-anchor="middle" font-size="14" font-weight="700" fill="#172033">trial</text>
<text x="786" y="331" text-anchor="middle" font-size="14" font-weight="700" fill="#172033">state</text>

<path d="M786 344 C808 380 810 414 786 450" fill="none" stroke="#16a34a" stroke-width="3" stroke-linecap="round" stroke-linejoin="round" marker-end="url(#arrow)"/>
<text x="826" y="402" text-anchor="middle" font-size="13" font-weight="800" fill="#16a34a">accept</text>
<path d="M734 450 C672 424 646 376 650 344" fill="none" stroke="#e11d48" stroke-width="3" stroke-linecap="round" stroke-linejoin="round" marker-end="url(#arrow)"/>
<text x="572" y="430" text-anchor="start" font-size="13" font-weight="800" fill="#e11d48">reject: state unchanged</text>
<rect x="610" y="474" width="198" height="52" rx="14" fill="#ffe4e6" stroke="#e11d48" stroke-width="2"/>
<text x="709" y="506" text-anchor="middle" font-size="13" font-weight="700" fill="#172033">actual vs predicted</text>
<text x="709" y="522" text-anchor="middle" font-size="13" font-weight="700" fill="#172033">reduction</text>

<rect x="948" y="202" width="342" height="340" rx="16" fill="#f8fafc" stroke="#94a3b8" stroke-width="2"/>
<text x="978" y="238" text-anchor="start" font-size="18" font-weight="800" fill="#172033">Symptom routing</text>
<text x="1118" y="292" text-anchor="middle" font-size="14" font-weight="600" fill="#475569">trust-region ratio</text>
<polyline points="998,314 1058,292 1118,320 1178,272 1240,300" fill="none" stroke="#2563eb" stroke-width="4" stroke-linecap="round" stroke-linejoin="round"/>
<text x="1118" y="376" text-anchor="middle" font-size="14" font-weight="600" fill="#475569">line-search step length</text>
<line x1="998" y1="398" x2="1240" y2="398" stroke="#cbd5e1" stroke-width="6" stroke-linecap="round"/>
<circle cx="1068" cy="398" r="13" fill="#ea580c"/>
<circle cx="1198" cy="398" r="13" fill="#16a34a"/>
<text x="1118" y="478" text-anchor="middle" font-size="14" font-weight="600" fill="#475569">convergence / false convergence</text>
<text x="1118" y="495" text-anchor="middle" font-size="14" font-weight="600" fill="#475569">telemetry</text>
<text x="700" y="620" text-anchor="middle" font-size="14" font-weight="600" fill="#475569">cost, gradient, step norm, damping, accepted/rejected counts</text>

</svg>
