<svg xmlns="http://www.w3.org/2000/svg" width="1400" height="720" viewBox="0 0 1400 720" role="img" aria-labelledby="title desc" data-diagram-kind="information-map">
  <title id="title">Information Theory for Perception and Machine Learning</title>
  <desc id="desc">relationship map for entropy, cross-entropy, KL, mutual information, compression, prediction error, and active sensing value.</desc>
  <defs>
    <marker id="arrow" markerWidth="12" markerHeight="12" refX="9" refY="3" orient="auto" markerUnits="strokeWidth">
      <path d="M0,0 L0,6 L9,3 z" fill="#2563eb"/>
    </marker>
    <filter id="shadow" x="-10%" y="-10%" width="120%" height="120%">
      <feDropShadow dx="0" dy="5" stdDeviation="8" flood-color="#0f172a" flood-opacity="0.12"/>
    </filter>
    <pattern id="grid" width="28" height="28" patternUnits="userSpaceOnUse">
      <path d="M28 0H0V28" fill="none" stroke="#e2e8f0" stroke-width="1"/>
    </pattern>
  </defs>
  <rect width="1400" height="720" fill="#f8fafc"/>
  <rect x="42" y="38" width="1316" height="644" rx="20" fill="#ffffff" stroke="#d9e2ef" filter="url(#shadow)"/>
  <text x="80" y="88" font-size="30" font-weight="800" fill="#0f172a">Information Theory for Perception and Machine Learning</text>
  <text x="80" y="122" font-size="16" font-weight="600" fill="#475569">relationship map for entropy, cross-entropy, KL, mutual information, compression, prediction error, and active sensing value.</text>
  <rect x="80" y="144" width="1240" height="2" fill="#dbeafe"/>

<!-- layout:information-map -->
<circle cx="700" cy="354" r="70" fill="#eef2ff" stroke="#4f46e5" stroke-width="3"/>
<text x="700" y="359" text-anchor="middle" font-size="14" font-weight="700" fill="#172033">relationship</text>
<text x="700" y="376" text-anchor="middle" font-size="14" font-weight="700" fill="#172033">map for entropy</text>
<line x1="700" y1="354" x2="250" y2="228" stroke="#64748b" stroke-width="2.4" stroke-linecap="round" marker-end="url(#arrow)"/>
<rect x="146" y="190" width="208" height="76" rx="14" fill="#eff6ff" stroke="#2563eb" stroke-width="2"/>
<text x="250" y="234" text-anchor="middle" font-size="15" font-weight="700" fill="#172033">cross-entropy</text>

<line x1="700" y1="354" x2="470" y2="520" stroke="#64748b" stroke-width="2.4" stroke-linecap="round" marker-end="url(#arrow)"/>
<rect x="366" y="482" width="208" height="76" rx="14" fill="#f0fdf4" stroke="#16a34a" stroke-width="2"/>
<text x="470" y="526" text-anchor="middle" font-size="15" font-weight="700" fill="#172033">mutual information</text>

<line x1="700" y1="354" x2="930" y2="520" stroke="#64748b" stroke-width="2.4" stroke-linecap="round" marker-end="url(#arrow)"/>
<rect x="826" y="482" width="208" height="76" rx="14" fill="#fff7ed" stroke="#ea580c" stroke-width="2"/>
<text x="930" y="526" text-anchor="middle" font-size="15" font-weight="700" fill="#172033">compression</text>

<line x1="700" y1="354" x2="1150" y2="228" stroke="#64748b" stroke-width="2.4" stroke-linecap="round" marker-end="url(#arrow)"/>
<rect x="1046" y="190" width="208" height="76" rx="14" fill="#ecfeff" stroke="#0891b2" stroke-width="2"/>
<text x="1150" y="234" text-anchor="middle" font-size="15" font-weight="700" fill="#172033">prediction error</text>

<line x1="700" y1="354" x2="700" y2="198" stroke="#64748b" stroke-width="2.4" stroke-linecap="round" marker-end="url(#arrow)"/>
<rect x="596" y="160" width="208" height="76" rx="14" fill="#f5f3ff" stroke="#7c3aed" stroke-width="2"/>
<text x="700" y="204" text-anchor="middle" font-size="15" font-weight="700" fill="#172033">and active sensing</text>
<text x="700" y="222" text-anchor="middle" font-size="15" font-weight="700" fill="#172033">value</text>

<text x="700" y="622" text-anchor="middle" font-size="14" font-weight="600" fill="#475569">information flow connects evidence, uncertainty, and decisions</text>

</svg>
