<svg xmlns="http://www.w3.org/2000/svg" width="1400" height="720" viewBox="0 0 1400 720" role="img" aria-labelledby="title desc" data-diagram-kind="density-mixture">
  <title id="title">multimodal density</title>
  <desc id="desc">multimodal density with mixture components, responsibilities, hypothesis weights, mean-collapse warning, and tracking/localization examples.</desc>
  <defs>
    <marker id="arrow" markerWidth="12" markerHeight="12" refX="9" refY="3" orient="auto" markerUnits="strokeWidth">
      <path d="M0,0 L0,6 L9,3 z" fill="#2563eb"/>
    </marker>
    <filter id="shadow" x="-10%" y="-10%" width="120%" height="120%">
      <feDropShadow dx="0" dy="5" stdDeviation="8" flood-color="#0f172a" flood-opacity="0.12"/>
    </filter>
    <pattern id="grid" width="28" height="28" patternUnits="userSpaceOnUse">
      <path d="M28 0H0V28" fill="none" stroke="#e2e8f0" stroke-width="1"/>
    </pattern>
  </defs>
  <rect width="1400" height="720" fill="#f8fafc"/>
  <rect x="42" y="38" width="1316" height="644" rx="20" fill="#ffffff" stroke="#d9e2ef" filter="url(#shadow)"/>
  <text x="80" y="88" font-size="30" font-weight="800" fill="#0f172a">multimodal density</text>
  <text x="80" y="122" font-size="16" font-weight="600" fill="#475569">multimodal density with mixture components, responsibilities, hypothesis weights, mean-collapse warning, and tracking/localization examples.</text>
  <rect x="80" y="144" width="1240" height="2" fill="#dbeafe"/>

<!-- layout:density-mixture -->
<line x1="140" y1="506" x2="604" y2="506" stroke="#0f172a" stroke-width="3"/>
<rect x="186" y="442" width="38" height="60" rx="8" fill="#e2e8f0"/>
<rect x="244" y="406" width="38" height="96" rx="8" fill="#e2e8f0"/>
<rect x="302" y="350" width="38" height="152" rx="8" fill="#e2e8f0"/>
<rect x="360" y="282" width="38" height="220" rx="8" fill="#bfdbfe"/>
<rect x="418" y="332" width="38" height="170" rx="8" fill="#bfdbfe"/>
<rect x="476" y="392" width="38" height="110" rx="8" fill="#bfdbfe"/>
<rect x="534" y="434" width="38" height="68" rx="8" fill="#bfdbfe"/>
<line x1="392" y1="222" x2="392" y2="512" stroke="#e11d48" stroke-width="4" stroke-dasharray="12 10"/>
<text x="392" y="194" text-anchor="middle" font-size="14" font-weight="600" fill="#e11d48">mixture weights</text>
<path d="M730 470 C790 260 916 242 976 470" fill="none" stroke="#16a34a" stroke-width="4" stroke-linecap="round" stroke-linejoin="round"/>
<path d="M850 470 C910 304 1038 292 1108 470" fill="none" stroke="#2563eb" stroke-width="4" stroke-linecap="round" stroke-linejoin="round"/>
<circle cx="864" cy="330" r="50" fill="#f0fdf4" stroke="#16a34a" stroke-width="3"/>
<text x="864" y="335" text-anchor="middle" font-size="14" font-weight="700" fill="#172033">multimodal</text>
<text x="864" y="352" text-anchor="middle" font-size="14" font-weight="700" fill="#172033">density</text>
<circle cx="1050" cy="366" r="50" fill="#eff6ff" stroke="#2563eb" stroke-width="3"/>
<text x="1050" y="371" text-anchor="middle" font-size="14" font-weight="700" fill="#172033">mixture</text>
<text x="1050" y="388" text-anchor="middle" font-size="14" font-weight="700" fill="#172033">components</text>
<text x="760" y="606" text-anchor="middle" font-size="14" font-weight="600" fill="#475569">multiple density modes preserve competing hypotheses</text>

</svg>
