<svg xmlns="http://www.w3.org/2000/svg" width="1400" height="720" viewBox="0 0 1400 720" role="img" aria-labelledby="title desc" data-diagram-kind="radar-map">
  <title id="title">FMCW/MIMO radar pipeline</title>
  <desc id="desc">FMCW/MIMO radar pipeline from chirps to beat frequency, range FFT, Doppler FFT, virtual array angle, CFAR, and ghost/multipath artifacts.</desc>
  <defs>
    <marker id="arrow" markerWidth="12" markerHeight="12" refX="9" refY="3" orient="auto" markerUnits="strokeWidth">
      <path d="M0,0 L0,6 L9,3 z" fill="#2563eb"/>
    </marker>
    <filter id="shadow" x="-10%" y="-10%" width="120%" height="120%">
      <feDropShadow dx="0" dy="5" stdDeviation="8" flood-color="#0f172a" flood-opacity="0.12"/>
    </filter>
    <pattern id="grid" width="28" height="28" patternUnits="userSpaceOnUse">
      <path d="M28 0H0V28" fill="none" stroke="#e2e8f0" stroke-width="1"/>
    </pattern>
  </defs>
  <rect width="1400" height="720" fill="#f8fafc"/>
  <rect x="42" y="38" width="1316" height="644" rx="20" fill="#ffffff" stroke="#d9e2ef" filter="url(#shadow)"/>
  <text x="80" y="88" font-size="30" font-weight="800" fill="#0f172a">FMCW/MIMO radar pipeline</text>
  <text x="80" y="122" font-size="16" font-weight="600" fill="#475569">FMCW/MIMO radar pipeline from chirps to beat frequency, range FFT, Doppler FFT, virtual array angle, CFAR, and ghost/multipath artifacts.</text>
  <rect x="80" y="144" width="1240" height="2" fill="#dbeafe"/>

<!-- layout:radar-map -->
<rect x="96" y="260" width="380" height="230" rx="14" fill="#ecfeff" stroke="#0891b2" stroke-width="3"/>
<polyline points="116,376 170,320 224,376 278,432 332,376 386,320 440,376" fill="none" stroke="#0891b2" stroke-width="4" stroke-linecap="round" stroke-linejoin="round"/>
<text x="286" y="536" text-anchor="middle" font-size="14" font-weight="600" fill="#475569">chirps</text>
<rect x="530" y="260" width="300" height="230" rx="14" fill="#f8fafc" stroke="#475569" stroke-width="3"/>
<rect x="568" y="440" width="26" height="60" rx="5" fill="#38bdf8"/>
<rect x="614" y="382" width="26" height="118" rx="5" fill="#38bdf8"/>
<rect x="660" y="416" width="26" height="84" rx="5" fill="#38bdf8"/>
<rect x="706" y="322" width="26" height="178" rx="5" fill="#e11d48"/>
<rect x="752" y="406" width="26" height="94" rx="5" fill="#38bdf8"/>
<rect x="798" y="368" width="26" height="132" rx="5" fill="#38bdf8"/>
<rect x="844" y="430" width="26" height="70" rx="5" fill="#38bdf8"/>
<text x="680" y="536" text-anchor="middle" font-size="14" font-weight="600" fill="#475569">FFT peaks</text>
<rect x="884" y="246" width="310" height="310" rx="14" fill="#f8fafc" stroke="#0f172a" stroke-width="3"/>
<rect x="902" y="264" width="33" height="33" rx="5" fill="#bae6fd" stroke="#cbd5e1"/>
<rect x="940" y="264" width="33" height="33" rx="5" fill="#bae6fd" stroke="#cbd5e1"/>
<rect x="978" y="264" width="33" height="33" rx="5" fill="#f8fafc" stroke="#cbd5e1"/>
<rect x="1016" y="264" width="33" height="33" rx="5" fill="#f8fafc" stroke="#cbd5e1"/>
<rect x="1054" y="264" width="33" height="33" rx="5" fill="#f8fafc" stroke="#cbd5e1"/>
<rect x="1092" y="264" width="33" height="33" rx="5" fill="#f8fafc" stroke="#cbd5e1"/>
<rect x="1130" y="264" width="33" height="33" rx="5" fill="#bae6fd" stroke="#cbd5e1"/>
<rect x="902" y="302" width="33" height="33" rx="5" fill="#bae6fd" stroke="#cbd5e1"/>
<rect x="940" y="302" width="33" height="33" rx="5" fill="#bae6fd" stroke="#cbd5e1"/>
<rect x="978" y="302" width="33" height="33" rx="5" fill="#bae6fd" stroke="#cbd5e1"/>
<rect x="1016" y="302" width="33" height="33" rx="5" fill="#f8fafc" stroke="#cbd5e1"/>
<rect x="1054" y="302" width="33" height="33" rx="5" fill="#f8fafc" stroke="#cbd5e1"/>
<rect x="1092" y="302" width="33" height="33" rx="5" fill="#bae6fd" stroke="#cbd5e1"/>
<rect x="1130" y="302" width="33" height="33" rx="5" fill="#f8fafc" stroke="#cbd5e1"/>
<rect x="902" y="340" width="33" height="33" rx="5" fill="#f8fafc" stroke="#cbd5e1"/>
<rect x="940" y="340" width="33" height="33" rx="5" fill="#bae6fd" stroke="#cbd5e1"/>
<rect x="978" y="340" width="33" height="33" rx="5" fill="#bae6fd" stroke="#cbd5e1"/>
<rect x="1016" y="340" width="33" height="33" rx="5" fill="#bae6fd" stroke="#cbd5e1"/>
<rect x="1054" y="340" width="33" height="33" rx="5" fill="#bae6fd" stroke="#cbd5e1"/>
<rect x="1092" y="340" width="33" height="33" rx="5" fill="#f8fafc" stroke="#cbd5e1"/>
<rect x="1130" y="340" width="33" height="33" rx="5" fill="#f8fafc" stroke="#cbd5e1"/>
<rect x="902" y="378" width="33" height="33" rx="5" fill="#f8fafc" stroke="#cbd5e1"/>
<rect x="940" y="378" width="33" height="33" rx="5" fill="#f8fafc" stroke="#cbd5e1"/>
<rect x="978" y="378" width="33" height="33" rx="5" fill="#bae6fd" stroke="#cbd5e1"/>
<rect x="1016" y="378" width="33" height="33" rx="5" fill="#bae6fd" stroke="#cbd5e1"/>
<rect x="1054" y="378" width="33" height="33" rx="5" fill="#bae6fd" stroke="#cbd5e1"/>
<rect x="1092" y="378" width="33" height="33" rx="5" fill="#f8fafc" stroke="#cbd5e1"/>
<rect x="1130" y="378" width="33" height="33" rx="5" fill="#f8fafc" stroke="#cbd5e1"/>
<rect x="902" y="416" width="33" height="33" rx="5" fill="#f8fafc" stroke="#cbd5e1"/>
<rect x="940" y="416" width="33" height="33" rx="5" fill="#f8fafc" stroke="#cbd5e1"/>
<rect x="978" y="416" width="33" height="33" rx="5" fill="#bae6fd" stroke="#cbd5e1"/>
<rect x="1016" y="416" width="33" height="33" rx="5" fill="#e11d48" stroke="#cbd5e1"/>
<rect x="1054" y="416" width="33" height="33" rx="5" fill="#bae6fd" stroke="#cbd5e1"/>
<rect x="1092" y="416" width="33" height="33" rx="5" fill="#bae6fd" stroke="#cbd5e1"/>
<rect x="1130" y="416" width="33" height="33" rx="5" fill="#f8fafc" stroke="#cbd5e1"/>
<rect x="902" y="454" width="33" height="33" rx="5" fill="#f8fafc" stroke="#cbd5e1"/>
<rect x="940" y="454" width="33" height="33" rx="5" fill="#bae6fd" stroke="#cbd5e1"/>
<rect x="978" y="454" width="33" height="33" rx="5" fill="#f8fafc" stroke="#cbd5e1"/>
<rect x="1016" y="454" width="33" height="33" rx="5" fill="#f8fafc" stroke="#cbd5e1"/>
<rect x="1054" y="454" width="33" height="33" rx="5" fill="#bae6fd" stroke="#cbd5e1"/>
<rect x="1092" y="454" width="33" height="33" rx="5" fill="#bae6fd" stroke="#cbd5e1"/>
<rect x="1130" y="454" width="33" height="33" rx="5" fill="#bae6fd" stroke="#cbd5e1"/>
<rect x="902" y="492" width="33" height="33" rx="5" fill="#bae6fd" stroke="#cbd5e1"/>
<rect x="940" y="492" width="33" height="33" rx="5" fill="#f8fafc" stroke="#cbd5e1"/>
<rect x="978" y="492" width="33" height="33" rx="5" fill="#f8fafc" stroke="#cbd5e1"/>
<rect x="1016" y="492" width="33" height="33" rx="5" fill="#f8fafc" stroke="#cbd5e1"/>
<rect x="1054" y="492" width="33" height="33" rx="5" fill="#f8fafc" stroke="#cbd5e1"/>
<rect x="1092" y="492" width="33" height="33" rx="5" fill="#bae6fd" stroke="#cbd5e1"/>
<rect x="1130" y="492" width="33" height="33" rx="5" fill="#bae6fd" stroke="#cbd5e1"/>

<text x="1040" y="606" text-anchor="middle" font-size="14" font-weight="600" fill="#475569">beat frequency</text>
<line x1="478" y1="376" x2="526" y2="376" stroke="#64748b" stroke-width="3" stroke-linecap="round" marker-end="url(#arrow)"/>
<line x1="832" y1="376" x2="880" y2="376" stroke="#64748b" stroke-width="3" stroke-linecap="round" marker-end="url(#arrow)"/>

</svg>
