<svg xmlns="http://www.w3.org/2000/svg" width="1400" height="720" viewBox="0 0 1400 720" role="img" aria-labelledby="title desc" data-diagram-kind="error-budget">
  <title id="title">weather/degraded-operation chain</title>
  <desc id="desc">weather/degraded-operation chain from multi-return evidence through DSOR/LIOR, temporal filtering, severity state, jet-exhaust model, and planner/health response.</desc>
  <defs>
    <marker id="arrow" markerWidth="12" markerHeight="12" refX="9" refY="3" orient="auto" markerUnits="strokeWidth">
      <path d="M0,0 L0,6 L9,3 z" fill="#2563eb"/>
    </marker>
    <filter id="shadow" x="-10%" y="-10%" width="120%" height="120%">
      <feDropShadow dx="0" dy="5" stdDeviation="8" flood-color="#0f172a" flood-opacity="0.12"/>
    </filter>
    <pattern id="grid" width="28" height="28" patternUnits="userSpaceOnUse">
      <path d="M28 0H0V28" fill="none" stroke="#e2e8f0" stroke-width="1"/>
    </pattern>
  </defs>
  <rect width="1400" height="720" fill="#f8fafc"/>
  <rect x="42" y="38" width="1316" height="644" rx="20" fill="#ffffff" stroke="#d9e2ef" filter="url(#shadow)"/>
  <text x="80" y="88" font-size="30" font-weight="800" fill="#0f172a">weather/degraded-operation chain</text>
  <text x="80" y="122" font-size="16" font-weight="600" fill="#475569">weather/degraded-operation chain from multi-return evidence through DSOR/LIOR, temporal filtering, severity state, jet-exhaust model, and planner/h...</text>
  <rect x="80" y="144" width="1240" height="2" fill="#dbeafe"/>

<!-- layout:error-budget -->
<rect x="211" y="232" width="210" height="92" rx="14" fill="#eff6ff" stroke="#2563eb" stroke-width="2"/>
<text x="316" y="284" text-anchor="middle" font-size="15" font-weight="700" fill="#172033">multi-return</text>
<text x="316" y="302" text-anchor="middle" font-size="15" font-weight="700" fill="#172033">evidence through</text>

<line x1="425" y1="278" x2="459" y2="278" stroke="#64748b" stroke-width="2.6" stroke-linecap="round" marker-end="url(#arrow)"/>
<rect x="467" y="232" width="210" height="92" rx="14" fill="#f0fdf4" stroke="#16a34a" stroke-width="2"/>
<text x="572" y="284" text-anchor="middle" font-size="15" font-weight="700" fill="#172033">temporal filtering</text>

<line x1="681" y1="278" x2="715" y2="278" stroke="#64748b" stroke-width="2.6" stroke-linecap="round" marker-end="url(#arrow)"/>
<rect x="723" y="232" width="210" height="92" rx="14" fill="#fff7ed" stroke="#ea580c" stroke-width="2"/>
<text x="828" y="284" text-anchor="middle" font-size="15" font-weight="700" fill="#172033">severity state</text>

<line x1="937" y1="278" x2="971" y2="278" stroke="#64748b" stroke-width="2.6" stroke-linecap="round" marker-end="url(#arrow)"/>
<rect x="979" y="232" width="210" height="92" rx="14" fill="#ecfeff" stroke="#0891b2" stroke-width="2"/>
<text x="1084" y="284" text-anchor="middle" font-size="15" font-weight="700" fill="#172033">jet-exhaust model</text>


<rect x="214" y="368" width="118" height="78" rx="8" fill="#2563eb" opacity="0.78"/>
<rect x="472" y="320" width="118" height="126" rx="8" fill="#16a34a" opacity="0.78"/>
<rect x="730" y="276" width="118" height="170" rx="8" fill="#ea580c" opacity="0.78"/>
<rect x="988" y="342" width="118" height="104" rx="8" fill="#0891b2" opacity="0.78"/>
<line x1="166" y1="446" x2="1120" y2="446" stroke="#0f172a" stroke-width="3"/>
<text x="642" y="548" text-anchor="middle" font-size="14" font-weight="600" fill="#475569">budget accumulation</text>

</svg>
